<?xml version="1.0" encoding="UTF-8"?>
<svg xmlns="http://www.w3.org/2000/svg" width="263" height="697">
   <defs>
      <style type="text/css">
    @namespace "http://www.w3.org/2000/svg";
    .line                 {fill: none; stroke: #332900; stroke-width: 1;}
    .bold-line            {stroke: #141000; shape-rendering: crispEdges; stroke-width: 2;}
    .thin-line            {stroke: #1F1800; shape-rendering: crispEdges}
    .filled               {fill: #332900; stroke: none;}
    text.terminal         {font-family: Verdana, Sans-serif;
                            font-size: 12px;
                            fill: #141000;
                            font-weight: bold;
                          }
    text.nonterminal      {font-family: Verdana, Sans-serif;
                            font-size: 12px;
                            fill: #1A1400;
                            font-weight: normal;
                          }
    text.regexp           {font-family: Verdana, Sans-serif;
                            font-size: 12px;
                            fill: #1F1800;
                            font-weight: normal;
                          }
    rect, circle, polygon {fill: #332900; stroke: #332900;}
    rect.terminal         {fill: #FFDB4D; stroke: #332900; stroke-width: 1;}
    rect.nonterminal      {fill: #FFEC9E; stroke: #332900; stroke-width: 1;}
    rect.text             {fill: none; stroke: none;}
    polygon.regexp        {fill: #FFF4C7; stroke: #332900; stroke-width: 1;}
  </style>
   </defs>
   <polygon points="9 17 1 13 1 21"/>
   <polygon points="17 17 9 13 9 21"/>
   <a xmlns:xlink="http://www.w3.org/1999/xlink"
      xlink:href="#call_expression"
      xlink:title="call_expression">
      <rect x="51" y="3" width="118" height="32"/>
      <rect x="49" y="1" width="118" height="32" class="nonterminal"/>
      <text class="nonterminal" x="59" y="21">call_expression</text>
   </a>
   <a xmlns:xlink="http://www.w3.org/1999/xlink"
      xlink:href="#macro_call_expression"
      xlink:title="macro_call_expression">
      <rect x="51" y="47" width="164" height="32"/>
      <rect x="49" y="45" width="164" height="32" class="nonterminal"/>
      <text class="nonterminal" x="59" y="65">macro_call_expression</text>
   </a>
   <a xmlns:xlink="http://www.w3.org/1999/xlink"
      xlink:href="#lambda_expression"
      xlink:title="lambda_expression">
      <rect x="51" y="91" width="144" height="32"/>
      <rect x="49" y="89" width="144" height="32" class="nonterminal"/>
      <text class="nonterminal" x="59" y="109">lambda_expression</text>
   </a>
   <a xmlns:xlink="http://www.w3.org/1999/xlink"
      xlink:href="#if_expression"
      xlink:title="if_expression">
      <rect x="51" y="135" width="104" height="32"/>
      <rect x="49" y="133" width="104" height="32" class="nonterminal"/>
      <text class="nonterminal" x="59" y="153">if_expression</text>
   </a>
   <a xmlns:xlink="http://www.w3.org/1999/xlink"
      xlink:href="#while_expression"
      xlink:title="while_expression">
      <rect x="51" y="179" width="130" height="32"/>
      <rect x="49" y="177" width="130" height="32" class="nonterminal"/>
      <text class="nonterminal" x="59" y="197">while_expression</text>
   </a>
   <a xmlns:xlink="http://www.w3.org/1999/xlink"
      xlink:href="#return_expression"
      xlink:title="return_expression">
      <rect x="51" y="223" width="136" height="32"/>
      <rect x="49" y="221" width="136" height="32" class="nonterminal"/>
      <text class="nonterminal" x="59" y="241">return_expression</text>
   </a>
   <a xmlns:xlink="http://www.w3.org/1999/xlink"
      xlink:href="#abort_expression"
      xlink:title="abort_expression">
      <rect x="51" y="267" width="132" height="32"/>
      <rect x="49" y="265" width="132" height="32" class="nonterminal"/>
      <text class="nonterminal" x="59" y="285">abort_expression</text>
   </a>
   <a xmlns:xlink="http://www.w3.org/1999/xlink"
      xlink:href="#assign_expression"
      xlink:title="assign_expression">
      <rect x="51" y="311" width="138" height="32"/>
      <rect x="49" y="309" width="138" height="32" class="nonterminal"/>
      <text class="nonterminal" x="59" y="329">assign_expression</text>
   </a>
   <a xmlns:xlink="http://www.w3.org/1999/xlink"
      xlink:href="#_unary_expression"
      xlink:title="_unary_expression">
      <rect x="51" y="355" width="142" height="32"/>
      <rect x="49" y="353" width="142" height="32" class="nonterminal"/>
      <text class="nonterminal" x="59" y="373">_unary_expression</text>
   </a>
   <a xmlns:xlink="http://www.w3.org/1999/xlink"
      xlink:href="#binary_expression"
      xlink:title="binary_expression">
      <rect x="51" y="399" width="136" height="32"/>
      <rect x="49" y="397" width="136" height="32" class="nonterminal"/>
      <text class="nonterminal" x="59" y="417">binary_expression</text>
   </a>
   <a xmlns:xlink="http://www.w3.org/1999/xlink"
      xlink:href="#cast_expression"
      xlink:title="cast_expression">
      <rect x="51" y="443" width="124" height="32"/>
      <rect x="49" y="441" width="124" height="32" class="nonterminal"/>
      <text class="nonterminal" x="59" y="461">cast_expression</text>
   </a>
   <a xmlns:xlink="http://www.w3.org/1999/xlink"
      xlink:href="#quantifier_expression"
      xlink:title="quantifier_expression">
      <rect x="51" y="487" width="158" height="32"/>
      <rect x="49" y="485" width="158" height="32" class="nonterminal"/>
      <text class="nonterminal" x="59" y="505">quantifier_expression</text>
   </a>
   <a xmlns:xlink="http://www.w3.org/1999/xlink"
      xlink:href="#match_expression"
      xlink:title="match_expression">
      <rect x="51" y="531" width="136" height="32"/>
      <rect x="49" y="529" width="136" height="32" class="nonterminal"/>
      <text class="nonterminal" x="59" y="549">match_expression</text>
   </a>
   <a xmlns:xlink="http://www.w3.org/1999/xlink"
      xlink:href="#vector_expression"
      xlink:title="vector_expression">
      <rect x="51" y="575" width="136" height="32"/>
      <rect x="49" y="573" width="136" height="32" class="nonterminal"/>
      <text class="nonterminal" x="59" y="593">vector_expression</text>
   </a>
   <a xmlns:xlink="http://www.w3.org/1999/xlink"
      xlink:href="#loop_expression"
      xlink:title="loop_expression">
      <rect x="51" y="619" width="124" height="32"/>
      <rect x="49" y="617" width="124" height="32" class="nonterminal"/>
      <text class="nonterminal" x="59" y="637">loop_expression</text>
   </a>
   <a xmlns:xlink="http://www.w3.org/1999/xlink"
      xlink:href="#identified_expression"
      xlink:title="identified_expression">
      <rect x="51" y="663" width="156" height="32"/>
      <rect x="49" y="661" width="156" height="32" class="nonterminal"/>
      <text class="nonterminal" x="59" y="681">identified_expression</text>
   </a>
   <path class="line"
         d="m17 17 h2 m20 0 h10 m118 0 h10 m0 0 h46 m-204 0 h20 m184 0 h20 m-224 0 q10 0 10 10 m204 0 q0 -10 10 -10 m-214 10 v24 m204 0 v-24 m-204 24 q0 10 10 10 m184 0 q10 0 10 -10 m-194 10 h10 m164 0 h10 m-194 -10 v20 m204 0 v-20 m-204 20 v24 m204 0 v-24 m-204 24 q0 10 10 10 m184 0 q10 0 10 -10 m-194 10 h10 m144 0 h10 m0 0 h20 m-194 -10 v20 m204 0 v-20 m-204 20 v24 m204 0 v-24 m-204 24 q0 10 10 10 m184 0 q10 0 10 -10 m-194 10 h10 m104 0 h10 m0 0 h60 m-194 -10 v20 m204 0 v-20 m-204 20 v24 m204 0 v-24 m-204 24 q0 10 10 10 m184 0 q10 0 10 -10 m-194 10 h10 m130 0 h10 m0 0 h34 m-194 -10 v20 m204 0 v-20 m-204 20 v24 m204 0 v-24 m-204 24 q0 10 10 10 m184 0 q10 0 10 -10 m-194 10 h10 m136 0 h10 m0 0 h28 m-194 -10 v20 m204 0 v-20 m-204 20 v24 m204 0 v-24 m-204 24 q0 10 10 10 m184 0 q10 0 10 -10 m-194 10 h10 m132 0 h10 m0 0 h32 m-194 -10 v20 m204 0 v-20 m-204 20 v24 m204 0 v-24 m-204 24 q0 10 10 10 m184 0 q10 0 10 -10 m-194 10 h10 m138 0 h10 m0 0 h26 m-194 -10 v20 m204 0 v-20 m-204 20 v24 m204 0 v-24 m-204 24 q0 10 10 10 m184 0 q10 0 10 -10 m-194 10 h10 m142 0 h10 m0 0 h22 m-194 -10 v20 m204 0 v-20 m-204 20 v24 m204 0 v-24 m-204 24 q0 10 10 10 m184 0 q10 0 10 -10 m-194 10 h10 m136 0 h10 m0 0 h28 m-194 -10 v20 m204 0 v-20 m-204 20 v24 m204 0 v-24 m-204 24 q0 10 10 10 m184 0 q10 0 10 -10 m-194 10 h10 m124 0 h10 m0 0 h40 m-194 -10 v20 m204 0 v-20 m-204 20 v24 m204 0 v-24 m-204 24 q0 10 10 10 m184 0 q10 0 10 -10 m-194 10 h10 m158 0 h10 m0 0 h6 m-194 -10 v20 m204 0 v-20 m-204 20 v24 m204 0 v-24 m-204 24 q0 10 10 10 m184 0 q10 0 10 -10 m-194 10 h10 m136 0 h10 m0 0 h28 m-194 -10 v20 m204 0 v-20 m-204 20 v24 m204 0 v-24 m-204 24 q0 10 10 10 m184 0 q10 0 10 -10 m-194 10 h10 m136 0 h10 m0 0 h28 m-194 -10 v20 m204 0 v-20 m-204 20 v24 m204 0 v-24 m-204 24 q0 10 10 10 m184 0 q10 0 10 -10 m-194 10 h10 m124 0 h10 m0 0 h40 m-194 -10 v20 m204 0 v-20 m-204 20 v24 m204 0 v-24 m-204 24 q0 10 10 10 m184 0 q10 0 10 -10 m-194 10 h10 m156 0 h10 m0 0 h8 m23 -660 h-3"/>
   <polygon points="253 17 261 13 261 21"/>
   <polygon points="253 17 245 13 245 21"/>
</svg>
