<?xml version="1.0" encoding="UTF-8"?>
<svg xmlns="http://www.w3.org/2000/svg" width="265" height="741">
   <defs>
      <style type="text/css">
    @namespace "http://www.w3.org/2000/svg";
    .line                 {fill: none; stroke: #332900; stroke-width: 1;}
    .bold-line            {stroke: #141000; shape-rendering: crispEdges; stroke-width: 2;}
    .thin-line            {stroke: #1F1800; shape-rendering: crispEdges}
    .filled               {fill: #332900; stroke: none;}
    text.terminal         {font-family: Verdana, Sans-serif;
                            font-size: 12px;
                            fill: #141000;
                            font-weight: bold;
                          }
    text.nonterminal      {font-family: Verdana, Sans-serif;
                            font-size: 12px;
                            fill: #1A1400;
                            font-weight: normal;
                          }
    text.regexp           {font-family: Verdana, Sans-serif;
                            font-size: 12px;
                            fill: #1F1800;
                            font-weight: normal;
                          }
    rect, circle, polygon {fill: #332900; stroke: #332900;}
    rect.terminal         {fill: #FFDB4D; stroke: #332900; stroke-width: 1;}
    rect.nonterminal      {fill: #FFEC9E; stroke: #332900; stroke-width: 1;}
    rect.text             {fill: none; stroke: none;}
    polygon.regexp        {fill: #FFF4C7; stroke: #332900; stroke-width: 1;}
  </style>
   </defs>
   <polygon points="9 17 1 13 1 21"/>
   <polygon points="17 17 9 13 9 21"/>
   <a xmlns:xlink="http://www.w3.org/1999/xlink"
      xlink:href="#call_expression"
      xlink:title="call_expression">
      <rect x="51" y="3" width="118" height="32"/>
      <rect x="49" y="1" width="118" height="32" class="nonterminal"/>
      <text class="nonterminal" x="59" y="21">call_expression</text>
   </a>
   <a xmlns:xlink="http://www.w3.org/1999/xlink"
      xlink:href="#break_expression"
      xlink:title="break_expression">
      <rect x="51" y="47" width="134" height="32"/>
      <rect x="49" y="45" width="134" height="32" class="nonterminal"/>
      <text class="nonterminal" x="59" y="65">break_expression</text>
   </a>
   <a xmlns:xlink="http://www.w3.org/1999/xlink"
      xlink:href="#continue_expression"
      xlink:title="continue_expression">
      <rect x="51" y="91" width="152" height="32"/>
      <rect x="49" y="89" width="152" height="32" class="nonterminal"/>
      <text class="nonterminal" x="59" y="109">continue_expression</text>
   </a>
   <a xmlns:xlink="http://www.w3.org/1999/xlink"
      xlink:href="#name_expression"
      xlink:title="name_expression">
      <rect x="51" y="135" width="132" height="32"/>
      <rect x="49" y="133" width="132" height="32" class="nonterminal"/>
      <text class="nonterminal" x="59" y="153">name_expression</text>
   </a>
   <a xmlns:xlink="http://www.w3.org/1999/xlink"
      xlink:href="#macro_call_expression"
      xlink:title="macro_call_expression">
      <rect x="51" y="179" width="164" height="32"/>
      <rect x="49" y="177" width="164" height="32" class="nonterminal"/>
      <text class="nonterminal" x="59" y="197">macro_call_expression</text>
   </a>
   <a xmlns:xlink="http://www.w3.org/1999/xlink"
      xlink:href="#pack_expression"
      xlink:title="pack_expression">
      <rect x="51" y="223" width="126" height="32"/>
      <rect x="49" y="221" width="126" height="32" class="nonterminal"/>
      <text class="nonterminal" x="59" y="241">pack_expression</text>
   </a>
   <a xmlns:xlink="http://www.w3.org/1999/xlink"
      xlink:href="#_literal_value"
      xlink:title="_literal_value">
      <rect x="51" y="267" width="106" height="32"/>
      <rect x="49" y="265" width="106" height="32" class="nonterminal"/>
      <text class="nonterminal" x="59" y="285">_literal_value</text>
   </a>
   <a xmlns:xlink="http://www.w3.org/1999/xlink"
      xlink:href="#unit_expression"
      xlink:title="unit_expression">
      <rect x="51" y="311" width="122" height="32"/>
      <rect x="49" y="309" width="122" height="32" class="nonterminal"/>
      <text class="nonterminal" x="59" y="329">unit_expression</text>
   </a>
   <a xmlns:xlink="http://www.w3.org/1999/xlink"
      xlink:href="#expression_list"
      xlink:title="expression_list">
      <rect x="51" y="355" width="116" height="32"/>
      <rect x="49" y="353" width="116" height="32" class="nonterminal"/>
      <text class="nonterminal" x="59" y="373">expression_list</text>
   </a>
   <a xmlns:xlink="http://www.w3.org/1999/xlink"
      xlink:href="#annotation_expression"
      xlink:title="annotation_expression">
      <rect x="51" y="399" width="166" height="32"/>
      <rect x="49" y="397" width="166" height="32" class="nonterminal"/>
      <text class="nonterminal" x="59" y="417">annotation_expression</text>
   </a>
   <a xmlns:xlink="http://www.w3.org/1999/xlink"
      xlink:href="#block"
      xlink:title="block">
      <rect x="51" y="443" width="52" height="32"/>
      <rect x="49" y="441" width="52" height="32" class="nonterminal"/>
      <text class="nonterminal" x="59" y="461">block</text>
   </a>
   <a xmlns:xlink="http://www.w3.org/1999/xlink"
      xlink:href="#spec_block"
      xlink:title="spec_block">
      <rect x="51" y="487" width="90" height="32"/>
      <rect x="49" y="485" width="90" height="32" class="nonterminal"/>
      <text class="nonterminal" x="59" y="505">spec_block</text>
   </a>
   <a xmlns:xlink="http://www.w3.org/1999/xlink"
      xlink:href="#if_expression"
      xlink:title="if_expression">
      <rect x="51" y="531" width="104" height="32"/>
      <rect x="49" y="529" width="104" height="32" class="nonterminal"/>
      <text class="nonterminal" x="59" y="549">if_expression</text>
   </a>
   <a xmlns:xlink="http://www.w3.org/1999/xlink"
      xlink:href="#dot_expression"
      xlink:title="dot_expression">
      <rect x="51" y="575" width="118" height="32"/>
      <rect x="49" y="573" width="118" height="32" class="nonterminal"/>
      <text class="nonterminal" x="59" y="593">dot_expression</text>
   </a>
   <a xmlns:xlink="http://www.w3.org/1999/xlink"
      xlink:href="#index_expression"
      xlink:title="index_expression">
      <rect x="51" y="619" width="132" height="32"/>
      <rect x="49" y="617" width="132" height="32" class="nonterminal"/>
      <text class="nonterminal" x="59" y="637">index_expression</text>
   </a>
   <a xmlns:xlink="http://www.w3.org/1999/xlink"
      xlink:href="#vector_expression"
      xlink:title="vector_expression">
      <rect x="51" y="663" width="136" height="32"/>
      <rect x="49" y="661" width="136" height="32" class="nonterminal"/>
      <text class="nonterminal" x="59" y="681">vector_expression</text>
   </a>
   <a xmlns:xlink="http://www.w3.org/1999/xlink"
      xlink:href="#match_expression"
      xlink:title="match_expression">
      <rect x="51" y="707" width="136" height="32"/>
      <rect x="49" y="705" width="136" height="32" class="nonterminal"/>
      <text class="nonterminal" x="59" y="725">match_expression</text>
   </a>
   <path class="line"
         d="m17 17 h2 m20 0 h10 m118 0 h10 m0 0 h48 m-206 0 h20 m186 0 h20 m-226 0 q10 0 10 10 m206 0 q0 -10 10 -10 m-216 10 v24 m206 0 v-24 m-206 24 q0 10 10 10 m186 0 q10 0 10 -10 m-196 10 h10 m134 0 h10 m0 0 h32 m-196 -10 v20 m206 0 v-20 m-206 20 v24 m206 0 v-24 m-206 24 q0 10 10 10 m186 0 q10 0 10 -10 m-196 10 h10 m152 0 h10 m0 0 h14 m-196 -10 v20 m206 0 v-20 m-206 20 v24 m206 0 v-24 m-206 24 q0 10 10 10 m186 0 q10 0 10 -10 m-196 10 h10 m132 0 h10 m0 0 h34 m-196 -10 v20 m206 0 v-20 m-206 20 v24 m206 0 v-24 m-206 24 q0 10 10 10 m186 0 q10 0 10 -10 m-196 10 h10 m164 0 h10 m0 0 h2 m-196 -10 v20 m206 0 v-20 m-206 20 v24 m206 0 v-24 m-206 24 q0 10 10 10 m186 0 q10 0 10 -10 m-196 10 h10 m126 0 h10 m0 0 h40 m-196 -10 v20 m206 0 v-20 m-206 20 v24 m206 0 v-24 m-206 24 q0 10 10 10 m186 0 q10 0 10 -10 m-196 10 h10 m106 0 h10 m0 0 h60 m-196 -10 v20 m206 0 v-20 m-206 20 v24 m206 0 v-24 m-206 24 q0 10 10 10 m186 0 q10 0 10 -10 m-196 10 h10 m122 0 h10 m0 0 h44 m-196 -10 v20 m206 0 v-20 m-206 20 v24 m206 0 v-24 m-206 24 q0 10 10 10 m186 0 q10 0 10 -10 m-196 10 h10 m116 0 h10 m0 0 h50 m-196 -10 v20 m206 0 v-20 m-206 20 v24 m206 0 v-24 m-206 24 q0 10 10 10 m186 0 q10 0 10 -10 m-196 10 h10 m166 0 h10 m-196 -10 v20 m206 0 v-20 m-206 20 v24 m206 0 v-24 m-206 24 q0 10 10 10 m186 0 q10 0 10 -10 m-196 10 h10 m52 0 h10 m0 0 h114 m-196 -10 v20 m206 0 v-20 m-206 20 v24 m206 0 v-24 m-206 24 q0 10 10 10 m186 0 q10 0 10 -10 m-196 10 h10 m90 0 h10 m0 0 h76 m-196 -10 v20 m206 0 v-20 m-206 20 v24 m206 0 v-24 m-206 24 q0 10 10 10 m186 0 q10 0 10 -10 m-196 10 h10 m104 0 h10 m0 0 h62 m-196 -10 v20 m206 0 v-20 m-206 20 v24 m206 0 v-24 m-206 24 q0 10 10 10 m186 0 q10 0 10 -10 m-196 10 h10 m118 0 h10 m0 0 h48 m-196 -10 v20 m206 0 v-20 m-206 20 v24 m206 0 v-24 m-206 24 q0 10 10 10 m186 0 q10 0 10 -10 m-196 10 h10 m132 0 h10 m0 0 h34 m-196 -10 v20 m206 0 v-20 m-206 20 v24 m206 0 v-24 m-206 24 q0 10 10 10 m186 0 q10 0 10 -10 m-196 10 h10 m136 0 h10 m0 0 h30 m-196 -10 v20 m206 0 v-20 m-206 20 v24 m206 0 v-24 m-206 24 q0 10 10 10 m186 0 q10 0 10 -10 m-196 10 h10 m136 0 h10 m0 0 h30 m23 -704 h-3"/>
   <polygon points="255 17 263 13 263 21"/>
   <polygon points="255 17 247 13 247 21"/>
</svg>
