<?xml version="1.0" encoding="UTF-8"?>
<svg xmlns="http://www.w3.org/2000/svg" width="843" height="167">
   <defs>
      <style type="text/css">
    @namespace "http://www.w3.org/2000/svg";
    .line                 {fill: none; stroke: #332900; stroke-width: 1;}
    .bold-line            {stroke: #141000; shape-rendering: crispEdges; stroke-width: 2;}
    .thin-line            {stroke: #1F1800; shape-rendering: crispEdges}
    .filled               {fill: #332900; stroke: none;}
    text.terminal         {font-family: Verdana, Sans-serif;
                            font-size: 12px;
                            fill: #141000;
                            font-weight: bold;
                          }
    text.nonterminal      {font-family: Verdana, Sans-serif;
                            font-size: 12px;
                            fill: #1A1400;
                            font-weight: normal;
                          }
    text.regexp           {font-family: Verdana, Sans-serif;
                            font-size: 12px;
                            fill: #1F1800;
                            font-weight: normal;
                          }
    rect, circle, polygon {fill: #332900; stroke: #332900;}
    rect.terminal         {fill: #FFDB4D; stroke: #332900; stroke-width: 1;}
    rect.nonterminal      {fill: #FFEC9E; stroke: #332900; stroke-width: 1;}
    rect.text             {fill: none; stroke: none;}
    polygon.regexp        {fill: #FFF4C7; stroke: #332900; stroke-width: 1;}
  </style>
   </defs>
   <polygon points="9 17 1 13 1 21"/>
   <polygon points="17 17 9 13 9 21"/>
   <a xmlns:xlink="http://www.w3.org/1999/xlink"
      xlink:href="#modifier"
      xlink:title="modifier">
      <rect x="51" y="35" width="72" height="32"/>
      <rect x="49" y="33" width="72" height="32" class="nonterminal"/>
      <text class="nonterminal" x="59" y="53">modifier</text>
   </a>
   <a xmlns:xlink="http://www.w3.org/1999/xlink"
      xlink:href="#modifier"
      xlink:title="modifier">
      <rect x="183" y="35" width="72" height="32"/>
      <rect x="181" y="33" width="72" height="32" class="nonterminal"/>
      <text class="nonterminal" x="191" y="53">modifier</text>
   </a>
   <a xmlns:xlink="http://www.w3.org/1999/xlink"
      xlink:href="#modifier"
      xlink:title="modifier">
      <rect x="315" y="35" width="72" height="32"/>
      <rect x="313" y="33" width="72" height="32" class="nonterminal"/>
      <text class="nonterminal" x="323" y="53">modifier</text>
   </a>
   <rect x="427" y="3" width="42" height="32" rx="10"/>
   <rect x="425"
         y="1"
         width="42"
         height="32"
         class="terminal"
         rx="10"/>
   <text class="terminal" x="435" y="21">fun</text>
   <a xmlns:xlink="http://www.w3.org/1999/xlink"
      xlink:href="#_function_identifier"
      xlink:title="_function_identifier">
      <rect x="489" y="3" width="142" height="32"/>
      <rect x="487" y="1" width="142" height="32" class="nonterminal"/>
      <text class="nonterminal" x="497" y="21">_function_identifier</text>
   </a>
   <a xmlns:xlink="http://www.w3.org/1999/xlink"
      xlink:href="#type_parameters"
      xlink:title="type_parameters">
      <rect x="671" y="35" width="130" height="32"/>
      <rect x="669" y="33" width="130" height="32" class="nonterminal"/>
      <text class="nonterminal" x="679" y="53">type_parameters</text>
   </a>
   <a xmlns:xlink="http://www.w3.org/1999/xlink"
      xlink:href="#function_parameters"
      xlink:title="function_parameters">
      <rect x="529" y="101" width="152" height="32"/>
      <rect x="527" y="99" width="152" height="32" class="nonterminal"/>
      <text class="nonterminal" x="537" y="119">function_parameters</text>
   </a>
   <a xmlns:xlink="http://www.w3.org/1999/xlink"
      xlink:href="#ret_type"
      xlink:title="ret_type">
      <rect x="721" y="133" width="74" height="32"/>
      <rect x="719" y="131" width="74" height="32" class="nonterminal"/>
      <text class="nonterminal" x="729" y="151">ret_type</text>
   </a>
   <path class="line"
         d="m17 17 h2 m20 0 h10 m0 0 h82 m-112 0 h20 m92 0 h20 m-132 0 q10 0 10 10 m112 0 q0 -10 10 -10 m-122 10 v12 m112 0 v-12 m-112 12 q0 10 10 10 m92 0 q10 0 10 -10 m-102 10 h10 m72 0 h10 m40 -32 h10 m0 0 h82 m-112 0 h20 m92 0 h20 m-132 0 q10 0 10 10 m112 0 q0 -10 10 -10 m-122 10 v12 m112 0 v-12 m-112 12 q0 10 10 10 m92 0 q10 0 10 -10 m-102 10 h10 m72 0 h10 m40 -32 h10 m0 0 h82 m-112 0 h20 m92 0 h20 m-132 0 q10 0 10 10 m112 0 q0 -10 10 -10 m-122 10 v12 m112 0 v-12 m-112 12 q0 10 10 10 m92 0 q10 0 10 -10 m-102 10 h10 m72 0 h10 m20 -32 h10 m42 0 h10 m0 0 h10 m142 0 h10 m20 0 h10 m0 0 h140 m-170 0 h20 m150 0 h20 m-190 0 q10 0 10 10 m170 0 q0 -10 10 -10 m-180 10 v12 m170 0 v-12 m-170 12 q0 10 10 10 m150 0 q10 0 10 -10 m-160 10 h10 m130 0 h10 m22 -32 l2 0 m2 0 l2 0 m2 0 l2 0 m-336 98 l2 0 m2 0 l2 0 m2 0 l2 0 m2 0 h10 m152 0 h10 m20 0 h10 m0 0 h84 m-114 0 h20 m94 0 h20 m-134 0 q10 0 10 10 m114 0 q0 -10 10 -10 m-124 10 v12 m114 0 v-12 m-114 12 q0 10 10 10 m94 0 q10 0 10 -10 m-104 10 h10 m74 0 h10 m23 -32 h-3"/>
   <polygon points="833 115 841 111 841 119"/>
   <polygon points="833 115 825 111 825 119"/>
</svg>
