<?xml version="1.0" encoding="UTF-8"?>
<svg xmlns="http://www.w3.org/2000/svg" width="235" height="213">
   <defs>
      <style type="text/css">
    @namespace "http://www.w3.org/2000/svg";
    .line                 {fill: none; stroke: #332900; stroke-width: 1;}
    .bold-line            {stroke: #141000; shape-rendering: crispEdges; stroke-width: 2;}
    .thin-line            {stroke: #1F1800; shape-rendering: crispEdges}
    .filled               {fill: #332900; stroke: none;}
    text.terminal         {font-family: Verdana, Sans-serif;
                            font-size: 12px;
                            fill: #141000;
                            font-weight: bold;
                          }
    text.nonterminal      {font-family: Verdana, Sans-serif;
                            font-size: 12px;
                            fill: #1A1400;
                            font-weight: normal;
                          }
    text.regexp           {font-family: Verdana, Sans-serif;
                            font-size: 12px;
                            fill: #1F1800;
                            font-weight: normal;
                          }
    rect, circle, polygon {fill: #332900; stroke: #332900;}
    rect.terminal         {fill: #FFDB4D; stroke: #332900; stroke-width: 1;}
    rect.nonterminal      {fill: #FFEC9E; stroke: #332900; stroke-width: 1;}
    rect.text             {fill: none; stroke: none;}
    polygon.regexp        {fill: #FFF4C7; stroke: #332900; stroke-width: 1;}
  </style>
   </defs>
   <polygon points="9 17 1 13 1 21"/>
   <polygon points="17 17 9 13 9 21"/>
   <a xmlns:xlink="http://www.w3.org/1999/xlink"
      xlink:href="#address_literal"
      xlink:title="address_literal">
      <rect x="51" y="3" width="114" height="32"/>
      <rect x="49" y="1" width="114" height="32" class="nonterminal"/>
      <text class="nonterminal" x="59" y="21">address_literal</text>
   </a>
   <a xmlns:xlink="http://www.w3.org/1999/xlink"
      xlink:href="#bool_literal"
      xlink:title="bool_literal">
      <rect x="51" y="47" width="90" height="32"/>
      <rect x="49" y="45" width="90" height="32" class="nonterminal"/>
      <text class="nonterminal" x="59" y="65">bool_literal</text>
   </a>
   <a xmlns:xlink="http://www.w3.org/1999/xlink"
      xlink:href="#num_literal"
      xlink:title="num_literal">
      <rect x="51" y="91" width="92" height="32"/>
      <rect x="49" y="89" width="92" height="32" class="nonterminal"/>
      <text class="nonterminal" x="59" y="109">num_literal</text>
   </a>
   <a xmlns:xlink="http://www.w3.org/1999/xlink"
      xlink:href="#hex_string_literal"
      xlink:title="hex_string_literal">
      <rect x="51" y="135" width="132" height="32"/>
      <rect x="49" y="133" width="132" height="32" class="nonterminal"/>
      <text class="nonterminal" x="59" y="153">hex_string_literal</text>
   </a>
   <a xmlns:xlink="http://www.w3.org/1999/xlink"
      xlink:href="#byte_string_literal"
      xlink:title="byte_string_literal">
      <rect x="51" y="179" width="136" height="32"/>
      <rect x="49" y="177" width="136" height="32" class="nonterminal"/>
      <text class="nonterminal" x="59" y="197">byte_string_literal</text>
   </a>
   <path class="line"
         d="m17 17 h2 m20 0 h10 m114 0 h10 m0 0 h22 m-176 0 h20 m156 0 h20 m-196 0 q10 0 10 10 m176 0 q0 -10 10 -10 m-186 10 v24 m176 0 v-24 m-176 24 q0 10 10 10 m156 0 q10 0 10 -10 m-166 10 h10 m90 0 h10 m0 0 h46 m-166 -10 v20 m176 0 v-20 m-176 20 v24 m176 0 v-24 m-176 24 q0 10 10 10 m156 0 q10 0 10 -10 m-166 10 h10 m92 0 h10 m0 0 h44 m-166 -10 v20 m176 0 v-20 m-176 20 v24 m176 0 v-24 m-176 24 q0 10 10 10 m156 0 q10 0 10 -10 m-166 10 h10 m132 0 h10 m0 0 h4 m-166 -10 v20 m176 0 v-20 m-176 20 v24 m176 0 v-24 m-176 24 q0 10 10 10 m156 0 q10 0 10 -10 m-166 10 h10 m136 0 h10 m23 -176 h-3"/>
   <polygon points="225 17 233 13 233 21"/>
   <polygon points="225 17 217 13 217 21"/>
</svg>
