<?xml version="1.0" encoding="UTF-8"?>
<svg xmlns="http://www.w3.org/2000/svg" width="197" height="213">
   <defs>
      <style type="text/css">
    @namespace "http://www.w3.org/2000/svg";
    .line                 {fill: none; stroke: #332900; stroke-width: 1;}
    .bold-line            {stroke: #141000; shape-rendering: crispEdges; stroke-width: 2;}
    .thin-line            {stroke: #1F1800; shape-rendering: crispEdges}
    .filled               {fill: #332900; stroke: none;}
    text.terminal         {font-family: Verdana, Sans-serif;
                            font-size: 12px;
                            fill: #141000;
                            font-weight: bold;
                          }
    text.nonterminal      {font-family: Verdana, Sans-serif;
                            font-size: 12px;
                            fill: #1A1400;
                            font-weight: normal;
                          }
    text.regexp           {font-family: Verdana, Sans-serif;
                            font-size: 12px;
                            fill: #1F1800;
                            font-weight: normal;
                          }
    rect, circle, polygon {fill: #332900; stroke: #332900;}
    rect.terminal         {fill: #FFDB4D; stroke: #332900; stroke-width: 1;}
    rect.nonterminal      {fill: #FFEC9E; stroke: #332900; stroke-width: 1;}
    rect.text             {fill: none; stroke: none;}
    polygon.regexp        {fill: #FFF4C7; stroke: #332900; stroke-width: 1;}
  </style>
   </defs>
   <polygon points="9 17 1 13 1 21"/>
   <polygon points="17 17 9 13 9 21"/>
   <rect x="51" y="3" width="62" height="32" rx="10"/>
   <rect x="49"
         y="1"
         width="62"
         height="32"
         class="terminal"
         rx="10"/>
   <text class="terminal" x="59" y="21">assert</text>
   <rect x="51" y="47" width="70" height="32" rx="10"/>
   <rect x="49"
         y="45"
         width="70"
         height="32"
         class="terminal"
         rx="10"/>
   <text class="terminal" x="59" y="65">assume</text>
   <rect x="51" y="91" width="88" height="32" rx="10"/>
   <rect x="49"
         y="89"
         width="88"
         height="32"
         class="terminal"
         rx="10"/>
   <text class="terminal" x="59" y="109">decreases</text>
   <rect x="51" y="135" width="72" height="32" rx="10"/>
   <rect x="49"
         y="133"
         width="72"
         height="32"
         class="terminal"
         rx="10"/>
   <text class="terminal" x="59" y="153">ensures</text>
   <rect x="51" y="179" width="98" height="32" rx="10"/>
   <rect x="49"
         y="177"
         width="98"
         height="32"
         class="terminal"
         rx="10"/>
   <text class="terminal" x="59" y="197">succeeds_if</text>
   <path class="line"
         d="m17 17 h2 m20 0 h10 m62 0 h10 m0 0 h36 m-138 0 h20 m118 0 h20 m-158 0 q10 0 10 10 m138 0 q0 -10 10 -10 m-148 10 v24 m138 0 v-24 m-138 24 q0 10 10 10 m118 0 q10 0 10 -10 m-128 10 h10 m70 0 h10 m0 0 h28 m-128 -10 v20 m138 0 v-20 m-138 20 v24 m138 0 v-24 m-138 24 q0 10 10 10 m118 0 q10 0 10 -10 m-128 10 h10 m88 0 h10 m0 0 h10 m-128 -10 v20 m138 0 v-20 m-138 20 v24 m138 0 v-24 m-138 24 q0 10 10 10 m118 0 q10 0 10 -10 m-128 10 h10 m72 0 h10 m0 0 h26 m-128 -10 v20 m138 0 v-20 m-138 20 v24 m138 0 v-24 m-138 24 q0 10 10 10 m118 0 q10 0 10 -10 m-128 10 h10 m98 0 h10 m23 -176 h-3"/>
   <polygon points="187 17 195 13 195 21"/>
   <polygon points="187 17 179 13 179 21"/>
</svg>
