<?xml version="1.0" encoding="UTF-8"?>
<svg xmlns="http://www.w3.org/2000/svg" width="215" height="345">
   <defs>
      <style type="text/css">
    @namespace "http://www.w3.org/2000/svg";
    .line                 {fill: none; stroke: #332900; stroke-width: 1;}
    .bold-line            {stroke: #141000; shape-rendering: crispEdges; stroke-width: 2;}
    .thin-line            {stroke: #1F1800; shape-rendering: crispEdges}
    .filled               {fill: #332900; stroke: none;}
    text.terminal         {font-family: Verdana, Sans-serif;
                            font-size: 12px;
                            fill: #141000;
                            font-weight: bold;
                          }
    text.nonterminal      {font-family: Verdana, Sans-serif;
                            font-size: 12px;
                            fill: #1A1400;
                            font-weight: normal;
                          }
    text.regexp           {font-family: Verdana, Sans-serif;
                            font-size: 12px;
                            fill: #1F1800;
                            font-weight: normal;
                          }
    rect, circle, polygon {fill: #332900; stroke: #332900;}
    rect.terminal         {fill: #FFDB4D; stroke: #332900; stroke-width: 1;}
    rect.nonterminal      {fill: #FFEC9E; stroke: #332900; stroke-width: 1;}
    rect.text             {fill: none; stroke: none;}
    polygon.regexp        {fill: #FFF4C7; stroke: #332900; stroke-width: 1;}
  </style>
   </defs>
   <polygon points="9 17 1 13 1 21"/>
   <polygon points="17 17 9 13 9 21"/>
   <a xmlns:xlink="http://www.w3.org/1999/xlink"
      xlink:href="#spec_invariant"
      xlink:title="spec_invariant">
      <rect x="51" y="3" width="112" height="32"/>
      <rect x="49" y="1" width="112" height="32" class="nonterminal"/>
      <text class="nonterminal" x="59" y="21">spec_invariant</text>
   </a>
   <a xmlns:xlink="http://www.w3.org/1999/xlink"
      xlink:href="#_spec_function"
      xlink:title="_spec_function">
      <rect x="51" y="47" width="116" height="32"/>
      <rect x="49" y="45" width="116" height="32" class="nonterminal"/>
      <text class="nonterminal" x="59" y="65">_spec_function</text>
   </a>
   <a xmlns:xlink="http://www.w3.org/1999/xlink"
      xlink:href="#spec_condition"
      xlink:title="spec_condition">
      <rect x="51" y="91" width="114" height="32"/>
      <rect x="49" y="89" width="114" height="32" class="nonterminal"/>
      <text class="nonterminal" x="59" y="109">spec_condition</text>
   </a>
   <a xmlns:xlink="http://www.w3.org/1999/xlink"
      xlink:href="#spec_include"
      xlink:title="spec_include">
      <rect x="51" y="135" width="102" height="32"/>
      <rect x="49" y="133" width="102" height="32" class="nonterminal"/>
      <text class="nonterminal" x="59" y="153">spec_include</text>
   </a>
   <a xmlns:xlink="http://www.w3.org/1999/xlink"
      xlink:href="#spec_apply"
      xlink:title="spec_apply">
      <rect x="51" y="179" width="92" height="32"/>
      <rect x="49" y="177" width="92" height="32" class="nonterminal"/>
      <text class="nonterminal" x="59" y="197">spec_apply</text>
   </a>
   <a xmlns:xlink="http://www.w3.org/1999/xlink"
      xlink:href="#spec_pragma"
      xlink:title="spec_pragma">
      <rect x="51" y="223" width="106" height="32"/>
      <rect x="49" y="221" width="106" height="32" class="nonterminal"/>
      <text class="nonterminal" x="59" y="241">spec_pragma</text>
   </a>
   <a xmlns:xlink="http://www.w3.org/1999/xlink"
      xlink:href="#spec_variable"
      xlink:title="spec_variable">
      <rect x="51" y="267" width="108" height="32"/>
      <rect x="49" y="265" width="108" height="32" class="nonterminal"/>
      <text class="nonterminal" x="59" y="285">spec_variable</text>
   </a>
   <a xmlns:xlink="http://www.w3.org/1999/xlink"
      xlink:href="#spec_let"
      xlink:title="spec_let">
      <rect x="51" y="311" width="74" height="32"/>
      <rect x="49" y="309" width="74" height="32" class="nonterminal"/>
      <text class="nonterminal" x="59" y="329">spec_let</text>
   </a>
   <path class="line"
         d="m17 17 h2 m20 0 h10 m112 0 h10 m0 0 h4 m-156 0 h20 m136 0 h20 m-176 0 q10 0 10 10 m156 0 q0 -10 10 -10 m-166 10 v24 m156 0 v-24 m-156 24 q0 10 10 10 m136 0 q10 0 10 -10 m-146 10 h10 m116 0 h10 m-146 -10 v20 m156 0 v-20 m-156 20 v24 m156 0 v-24 m-156 24 q0 10 10 10 m136 0 q10 0 10 -10 m-146 10 h10 m114 0 h10 m0 0 h2 m-146 -10 v20 m156 0 v-20 m-156 20 v24 m156 0 v-24 m-156 24 q0 10 10 10 m136 0 q10 0 10 -10 m-146 10 h10 m102 0 h10 m0 0 h14 m-146 -10 v20 m156 0 v-20 m-156 20 v24 m156 0 v-24 m-156 24 q0 10 10 10 m136 0 q10 0 10 -10 m-146 10 h10 m92 0 h10 m0 0 h24 m-146 -10 v20 m156 0 v-20 m-156 20 v24 m156 0 v-24 m-156 24 q0 10 10 10 m136 0 q10 0 10 -10 m-146 10 h10 m106 0 h10 m0 0 h10 m-146 -10 v20 m156 0 v-20 m-156 20 v24 m156 0 v-24 m-156 24 q0 10 10 10 m136 0 q10 0 10 -10 m-146 10 h10 m108 0 h10 m0 0 h8 m-146 -10 v20 m156 0 v-20 m-156 20 v24 m156 0 v-24 m-156 24 q0 10 10 10 m136 0 q10 0 10 -10 m-146 10 h10 m74 0 h10 m0 0 h42 m23 -308 h-3"/>
   <polygon points="205 17 213 13 213 21"/>
   <polygon points="205 17 197 13 197 21"/>
</svg>
