<?xml version="1.0" encoding="UTF-8"?>
<svg xmlns="http://www.w3.org/2000/svg" width="301" height="125">
   <defs>
      <style type="text/css">
    @namespace "http://www.w3.org/2000/svg";
    .line                 {fill: none; stroke: #332900; stroke-width: 1;}
    .bold-line            {stroke: #141000; shape-rendering: crispEdges; stroke-width: 2;}
    .thin-line            {stroke: #1F1800; shape-rendering: crispEdges}
    .filled               {fill: #332900; stroke: none;}
    text.terminal         {font-family: Verdana, Sans-serif;
                            font-size: 12px;
                            fill: #141000;
                            font-weight: bold;
                          }
    text.nonterminal      {font-family: Verdana, Sans-serif;
                            font-size: 12px;
                            fill: #1A1400;
                            font-weight: normal;
                          }
    text.regexp           {font-family: Verdana, Sans-serif;
                            font-size: 12px;
                            fill: #1F1800;
                            font-weight: normal;
                          }
    rect, circle, polygon {fill: #332900; stroke: #332900;}
    rect.terminal         {fill: #FFDB4D; stroke: #332900; stroke-width: 1;}
    rect.nonterminal      {fill: #FFEC9E; stroke: #332900; stroke-width: 1;}
    rect.text             {fill: none; stroke: none;}
    polygon.regexp        {fill: #FFF4C7; stroke: #332900; stroke-width: 1;}
  </style>
   </defs>
   <polygon points="9 17 1 13 1 21"/>
   <polygon points="17 17 9 13 9 21"/>
   <a xmlns:xlink="http://www.w3.org/1999/xlink"
      xlink:href="#native_spec_function"
      xlink:title="native_spec_function">
      <rect x="51" y="3" width="154" height="32"/>
      <rect x="49" y="1" width="154" height="32" class="nonterminal"/>
      <text class="nonterminal" x="59" y="21">native_spec_function</text>
   </a>
   <a xmlns:xlink="http://www.w3.org/1999/xlink"
      xlink:href="#usual_spec_function"
      xlink:title="usual_spec_function">
      <rect x="51" y="47" width="150" height="32"/>
      <rect x="49" y="45" width="150" height="32" class="nonterminal"/>
      <text class="nonterminal" x="59" y="65">usual_spec_function</text>
   </a>
   <a xmlns:xlink="http://www.w3.org/1999/xlink"
      xlink:href="#uninterpreted_spec_function"
      xlink:title="uninterpreted_spec_function">
      <rect x="51" y="91" width="202" height="32"/>
      <rect x="49" y="89" width="202" height="32" class="nonterminal"/>
      <text class="nonterminal" x="59" y="109">uninterpreted_spec_function</text>
   </a>
   <path class="line"
         d="m17 17 h2 m20 0 h10 m154 0 h10 m0 0 h48 m-242 0 h20 m222 0 h20 m-262 0 q10 0 10 10 m242 0 q0 -10 10 -10 m-252 10 v24 m242 0 v-24 m-242 24 q0 10 10 10 m222 0 q10 0 10 -10 m-232 10 h10 m150 0 h10 m0 0 h52 m-232 -10 v20 m242 0 v-20 m-242 20 v24 m242 0 v-24 m-242 24 q0 10 10 10 m222 0 q10 0 10 -10 m-232 10 h10 m202 0 h10 m23 -88 h-3"/>
   <polygon points="291 17 299 13 299 21"/>
   <polygon points="291 17 283 13 283 21"/>
</svg>
