<?xml version="1.0" encoding="UTF-8"?>
<svg xmlns="http://www.w3.org/2000/svg" width="657" height="69">
   <defs>
      <style type="text/css">
    @namespace "http://www.w3.org/2000/svg";
    .line                 {fill: none; stroke: #332900; stroke-width: 1;}
    .bold-line            {stroke: #141000; shape-rendering: crispEdges; stroke-width: 2;}
    .thin-line            {stroke: #1F1800; shape-rendering: crispEdges}
    .filled               {fill: #332900; stroke: none;}
    text.terminal         {font-family: Verdana, Sans-serif;
                            font-size: 12px;
                            fill: #141000;
                            font-weight: bold;
                          }
    text.nonterminal      {font-family: Verdana, Sans-serif;
                            font-size: 12px;
                            fill: #1A1400;
                            font-weight: normal;
                          }
    text.regexp           {font-family: Verdana, Sans-serif;
                            font-size: 12px;
                            fill: #1F1800;
                            font-weight: normal;
                          }
    rect, circle, polygon {fill: #332900; stroke: #332900;}
    rect.terminal         {fill: #FFDB4D; stroke: #332900; stroke-width: 1;}
    rect.nonterminal      {fill: #FFEC9E; stroke: #332900; stroke-width: 1;}
    rect.text             {fill: none; stroke: none;}
    polygon.regexp        {fill: #FFF4C7; stroke: #332900; stroke-width: 1;}
  </style>
   </defs>
   <polygon points="9 17 1 13 1 21"/>
   <polygon points="17 17 9 13 9 21"/>
   <a xmlns:xlink="http://www.w3.org/1999/xlink"
      xlink:href="#_function_identifier"
      xlink:title="_function_identifier">
      <rect x="31" y="3" width="142" height="32"/>
      <rect x="29" y="1" width="142" height="32" class="nonterminal"/>
      <text class="nonterminal" x="39" y="21">_function_identifier</text>
   </a>
   <a xmlns:xlink="http://www.w3.org/1999/xlink"
      xlink:href="#type_parameters"
      xlink:title="type_parameters">
      <rect x="213" y="35" width="130" height="32"/>
      <rect x="211" y="33" width="130" height="32" class="nonterminal"/>
      <text class="nonterminal" x="221" y="53">type_parameters</text>
   </a>
   <a xmlns:xlink="http://www.w3.org/1999/xlink"
      xlink:href="#function_parameters"
      xlink:title="function_parameters">
      <rect x="383" y="3" width="152" height="32"/>
      <rect x="381" y="1" width="152" height="32" class="nonterminal"/>
      <text class="nonterminal" x="391" y="21">function_parameters</text>
   </a>
   <a xmlns:xlink="http://www.w3.org/1999/xlink"
      xlink:href="#ret_type"
      xlink:title="ret_type">
      <rect x="555" y="3" width="74" height="32"/>
      <rect x="553" y="1" width="74" height="32" class="nonterminal"/>
      <text class="nonterminal" x="563" y="21">ret_type</text>
   </a>
   <path class="line"
         d="m17 17 h2 m0 0 h10 m142 0 h10 m20 0 h10 m0 0 h140 m-170 0 h20 m150 0 h20 m-190 0 q10 0 10 10 m170 0 q0 -10 10 -10 m-180 10 v12 m170 0 v-12 m-170 12 q0 10 10 10 m150 0 q10 0 10 -10 m-160 10 h10 m130 0 h10 m20 -32 h10 m152 0 h10 m0 0 h10 m74 0 h10 m3 0 h-3"/>
   <polygon points="647 17 655 13 655 21"/>
   <polygon points="647 17 639 13 639 21"/>
</svg>
