<?xml version="1.0" encoding="UTF-8"?>
<svg xmlns="http://www.w3.org/2000/svg" width="677" height="113">
   <defs>
      <style type="text/css">
    @namespace "http://www.w3.org/2000/svg";
    .line                 {fill: none; stroke: #332900; stroke-width: 1;}
    .bold-line            {stroke: #141000; shape-rendering: crispEdges; stroke-width: 2;}
    .thin-line            {stroke: #1F1800; shape-rendering: crispEdges}
    .filled               {fill: #332900; stroke: none;}
    text.terminal         {font-family: Verdana, Sans-serif;
                            font-size: 12px;
                            fill: #141000;
                            font-weight: bold;
                          }
    text.nonterminal      {font-family: Verdana, Sans-serif;
                            font-size: 12px;
                            fill: #1A1400;
                            font-weight: normal;
                          }
    text.regexp           {font-family: Verdana, Sans-serif;
                            font-size: 12px;
                            fill: #1F1800;
                            font-weight: normal;
                          }
    rect, circle, polygon {fill: #332900; stroke: #332900;}
    rect.terminal         {fill: #FFDB4D; stroke: #332900; stroke-width: 1;}
    rect.nonterminal      {fill: #FFEC9E; stroke: #332900; stroke-width: 1;}
    rect.text             {fill: none; stroke: none;}
    polygon.regexp        {fill: #FFF4C7; stroke: #332900; stroke-width: 1;}
  </style>
   </defs>
   <polygon points="9 17 1 13 1 21"/>
   <polygon points="17 17 9 13 9 21"/>
   <a xmlns:xlink="http://www.w3.org/1999/xlink"
      xlink:href="#_spec_condition_kind"
      xlink:title="_spec_condition_kind">
      <rect x="51" y="3" width="156" height="32"/>
      <rect x="49" y="1" width="156" height="32" class="nonterminal"/>
      <text class="nonterminal" x="59" y="21">_spec_condition_kind</text>
   </a>
   <rect x="51" y="47" width="76" height="32" rx="10"/>
   <rect x="49"
         y="45"
         width="76"
         height="32"
         class="terminal"
         rx="10"/>
   <text class="terminal" x="59" y="65">requires</text>
   <rect x="167" y="79" width="70" height="32" rx="10"/>
   <rect x="165"
         y="77"
         width="70"
         height="32"
         class="terminal"
         rx="10"/>
   <text class="terminal" x="175" y="97">module</text>
   <a xmlns:xlink="http://www.w3.org/1999/xlink"
      xlink:href="#condition_properties"
      xlink:title="condition_properties">
      <rect x="317" y="35" width="150" height="32"/>
      <rect x="315" y="33" width="150" height="32" class="nonterminal"/>
      <text class="nonterminal" x="325" y="53">condition_properties</text>
   </a>
   <a xmlns:xlink="http://www.w3.org/1999/xlink"
      xlink:href="#_expression"
      xlink:title="_expression">
      <rect x="507" y="3" width="98" height="32"/>
      <rect x="505" y="1" width="98" height="32" class="nonterminal"/>
      <text class="nonterminal" x="515" y="21">_expression</text>
   </a>
   <rect x="625" y="3" width="24" height="32" rx="10"/>
   <rect x="623"
         y="1"
         width="24"
         height="32"
         class="terminal"
         rx="10"/>
   <text class="terminal" x="633" y="21">;</text>
   <path class="line"
         d="m17 17 h2 m20 0 h10 m156 0 h10 m0 0 h50 m-246 0 h20 m226 0 h20 m-266 0 q10 0 10 10 m246 0 q0 -10 10 -10 m-256 10 v24 m246 0 v-24 m-246 24 q0 10 10 10 m226 0 q10 0 10 -10 m-236 10 h10 m76 0 h10 m20 0 h10 m0 0 h80 m-110 0 h20 m90 0 h20 m-130 0 q10 0 10 10 m110 0 q0 -10 10 -10 m-120 10 v12 m110 0 v-12 m-110 12 q0 10 10 10 m90 0 q10 0 10 -10 m-100 10 h10 m70 0 h10 m60 -76 h10 m0 0 h160 m-190 0 h20 m170 0 h20 m-210 0 q10 0 10 10 m190 0 q0 -10 10 -10 m-200 10 v12 m190 0 v-12 m-190 12 q0 10 10 10 m170 0 q10 0 10 -10 m-180 10 h10 m150 0 h10 m20 -32 h10 m98 0 h10 m0 0 h10 m24 0 h10 m3 0 h-3"/>
   <polygon points="667 17 675 13 675 21"/>
   <polygon points="667 17 659 13 659 21"/>
</svg>
