<?xml version="1.0" encoding="UTF-8"?>
<svg xmlns="http://www.w3.org/2000/svg" width="349" height="207">
   <defs>
      <style type="text/css">
    @namespace "http://www.w3.org/2000/svg";
    .line                 {fill: none; stroke: #332900; stroke-width: 1;}
    .bold-line            {stroke: #141000; shape-rendering: crispEdges; stroke-width: 2;}
    .thin-line            {stroke: #1F1800; shape-rendering: crispEdges}
    .filled               {fill: #332900; stroke: none;}
    text.terminal         {font-family: Verdana, Sans-serif;
                            font-size: 12px;
                            fill: #141000;
                            font-weight: bold;
                          }
    text.nonterminal      {font-family: Verdana, Sans-serif;
                            font-size: 12px;
                            fill: #1A1400;
                            font-weight: normal;
                          }
    text.regexp           {font-family: Verdana, Sans-serif;
                            font-size: 12px;
                            fill: #1F1800;
                            font-weight: normal;
                          }
    rect, circle, polygon {fill: #332900; stroke: #332900;}
    rect.terminal         {fill: #FFDB4D; stroke: #332900; stroke-width: 1;}
    rect.nonterminal      {fill: #FFEC9E; stroke: #332900; stroke-width: 1;}
    rect.text             {fill: none; stroke: none;}
    polygon.regexp        {fill: #FFF4C7; stroke: #332900; stroke-width: 1;}
  </style>
   </defs>
   <polygon points="9 33 1 29 1 37"/>
   <polygon points="17 33 9 29 9 37"/>
   <rect x="31" y="19" width="32" height="32" rx="10"/>
   <rect x="29"
         y="17"
         width="32"
         height="32"
         class="terminal"
         rx="10"/>
   <text class="terminal" x="39" y="37">@</text>
   <rect x="103" y="19" width="36" height="32" rx="10"/>
   <rect x="101"
         y="17"
         width="36"
         height="32"
         class="terminal"
         rx="10"/>
   <text class="terminal" x="111" y="37">0x</text>
   <polygon points="199 35 206 19 250 19 257 35 250 51 206 51"/>
   <polygon points="197 33 204 17 248 17 255 33 248 49 204 49" class="regexp"/>
   <text class="regexp" x="212" y="37">[a-f]</text>
   <polygon points="199 79 206 63 252 63 259 79 252 95 206 95"/>
   <polygon points="197 77 204 61 250 61 257 77 250 93 204 93" class="regexp"/>
   <text class="regexp" x="212" y="81">[A-F]</text>
   <polygon points="199 123 206 107 254 107 261 123 254 139 206 139"/>
   <polygon points="197 121 204 105 252 105 259 121 252 137 204 137" class="regexp"/>
   <text class="regexp" x="212" y="125">[0-9]</text>
   <polygon points="123 189 130 173 178 173 185 189 178 205 130 205"/>
   <polygon points="121 187 128 171 176 171 183 187 176 203 128 203" class="regexp"/>
   <text class="regexp" x="136" y="191">[0-9]</text>
   <path class="line"
         d="m17 33 h2 m0 0 h10 m32 0 h10 m20 0 h10 m36 0 h10 m40 0 h10 m58 0 h10 m0 0 h4 m-102 0 h20 m82 0 h20 m-122 0 q10 0 10 10 m102 0 q0 -10 10 -10 m-112 10 v24 m102 0 v-24 m-102 24 q0 10 10 10 m82 0 q10 0 10 -10 m-92 10 h10 m60 0 h10 m0 0 h2 m-92 -10 v20 m102 0 v-20 m-102 20 v24 m102 0 v-24 m-102 24 q0 10 10 10 m82 0 q10 0 10 -10 m-92 10 h10 m62 0 h10 m-122 -88 l20 0 m-1 0 q-9 0 -9 -10 l0 -12 q0 -10 10 -10 m122 32 l20 0 m-20 0 q10 0 10 -10 l0 -12 q0 -10 -10 -10 m-122 0 h10 m0 0 h112 m-218 32 h20 m218 0 h20 m-258 0 q10 0 10 10 m238 0 q0 -10 10 -10 m-248 10 v134 m238 0 v-134 m-238 134 q0 10 10 10 m218 0 q10 0 10 -10 m-208 10 h10 m62 0 h10 m-102 0 l20 0 m-1 0 q-9 0 -9 -10 l0 -12 q0 -10 10 -10 m82 32 l20 0 m-20 0 q10 0 10 -10 l0 -12 q0 -10 -10 -10 m-82 0 h10 m0 0 h72 m20 32 h96 m23 -154 h-3"/>
   <polygon points="339 33 347 29 347 37"/>
   <polygon points="339 33 331 29 331 37"/>
</svg>
