<?xml version="1.0" encoding="UTF-8"?>
<svg xmlns="http://www.w3.org/2000/svg" width="617" height="201">
   <defs>
      <style type="text/css">
    @namespace "http://www.w3.org/2000/svg";
    .line                 {fill: none; stroke: #332900; stroke-width: 1;}
    .bold-line            {stroke: #141000; shape-rendering: crispEdges; stroke-width: 2;}
    .thin-line            {stroke: #1F1800; shape-rendering: crispEdges}
    .filled               {fill: #332900; stroke: none;}
    text.terminal         {font-family: Verdana, Sans-serif;
                            font-size: 12px;
                            fill: #141000;
                            font-weight: bold;
                          }
    text.nonterminal      {font-family: Verdana, Sans-serif;
                            font-size: 12px;
                            fill: #1A1400;
                            font-weight: normal;
                          }
    text.regexp           {font-family: Verdana, Sans-serif;
                            font-size: 12px;
                            fill: #1F1800;
                            font-weight: normal;
                          }
    rect, circle, polygon {fill: #332900; stroke: #332900;}
    rect.terminal         {fill: #FFDB4D; stroke: #332900; stroke-width: 1;}
    rect.nonterminal      {fill: #FFEC9E; stroke: #332900; stroke-width: 1;}
    rect.text             {fill: none; stroke: none;}
    polygon.regexp        {fill: #FFF4C7; stroke: #332900; stroke-width: 1;}
  </style>
   </defs>
   <polygon points="9 61 1 57 1 65"/>
   <polygon points="17 61 9 57 9 65"/>
   <a xmlns:xlink="http://www.w3.org/1999/xlink"
      xlink:href="#identifier"
      xlink:title="identifier">
      <rect x="31" y="47" width="76" height="32"/>
      <rect x="29" y="45" width="76" height="32" class="nonterminal"/>
      <text class="nonterminal" x="39" y="65">identifier</text>
   </a>
   <rect x="127" y="47" width="26" height="32" rx="10"/>
   <rect x="125"
         y="45"
         width="26"
         height="32"
         class="terminal"
         rx="10"/>
   <text class="terminal" x="135" y="65">(</text>
   <a xmlns:xlink="http://www.w3.org/1999/xlink"
      xlink:href="#_literal_value"
      xlink:title="_literal_value">
      <rect x="213" y="47" width="106" height="32"/>
      <rect x="211" y="45" width="106" height="32" class="nonterminal"/>
      <text class="nonterminal" x="221" y="65">_literal_value</text>
   </a>
   <a xmlns:xlink="http://www.w3.org/1999/xlink"
      xlink:href="#annotation_item"
      xlink:title="annotation_item">
      <rect x="213" y="91" width="124" height="32"/>
      <rect x="211" y="89" width="124" height="32" class="nonterminal"/>
      <text class="nonterminal" x="221" y="109">annotation_item</text>
   </a>
   <rect x="233" y="167" width="30" height="32" rx="10"/>
   <rect x="231"
         y="165"
         width="30"
         height="32"
         class="terminal"
         rx="10"/>
   <text class="terminal" x="241" y="185">::</text>
   <a xmlns:xlink="http://www.w3.org/1999/xlink"
      xlink:href="#module_access"
      xlink:title="module_access">
      <rect x="303" y="135" width="116" height="32"/>
      <rect x="301" y="133" width="116" height="32" class="nonterminal"/>
      <text class="nonterminal" x="311" y="153">module_access</text>
   </a>
   <rect x="193" y="3" width="24" height="32" rx="10"/>
   <rect x="191"
         y="1"
         width="24"
         height="32"
         class="terminal"
         rx="10"/>
   <text class="terminal" x="201" y="21">,</text>
   <rect x="499" y="79" width="24" height="32" rx="10"/>
   <rect x="497"
         y="77"
         width="24"
         height="32"
         class="terminal"
         rx="10"/>
   <text class="terminal" x="507" y="97">,</text>
   <rect x="563" y="47" width="26" height="32" rx="10"/>
   <rect x="561"
         y="45"
         width="26"
         height="32"
         class="terminal"
         rx="10"/>
   <text class="terminal" x="571" y="65">)</text>
   <path class="line"
         d="m17 61 h2 m0 0 h10 m76 0 h10 m0 0 h10 m26 0 h10 m40 0 h10 m106 0 h10 m0 0 h100 m-246 0 h20 m226 0 h20 m-266 0 q10 0 10 10 m246 0 q0 -10 10 -10 m-256 10 v24 m246 0 v-24 m-246 24 q0 10 10 10 m226 0 q10 0 10 -10 m-236 10 h10 m124 0 h10 m0 0 h82 m-236 -10 v20 m246 0 v-20 m-246 20 v24 m246 0 v-24 m-246 24 q0 10 10 10 m226 0 q10 0 10 -10 m-216 10 h10 m0 0 h40 m-70 0 h20 m50 0 h20 m-90 0 q10 0 10 10 m70 0 q0 -10 10 -10 m-80 10 v12 m70 0 v-12 m-70 12 q0 10 10 10 m50 0 q10 0 10 -10 m-60 10 h10 m30 0 h10 m20 -32 h10 m116 0 h10 m-266 -88 l20 0 m-1 0 q-9 0 -9 -10 l0 -24 q0 -10 10 -10 m266 44 l20 0 m-20 0 q10 0 10 -10 l0 -24 q0 -10 -10 -10 m-266 0 h10 m24 0 h10 m0 0 h222 m40 44 h10 m0 0 h34 m-64 0 h20 m44 0 h20 m-84 0 q10 0 10 10 m64 0 q0 -10 10 -10 m-74 10 v12 m64 0 v-12 m-64 12 q0 10 10 10 m44 0 q10 0 10 -10 m-54 10 h10 m24 0 h10 m20 -32 h10 m26 0 h10 m3 0 h-3"/>
   <polygon points="607 61 615 57 615 65"/>
   <polygon points="607 61 599 57 599 65"/>
</svg>
