<?xml version="1.0" encoding="UTF-8"?>
<svg xmlns="http://www.w3.org/2000/svg" width="491" height="145">
   <defs>
      <style type="text/css">
    @namespace "http://www.w3.org/2000/svg";
    .line                 {fill: none; stroke: #332900; stroke-width: 1;}
    .bold-line            {stroke: #141000; shape-rendering: crispEdges; stroke-width: 2;}
    .thin-line            {stroke: #1F1800; shape-rendering: crispEdges}
    .filled               {fill: #332900; stroke: none;}
    text.terminal         {font-family: Verdana, Sans-serif;
                            font-size: 12px;
                            fill: #141000;
                            font-weight: bold;
                          }
    text.nonterminal      {font-family: Verdana, Sans-serif;
                            font-size: 12px;
                            fill: #1A1400;
                            font-weight: normal;
                          }
    text.regexp           {font-family: Verdana, Sans-serif;
                            font-size: 12px;
                            fill: #1F1800;
                            font-weight: normal;
                          }
    rect, circle, polygon {fill: #332900; stroke: #332900;}
    rect.terminal         {fill: #FFDB4D; stroke: #332900; stroke-width: 1;}
    rect.nonterminal      {fill: #FFEC9E; stroke: #332900; stroke-width: 1;}
    rect.text             {fill: none; stroke: none;}
    polygon.regexp        {fill: #FFF4C7; stroke: #332900; stroke-width: 1;}
  </style>
   </defs>
   <polygon points="9 17 1 13 1 21"/>
   <polygon points="17 17 9 13 9 21"/>
   <a xmlns:xlink="http://www.w3.org/1999/xlink"
      xlink:href="#identifier"
      xlink:title="identifier">
      <rect x="31" y="3" width="76" height="32"/>
      <rect x="29" y="1" width="76" height="32" class="nonterminal"/>
      <text class="nonterminal" x="39" y="21">identifier</text>
   </a>
   <rect x="147" y="35" width="30" height="32" rx="10"/>
   <rect x="145"
         y="33"
         width="30"
         height="32"
         class="terminal"
         rx="10"/>
   <text class="terminal" x="155" y="53">=</text>
   <rect x="237" y="67" width="30" height="32" rx="10"/>
   <rect x="235"
         y="65"
         width="30"
         height="32"
         class="terminal"
         rx="10"/>
   <text class="terminal" x="245" y="85">::</text>
   <a xmlns:xlink="http://www.w3.org/1999/xlink"
      xlink:href="#module_access"
      xlink:title="module_access">
      <rect x="307" y="35" width="116" height="32"/>
      <rect x="305" y="33" width="116" height="32" class="nonterminal"/>
      <text class="nonterminal" x="315" y="53">module_access</text>
   </a>
   <a xmlns:xlink="http://www.w3.org/1999/xlink"
      xlink:href="#_literal_value"
      xlink:title="_literal_value">
      <rect x="217" y="111" width="106" height="32"/>
      <rect x="215" y="109" width="106" height="32" class="nonterminal"/>
      <text class="nonterminal" x="225" y="129">_literal_value</text>
   </a>
   <path class="line"
         d="m17 17 h2 m0 0 h10 m76 0 h10 m20 0 h10 m0 0 h306 m-336 0 h20 m316 0 h20 m-356 0 q10 0 10 10 m336 0 q0 -10 10 -10 m-346 10 v12 m336 0 v-12 m-336 12 q0 10 10 10 m316 0 q10 0 10 -10 m-326 10 h10 m30 0 h10 m40 0 h10 m0 0 h40 m-70 0 h20 m50 0 h20 m-90 0 q10 0 10 10 m70 0 q0 -10 10 -10 m-80 10 v12 m70 0 v-12 m-70 12 q0 10 10 10 m50 0 q10 0 10 -10 m-60 10 h10 m30 0 h10 m20 -32 h10 m116 0 h10 m-246 0 h20 m226 0 h20 m-266 0 q10 0 10 10 m246 0 q0 -10 10 -10 m-256 10 v56 m246 0 v-56 m-246 56 q0 10 10 10 m226 0 q10 0 10 -10 m-236 10 h10 m106 0 h10 m0 0 h100 m43 -108 h-3"/>
   <polygon points="481 17 489 13 489 21"/>
   <polygon points="481 17 473 13 473 21"/>
</svg>
