<?xml version="1.0" encoding="UTF-8"?>
<svg xmlns="http://www.w3.org/2000/svg" width="385" height="873">
   <defs>
      <style type="text/css">
    @namespace "http://www.w3.org/2000/svg";
    .line                 {fill: none; stroke: #332900; stroke-width: 1;}
    .bold-line            {stroke: #141000; shape-rendering: crispEdges; stroke-width: 2;}
    .thin-line            {stroke: #1F1800; shape-rendering: crispEdges}
    .filled               {fill: #332900; stroke: none;}
    text.terminal         {font-family: Verdana, Sans-serif;
                            font-size: 12px;
                            fill: #141000;
                            font-weight: bold;
                          }
    text.nonterminal      {font-family: Verdana, Sans-serif;
                            font-size: 12px;
                            fill: #1A1400;
                            font-weight: normal;
                          }
    text.regexp           {font-family: Verdana, Sans-serif;
                            font-size: 12px;
                            fill: #1F1800;
                            font-weight: normal;
                          }
    rect, circle, polygon {fill: #332900; stroke: #332900;}
    rect.terminal         {fill: #FFDB4D; stroke: #332900; stroke-width: 1;}
    rect.nonterminal      {fill: #FFEC9E; stroke: #332900; stroke-width: 1;}
    rect.text             {fill: none; stroke: none;}
    polygon.regexp        {fill: #FFF4C7; stroke: #332900; stroke-width: 1;}
  </style>
   </defs>
   <polygon points="9 17 1 13 1 21"/>
   <polygon points="17 17 9 13 9 21"/>
   <a xmlns:xlink="http://www.w3.org/1999/xlink"
      xlink:href="#_expression"
      xlink:title="_expression">
      <rect x="31" y="3" width="98" height="32"/>
      <rect x="29" y="1" width="98" height="32" class="nonterminal"/>
      <text class="nonterminal" x="39" y="21">_expression</text>
   </a>
   <rect x="169" y="3" width="50" height="32" rx="10"/>
   <rect x="167"
         y="1"
         width="50"
         height="32"
         class="terminal"
         rx="10"/>
   <text class="terminal" x="177" y="21">==&gt;</text>
   <rect x="169" y="47" width="32" height="32" rx="10"/>
   <rect x="167"
         y="45"
         width="32"
         height="32"
         class="terminal"
         rx="10"/>
   <text class="terminal" x="177" y="65">||</text>
   <rect x="169" y="91" width="40" height="32" rx="10"/>
   <rect x="167"
         y="89"
         width="40"
         height="32"
         class="terminal"
         rx="10"/>
   <text class="terminal" x="177" y="109">&amp;&amp;</text>
   <rect x="169" y="135" width="40" height="32" rx="10"/>
   <rect x="167"
         y="133"
         width="40"
         height="32"
         class="terminal"
         rx="10"/>
   <text class="terminal" x="177" y="153">==</text>
   <rect x="169" y="179" width="34" height="32" rx="10"/>
   <rect x="167"
         y="177"
         width="34"
         height="32"
         class="terminal"
         rx="10"/>
   <text class="terminal" x="177" y="197">!=</text>
   <rect x="169" y="223" width="30" height="32" rx="10"/>
   <rect x="167"
         y="221"
         width="30"
         height="32"
         class="terminal"
         rx="10"/>
   <text class="terminal" x="177" y="241">&lt;</text>
   <rect x="169" y="267" width="30" height="32" rx="10"/>
   <rect x="167"
         y="265"
         width="30"
         height="32"
         class="terminal"
         rx="10"/>
   <text class="terminal" x="177" y="285">&gt;</text>
   <rect x="169" y="311" width="40" height="32" rx="10"/>
   <rect x="167"
         y="309"
         width="40"
         height="32"
         class="terminal"
         rx="10"/>
   <text class="terminal" x="177" y="329">&lt;=</text>
   <rect x="169" y="355" width="40" height="32" rx="10"/>
   <rect x="167"
         y="353"
         width="40"
         height="32"
         class="terminal"
         rx="10"/>
   <text class="terminal" x="177" y="373">&gt;=</text>
   <rect x="169" y="399" width="28" height="32" rx="10"/>
   <rect x="167"
         y="397"
         width="28"
         height="32"
         class="terminal"
         rx="10"/>
   <text class="terminal" x="177" y="417">..</text>
   <rect x="169" y="443" width="26" height="32" rx="10"/>
   <rect x="167"
         y="441"
         width="26"
         height="32"
         class="terminal"
         rx="10"/>
   <text class="terminal" x="177" y="461">|</text>
   <rect x="169" y="487" width="30" height="32" rx="10"/>
   <rect x="167"
         y="485"
         width="30"
         height="32"
         class="terminal"
         rx="10"/>
   <text class="terminal" x="177" y="505">^</text>
   <rect x="169" y="531" width="30" height="32" rx="10"/>
   <rect x="167"
         y="529"
         width="30"
         height="32"
         class="terminal"
         rx="10"/>
   <text class="terminal" x="177" y="549">&amp;</text>
   <rect x="169" y="575" width="40" height="32" rx="10"/>
   <rect x="167"
         y="573"
         width="40"
         height="32"
         class="terminal"
         rx="10"/>
   <text class="terminal" x="177" y="593">&lt;&lt;</text>
   <rect x="169" y="619" width="40" height="32" rx="10"/>
   <rect x="167"
         y="617"
         width="40"
         height="32"
         class="terminal"
         rx="10"/>
   <text class="terminal" x="177" y="637">&gt;&gt;</text>
   <rect x="169" y="663" width="30" height="32" rx="10"/>
   <rect x="167"
         y="661"
         width="30"
         height="32"
         class="terminal"
         rx="10"/>
   <text class="terminal" x="177" y="681">+</text>
   <rect x="169" y="707" width="26" height="32" rx="10"/>
   <rect x="167"
         y="705"
         width="26"
         height="32"
         class="terminal"
         rx="10"/>
   <text class="terminal" x="177" y="725">-</text>
   <rect x="169" y="751" width="28" height="32" rx="10"/>
   <rect x="167"
         y="749"
         width="28"
         height="32"
         class="terminal"
         rx="10"/>
   <text class="terminal" x="177" y="769">*</text>
   <rect x="169" y="795" width="28" height="32" rx="10"/>
   <rect x="167"
         y="793"
         width="28"
         height="32"
         class="terminal"
         rx="10"/>
   <text class="terminal" x="177" y="813">/</text>
   <rect x="169" y="839" width="34" height="32" rx="10"/>
   <rect x="167"
         y="837"
         width="34"
         height="32"
         class="terminal"
         rx="10"/>
   <text class="terminal" x="177" y="857">%</text>
   <a xmlns:xlink="http://www.w3.org/1999/xlink"
      xlink:href="#_expression"
      xlink:title="_expression">
      <rect x="259" y="3" width="98" height="32"/>
      <rect x="257" y="1" width="98" height="32" class="nonterminal"/>
      <text class="nonterminal" x="267" y="21">_expression</text>
   </a>
   <path class="line"
         d="m17 17 h2 m0 0 h10 m98 0 h10 m20 0 h10 m50 0 h10 m-90 0 h20 m70 0 h20 m-110 0 q10 0 10 10 m90 0 q0 -10 10 -10 m-100 10 v24 m90 0 v-24 m-90 24 q0 10 10 10 m70 0 q10 0 10 -10 m-80 10 h10 m32 0 h10 m0 0 h18 m-80 -10 v20 m90 0 v-20 m-90 20 v24 m90 0 v-24 m-90 24 q0 10 10 10 m70 0 q10 0 10 -10 m-80 10 h10 m40 0 h10 m0 0 h10 m-80 -10 v20 m90 0 v-20 m-90 20 v24 m90 0 v-24 m-90 24 q0 10 10 10 m70 0 q10 0 10 -10 m-80 10 h10 m40 0 h10 m0 0 h10 m-80 -10 v20 m90 0 v-20 m-90 20 v24 m90 0 v-24 m-90 24 q0 10 10 10 m70 0 q10 0 10 -10 m-80 10 h10 m34 0 h10 m0 0 h16 m-80 -10 v20 m90 0 v-20 m-90 20 v24 m90 0 v-24 m-90 24 q0 10 10 10 m70 0 q10 0 10 -10 m-80 10 h10 m30 0 h10 m0 0 h20 m-80 -10 v20 m90 0 v-20 m-90 20 v24 m90 0 v-24 m-90 24 q0 10 10 10 m70 0 q10 0 10 -10 m-80 10 h10 m30 0 h10 m0 0 h20 m-80 -10 v20 m90 0 v-20 m-90 20 v24 m90 0 v-24 m-90 24 q0 10 10 10 m70 0 q10 0 10 -10 m-80 10 h10 m40 0 h10 m0 0 h10 m-80 -10 v20 m90 0 v-20 m-90 20 v24 m90 0 v-24 m-90 24 q0 10 10 10 m70 0 q10 0 10 -10 m-80 10 h10 m40 0 h10 m0 0 h10 m-80 -10 v20 m90 0 v-20 m-90 20 v24 m90 0 v-24 m-90 24 q0 10 10 10 m70 0 q10 0 10 -10 m-80 10 h10 m28 0 h10 m0 0 h22 m-80 -10 v20 m90 0 v-20 m-90 20 v24 m90 0 v-24 m-90 24 q0 10 10 10 m70 0 q10 0 10 -10 m-80 10 h10 m26 0 h10 m0 0 h24 m-80 -10 v20 m90 0 v-20 m-90 20 v24 m90 0 v-24 m-90 24 q0 10 10 10 m70 0 q10 0 10 -10 m-80 10 h10 m30 0 h10 m0 0 h20 m-80 -10 v20 m90 0 v-20 m-90 20 v24 m90 0 v-24 m-90 24 q0 10 10 10 m70 0 q10 0 10 -10 m-80 10 h10 m30 0 h10 m0 0 h20 m-80 -10 v20 m90 0 v-20 m-90 20 v24 m90 0 v-24 m-90 24 q0 10 10 10 m70 0 q10 0 10 -10 m-80 10 h10 m40 0 h10 m0 0 h10 m-80 -10 v20 m90 0 v-20 m-90 20 v24 m90 0 v-24 m-90 24 q0 10 10 10 m70 0 q10 0 10 -10 m-80 10 h10 m40 0 h10 m0 0 h10 m-80 -10 v20 m90 0 v-20 m-90 20 v24 m90 0 v-24 m-90 24 q0 10 10 10 m70 0 q10 0 10 -10 m-80 10 h10 m30 0 h10 m0 0 h20 m-80 -10 v20 m90 0 v-20 m-90 20 v24 m90 0 v-24 m-90 24 q0 10 10 10 m70 0 q10 0 10 -10 m-80 10 h10 m26 0 h10 m0 0 h24 m-80 -10 v20 m90 0 v-20 m-90 20 v24 m90 0 v-24 m-90 24 q0 10 10 10 m70 0 q10 0 10 -10 m-80 10 h10 m28 0 h10 m0 0 h22 m-80 -10 v20 m90 0 v-20 m-90 20 v24 m90 0 v-24 m-90 24 q0 10 10 10 m70 0 q10 0 10 -10 m-80 10 h10 m28 0 h10 m0 0 h22 m-80 -10 v20 m90 0 v-20 m-90 20 v24 m90 0 v-24 m-90 24 q0 10 10 10 m70 0 q10 0 10 -10 m-80 10 h10 m34 0 h10 m0 0 h16 m20 -836 h10 m98 0 h10 m3 0 h-3"/>
   <polygon points="375 17 383 13 383 21"/>
   <polygon points="375 17 367 13 367 21"/>
</svg>
