<?xml version="1.0" encoding="UTF-8"?>
<svg xmlns="http://www.w3.org/2000/svg" width="607" height="129">
   <defs>
      <style type="text/css">
    @namespace "http://www.w3.org/2000/svg";
    .line                 {fill: none; stroke: #332900; stroke-width: 1;}
    .bold-line            {stroke: #141000; shape-rendering: crispEdges; stroke-width: 2;}
    .thin-line            {stroke: #1F1800; shape-rendering: crispEdges}
    .filled               {fill: #332900; stroke: none;}
    text.terminal         {font-family: Verdana, Sans-serif;
                            font-size: 12px;
                            fill: #141000;
                            font-weight: bold;
                          }
    text.nonterminal      {font-family: Verdana, Sans-serif;
                            font-size: 12px;
                            fill: #1A1400;
                            font-weight: normal;
                          }
    text.regexp           {font-family: Verdana, Sans-serif;
                            font-size: 12px;
                            fill: #1F1800;
                            font-weight: normal;
                          }
    rect, circle, polygon {fill: #332900; stroke: #332900;}
    rect.terminal         {fill: #FFDB4D; stroke: #332900; stroke-width: 1;}
    rect.nonterminal      {fill: #FFEC9E; stroke: #332900; stroke-width: 1;}
    rect.text             {fill: none; stroke: none;}
    polygon.regexp        {fill: #FFF4C7; stroke: #332900; stroke-width: 1;}
  </style>
   </defs>
   <polygon points="9 33 1 29 1 37"/>
   <polygon points="17 33 9 29 9 37"/>
   <rect x="31" y="19" width="28" height="32" rx="10"/>
   <rect x="29"
         y="17"
         width="28"
         height="32"
         class="terminal"
         rx="10"/>
   <text class="terminal" x="39" y="37">{</text>
   <a xmlns:xlink="http://www.w3.org/1999/xlink"
      xlink:href="#bind_field"
      xlink:title="bind_field">
      <rect x="139" y="19" width="82" height="32"/>
      <rect x="137" y="17" width="82" height="32" class="nonterminal"/>
      <text class="nonterminal" x="147" y="37">bind_field</text>
   </a>
   <a xmlns:xlink="http://www.w3.org/1999/xlink"
      xlink:href="#mut_bind_field"
      xlink:title="mut_bind_field">
      <rect x="139" y="63" width="114" height="32"/>
      <rect x="137" y="61" width="114" height="32" class="nonterminal"/>
      <text class="nonterminal" x="147" y="81">mut_bind_field</text>
   </a>
   <rect x="293" y="19" width="24" height="32" rx="10"/>
   <rect x="291"
         y="17"
         width="24"
         height="32"
         class="terminal"
         rx="10"/>
   <text class="terminal" x="301" y="37">,</text>
   <a xmlns:xlink="http://www.w3.org/1999/xlink"
      xlink:href="#bind_field"
      xlink:title="bind_field">
      <rect x="397" y="51" width="82" height="32"/>
      <rect x="395" y="49" width="82" height="32" class="nonterminal"/>
      <text class="nonterminal" x="405" y="69">bind_field</text>
   </a>
   <a xmlns:xlink="http://www.w3.org/1999/xlink"
      xlink:href="#mut_bind_field"
      xlink:title="mut_bind_field">
      <rect x="397" y="95" width="114" height="32"/>
      <rect x="395" y="93" width="114" height="32" class="nonterminal"/>
      <text class="nonterminal" x="405" y="113">mut_bind_field</text>
   </a>
   <rect x="551" y="19" width="28" height="32" rx="10"/>
   <rect x="549"
         y="17"
         width="28"
         height="32"
         class="terminal"
         rx="10"/>
   <text class="terminal" x="559" y="37">}</text>
   <path class="line"
         d="m17 33 h2 m0 0 h10 m28 0 h10 m60 0 h10 m82 0 h10 m0 0 h32 m-154 0 h20 m134 0 h20 m-174 0 q10 0 10 10 m154 0 q0 -10 10 -10 m-164 10 v24 m154 0 v-24 m-154 24 q0 10 10 10 m134 0 q10 0 10 -10 m-144 10 h10 m114 0 h10 m20 -44 h10 m24 0 h10 m-238 0 l20 0 m-1 0 q-9 0 -9 -10 l0 -12 q0 -10 10 -10 m218 32 l20 0 m-20 0 q10 0 10 -10 l0 -12 q0 -10 -10 -10 m-218 0 h10 m0 0 h208 m-258 32 h20 m258 0 h20 m-298 0 q10 0 10 10 m278 0 q0 -10 10 -10 m-288 10 v58 m278 0 v-58 m-278 58 q0 10 10 10 m258 0 q10 0 10 -10 m-268 10 h10 m0 0 h248 m40 -78 h10 m0 0 h124 m-154 0 h20 m134 0 h20 m-174 0 q10 0 10 10 m154 0 q0 -10 10 -10 m-164 10 v12 m154 0 v-12 m-154 12 q0 10 10 10 m134 0 q10 0 10 -10 m-144 10 h10 m82 0 h10 m0 0 h32 m-144 -10 v20 m154 0 v-20 m-154 20 v24 m154 0 v-24 m-154 24 q0 10 10 10 m134 0 q10 0 10 -10 m-144 10 h10 m114 0 h10 m20 -76 h10 m28 0 h10 m3 0 h-3"/>
   <polygon points="597 33 605 29 605 37"/>
   <polygon points="597 33 589 29 589 37"/>
</svg>
