<?xml version="1.0" encoding="UTF-8"?>
<svg xmlns="http://www.w3.org/2000/svg" width="623" height="103">
   <defs>
      <style type="text/css">
    @namespace "http://www.w3.org/2000/svg";
    .line                 {fill: none; stroke: #332900; stroke-width: 1;}
    .bold-line            {stroke: #141000; shape-rendering: crispEdges; stroke-width: 2;}
    .thin-line            {stroke: #1F1800; shape-rendering: crispEdges}
    .filled               {fill: #332900; stroke: none;}
    text.terminal         {font-family: Verdana, Sans-serif;
                            font-size: 12px;
                            fill: #141000;
                            font-weight: bold;
                          }
    text.nonterminal      {font-family: Verdana, Sans-serif;
                            font-size: 12px;
                            fill: #1A1400;
                            font-weight: normal;
                          }
    text.regexp           {font-family: Verdana, Sans-serif;
                            font-size: 12px;
                            fill: #1F1800;
                            font-weight: normal;
                          }
    rect, circle, polygon {fill: #332900; stroke: #332900;}
    rect.terminal         {fill: #FFDB4D; stroke: #332900; stroke-width: 1;}
    rect.nonterminal      {fill: #FFEC9E; stroke: #332900; stroke-width: 1;}
    rect.text             {fill: none; stroke: none;}
    polygon.regexp        {fill: #FFF4C7; stroke: #332900; stroke-width: 1;}
  </style>
   </defs>
   <polygon points="9 51 1 47 1 55"/>
   <polygon points="17 51 9 47 9 55"/>
   <rect x="31" y="37" width="28" height="32" rx="10"/>
   <rect x="29"
         y="35"
         width="28"
         height="32"
         class="terminal"
         rx="10"/>
   <text class="terminal" x="39" y="55">{</text>
   <a xmlns:xlink="http://www.w3.org/1999/xlink"
      xlink:href="#use_declaration"
      xlink:title="use_declaration">
      <rect x="99" y="3" width="122" height="32"/>
      <rect x="97" y="1" width="122" height="32" class="nonterminal"/>
      <text class="nonterminal" x="107" y="21">use_declaration</text>
   </a>
   <a xmlns:xlink="http://www.w3.org/1999/xlink"
      xlink:href="#block_item"
      xlink:title="block_item">
      <rect x="281" y="3" width="88" height="32"/>
      <rect x="279" y="1" width="88" height="32" class="nonterminal"/>
      <text class="nonterminal" x="289" y="21">block_item</text>
   </a>
   <a xmlns:xlink="http://www.w3.org/1999/xlink"
      xlink:href="#_expression"
      xlink:title="_expression">
      <rect x="429" y="69" width="98" height="32"/>
      <rect x="427" y="67" width="98" height="32" class="nonterminal"/>
      <text class="nonterminal" x="437" y="87">_expression</text>
   </a>
   <rect x="567" y="37" width="28" height="32" rx="10"/>
   <rect x="565"
         y="35"
         width="28"
         height="32"
         class="terminal"
         rx="10"/>
   <text class="terminal" x="575" y="55">}</text>
   <path class="line"
         d="m17 51 h2 m0 0 h10 m28 0 h10 m20 0 h10 m0 0 h132 m-162 0 l20 0 m-1 0 q-9 0 -9 -10 l0 -14 q0 -10 10 -10 m142 34 l20 0 m-20 0 q10 0 10 -10 l0 -14 q0 -10 -10 -10 m-142 0 h10 m122 0 h10 m40 34 h10 m0 0 h98 m-128 0 l20 0 m-1 0 q-9 0 -9 -10 l0 -14 q0 -10 10 -10 m108 34 l20 0 m-20 0 q10 0 10 -10 l0 -14 q0 -10 -10 -10 m-108 0 h10 m88 0 h10 m40 34 h10 m0 0 h108 m-138 0 h20 m118 0 h20 m-158 0 q10 0 10 10 m138 0 q0 -10 10 -10 m-148 10 v12 m138 0 v-12 m-138 12 q0 10 10 10 m118 0 q10 0 10 -10 m-128 10 h10 m98 0 h10 m20 -32 h10 m28 0 h10 m3 0 h-3"/>
   <polygon points="613 51 621 47 621 55"/>
   <polygon points="613 51 605 47 605 55"/>
</svg>
