<?xml version="1.0" encoding="UTF-8"?>
<svg xmlns="http://www.w3.org/2000/svg" width="389" height="115">
   <defs>
      <style type="text/css">
    @namespace "http://www.w3.org/2000/svg";
    .line                 {fill: none; stroke: #332900; stroke-width: 1;}
    .bold-line            {stroke: #141000; shape-rendering: crispEdges; stroke-width: 2;}
    .thin-line            {stroke: #1F1800; shape-rendering: crispEdges}
    .filled               {fill: #332900; stroke: none;}
    text.terminal         {font-family: Verdana, Sans-serif;
                            font-size: 12px;
                            fill: #141000;
                            font-weight: bold;
                          }
    text.nonterminal      {font-family: Verdana, Sans-serif;
                            font-size: 12px;
                            fill: #1A1400;
                            font-weight: normal;
                          }
    text.regexp           {font-family: Verdana, Sans-serif;
                            font-size: 12px;
                            fill: #1F1800;
                            font-weight: normal;
                          }
    rect, circle, polygon {fill: #332900; stroke: #332900;}
    rect.terminal         {fill: #FFDB4D; stroke: #332900; stroke-width: 1;}
    rect.nonterminal      {fill: #FFEC9E; stroke: #332900; stroke-width: 1;}
    rect.text             {fill: none; stroke: none;}
    polygon.regexp        {fill: #FFF4C7; stroke: #332900; stroke-width: 1;}
  </style>
   </defs>
   <polygon points="9 95 1 91 1 99"/>
   <polygon points="17 95 9 91 9 99"/>
   <rect x="31" y="81" width="36" height="32" rx="10"/>
   <rect x="29"
         y="79"
         width="36"
         height="32"
         class="terminal"
         rx="10"/>
   <text class="terminal" x="39" y="99">/*</text>
   <polygon points="127 63 134 47 178 47 185 63 178 79 134 79"/>
   <polygon points="125 61 132 45 176 45 183 61 176 77 132 77" class="regexp"/>
   <text class="regexp" x="140" y="65">[^*]</text>
   <rect x="245" y="81" width="28" height="32" rx="10"/>
   <rect x="243"
         y="79"
         width="28"
         height="32"
         class="terminal"
         rx="10"/>
   <text class="terminal" x="253" y="99">*</text>
   <polygon points="107 19 114 3 164 3 171 19 164 35 114 35"/>
   <polygon points="105 17 112 1 162 1 169 17 162 33 112 33" class="regexp"/>
   <text class="regexp" x="120" y="21">[^/*]</text>
   <rect x="333" y="81" width="28" height="32" rx="10"/>
   <rect x="331"
         y="79"
         width="28"
         height="32"
         class="terminal"
         rx="10"/>
   <text class="terminal" x="341" y="99">/</text>
   <path class="line"
         d="m17 95 h2 m0 0 h10 m36 0 h10 m40 0 h10 m0 0 h68 m-98 0 l20 0 m-1 0 q-9 0 -9 -10 l0 -14 q0 -10 10 -10 m78 34 l20 0 m-20 0 q10 0 10 -10 l0 -14 q0 -10 -10 -10 m-78 0 h10 m58 0 h10 m40 34 h10 m28 0 h10 m-68 0 l20 0 m-1 0 q-9 0 -9 -10 l0 -12 q0 -10 10 -10 m48 32 l20 0 m-20 0 q10 0 10 -10 l0 -12 q0 -10 -10 -10 m-48 0 h10 m0 0 h38 m-206 32 l20 0 m-1 0 q-9 0 -9 -10 l0 -58 q0 -10 10 -10 m206 78 l20 0 m-20 0 q10 0 10 -10 l0 -58 q0 -10 -10 -10 m-206 0 h10 m64 0 h10 m0 0 h122 m20 78 h10 m28 0 h10 m3 0 h-3"/>
   <polygon points="379 95 387 91 387 99"/>
   <polygon points="379 95 371 91 371 99"/>
</svg>
