<?xml version="1.0" encoding="UTF-8"?>
<svg xmlns="http://www.w3.org/2000/svg" width="443" height="85">
   <defs>
      <style type="text/css">
    @namespace "http://www.w3.org/2000/svg";
    .line                 {fill: none; stroke: #332900; stroke-width: 1;}
    .bold-line            {stroke: #141000; shape-rendering: crispEdges; stroke-width: 2;}
    .thin-line            {stroke: #1F1800; shape-rendering: crispEdges}
    .filled               {fill: #332900; stroke: none;}
    text.terminal         {font-family: Verdana, Sans-serif;
                            font-size: 12px;
                            fill: #141000;
                            font-weight: bold;
                          }
    text.nonterminal      {font-family: Verdana, Sans-serif;
                            font-size: 12px;
                            fill: #1A1400;
                            font-weight: normal;
                          }
    text.regexp           {font-family: Verdana, Sans-serif;
                            font-size: 12px;
                            fill: #1F1800;
                            font-weight: normal;
                          }
    rect, circle, polygon {fill: #332900; stroke: #332900;}
    rect.terminal         {fill: #FFDB4D; stroke: #332900; stroke-width: 1;}
    rect.nonterminal      {fill: #FFEC9E; stroke: #332900; stroke-width: 1;}
    rect.text             {fill: none; stroke: none;}
    polygon.regexp        {fill: #FFF4C7; stroke: #332900; stroke-width: 1;}
  </style>
   </defs>
   <polygon points="9 33 1 29 1 37"/>
   <polygon points="17 33 9 29 9 37"/>
   <rect x="31" y="19" width="26" height="32" rx="10"/>
   <rect x="29"
         y="17"
         width="26"
         height="32"
         class="terminal"
         rx="10"/>
   <text class="terminal" x="39" y="37">(</text>
   <a xmlns:xlink="http://www.w3.org/1999/xlink"
      xlink:href="#_bind"
      xlink:title="_bind">
      <rect x="117" y="19" width="54" height="32"/>
      <rect x="115" y="17" width="54" height="32" class="nonterminal"/>
      <text class="nonterminal" x="125" y="37">_bind</text>
   </a>
   <rect x="191" y="19" width="24" height="32" rx="10"/>
   <rect x="189"
         y="17"
         width="24"
         height="32"
         class="terminal"
         rx="10"/>
   <text class="terminal" x="199" y="37">,</text>
   <a xmlns:xlink="http://www.w3.org/1999/xlink"
      xlink:href="#_bind"
      xlink:title="_bind">
      <rect x="295" y="51" width="54" height="32"/>
      <rect x="293" y="49" width="54" height="32" class="nonterminal"/>
      <text class="nonterminal" x="303" y="69">_bind</text>
   </a>
   <rect x="389" y="19" width="26" height="32" rx="10"/>
   <rect x="387"
         y="17"
         width="26"
         height="32"
         class="terminal"
         rx="10"/>
   <text class="terminal" x="397" y="37">)</text>
   <path class="line"
         d="m17 33 h2 m0 0 h10 m26 0 h10 m40 0 h10 m54 0 h10 m0 0 h10 m24 0 h10 m-138 0 l20 0 m-1 0 q-9 0 -9 -10 l0 -12 q0 -10 10 -10 m118 32 l20 0 m-20 0 q10 0 10 -10 l0 -12 q0 -10 -10 -10 m-118 0 h10 m0 0 h108 m-158 32 h20 m158 0 h20 m-198 0 q10 0 10 10 m178 0 q0 -10 10 -10 m-188 10 v14 m178 0 v-14 m-178 14 q0 10 10 10 m158 0 q10 0 10 -10 m-168 10 h10 m0 0 h148 m40 -34 h10 m0 0 h64 m-94 0 h20 m74 0 h20 m-114 0 q10 0 10 10 m94 0 q0 -10 10 -10 m-104 10 v12 m94 0 v-12 m-94 12 q0 10 10 10 m74 0 q10 0 10 -10 m-84 10 h10 m54 0 h10 m20 -32 h10 m26 0 h10 m3 0 h-3"/>
   <polygon points="433 33 441 29 441 37"/>
   <polygon points="433 33 425 29 425 37"/>
</svg>
