<?xml version="1.0" encoding="UTF-8"?>
<svg xmlns="http://www.w3.org/2000/svg" width="495" height="85">
   <defs>
      <style type="text/css">
    @namespace "http://www.w3.org/2000/svg";
    .line                 {fill: none; stroke: #332900; stroke-width: 1;}
    .bold-line            {stroke: #141000; shape-rendering: crispEdges; stroke-width: 2;}
    .thin-line            {stroke: #1F1800; shape-rendering: crispEdges}
    .filled               {fill: #332900; stroke: none;}
    text.terminal         {font-family: Verdana, Sans-serif;
                            font-size: 12px;
                            fill: #141000;
                            font-weight: bold;
                          }
    text.nonterminal      {font-family: Verdana, Sans-serif;
                            font-size: 12px;
                            fill: #1A1400;
                            font-weight: normal;
                          }
    text.regexp           {font-family: Verdana, Sans-serif;
                            font-size: 12px;
                            fill: #1F1800;
                            font-weight: normal;
                          }
    rect, circle, polygon {fill: #332900; stroke: #332900;}
    rect.terminal         {fill: #FFDB4D; stroke: #332900; stroke-width: 1;}
    rect.nonterminal      {fill: #FFEC9E; stroke: #332900; stroke-width: 1;}
    rect.text             {fill: none; stroke: none;}
    polygon.regexp        {fill: #FFF4C7; stroke: #332900; stroke-width: 1;}
  </style>
   </defs>
   <polygon points="9 33 1 29 1 37"/>
   <polygon points="17 33 9 29 9 37"/>
   <rect x="31" y="19" width="28" height="32" rx="10"/>
   <rect x="29"
         y="17"
         width="28"
         height="32"
         class="terminal"
         rx="10"/>
   <text class="terminal" x="39" y="37">{</text>
   <a xmlns:xlink="http://www.w3.org/1999/xlink"
      xlink:href="#exp_field"
      xlink:title="exp_field">
      <rect x="119" y="19" width="78" height="32"/>
      <rect x="117" y="17" width="78" height="32" class="nonterminal"/>
      <text class="nonterminal" x="127" y="37">exp_field</text>
   </a>
   <rect x="217" y="19" width="24" height="32" rx="10"/>
   <rect x="215"
         y="17"
         width="24"
         height="32"
         class="terminal"
         rx="10"/>
   <text class="terminal" x="225" y="37">,</text>
   <a xmlns:xlink="http://www.w3.org/1999/xlink"
      xlink:href="#exp_field"
      xlink:title="exp_field">
      <rect x="321" y="51" width="78" height="32"/>
      <rect x="319" y="49" width="78" height="32" class="nonterminal"/>
      <text class="nonterminal" x="329" y="69">exp_field</text>
   </a>
   <rect x="439" y="19" width="28" height="32" rx="10"/>
   <rect x="437"
         y="17"
         width="28"
         height="32"
         class="terminal"
         rx="10"/>
   <text class="terminal" x="447" y="37">}</text>
   <path class="line"
         d="m17 33 h2 m0 0 h10 m28 0 h10 m40 0 h10 m78 0 h10 m0 0 h10 m24 0 h10 m-162 0 l20 0 m-1 0 q-9 0 -9 -10 l0 -12 q0 -10 10 -10 m142 32 l20 0 m-20 0 q10 0 10 -10 l0 -12 q0 -10 -10 -10 m-142 0 h10 m0 0 h132 m-182 32 h20 m182 0 h20 m-222 0 q10 0 10 10 m202 0 q0 -10 10 -10 m-212 10 v14 m202 0 v-14 m-202 14 q0 10 10 10 m182 0 q10 0 10 -10 m-192 10 h10 m0 0 h172 m40 -34 h10 m0 0 h88 m-118 0 h20 m98 0 h20 m-138 0 q10 0 10 10 m118 0 q0 -10 10 -10 m-128 10 v12 m118 0 v-12 m-118 12 q0 10 10 10 m98 0 q10 0 10 -10 m-108 10 h10 m78 0 h10 m20 -32 h10 m28 0 h10 m3 0 h-3"/>
   <polygon points="485 33 493 29 493 37"/>
   <polygon points="485 33 477 29 477 37"/>
</svg>
