<?xml version="1.0" encoding="UTF-8"?>
<svg xmlns="http://www.w3.org/2000/svg" width="409" height="69">
   <defs>
      <style type="text/css">
    @namespace "http://www.w3.org/2000/svg";
    .line                 {fill: none; stroke: #332900; stroke-width: 1;}
    .bold-line            {stroke: #141000; shape-rendering: crispEdges; stroke-width: 2;}
    .thin-line            {stroke: #1F1800; shape-rendering: crispEdges}
    .filled               {fill: #332900; stroke: none;}
    text.terminal         {font-family: Verdana, Sans-serif;
                            font-size: 12px;
                            fill: #141000;
                            font-weight: bold;
                          }
    text.nonterminal      {font-family: Verdana, Sans-serif;
                            font-size: 12px;
                            fill: #1A1400;
                            font-weight: normal;
                          }
    text.regexp           {font-family: Verdana, Sans-serif;
                            font-size: 12px;
                            fill: #1F1800;
                            font-weight: normal;
                          }
    rect, circle, polygon {fill: #332900; stroke: #332900;}
    rect.terminal         {fill: #FFDB4D; stroke: #332900; stroke-width: 1;}
    rect.nonterminal      {fill: #FFEC9E; stroke: #332900; stroke-width: 1;}
    rect.text             {fill: none; stroke: none;}
    polygon.regexp        {fill: #FFF4C7; stroke: #332900; stroke-width: 1;}
  </style>
   </defs>
   <polygon points="9 17 1 13 1 21"/>
   <polygon points="17 17 9 13 9 21"/>
   <rect x="51" y="35" width="28" height="32" rx="10"/>
   <rect x="49"
         y="33"
         width="28"
         height="32"
         class="terminal"
         rx="10"/>
   <text class="terminal" x="59" y="53">$</text>
   <a xmlns:xlink="http://www.w3.org/1999/xlink"
      xlink:href="#_variable_identifier"
      xlink:title="_variable_identifier">
      <rect x="119" y="3" width="142" height="32"/>
      <rect x="117" y="1" width="142" height="32" class="nonterminal"/>
      <text class="nonterminal" x="127" y="21">_variable_identifier</text>
   </a>
   <rect x="281" y="3" width="24" height="32" rx="10"/>
   <rect x="279"
         y="1"
         width="24"
         height="32"
         class="terminal"
         rx="10"/>
   <text class="terminal" x="289" y="21">:</text>
   <a xmlns:xlink="http://www.w3.org/1999/xlink"
      xlink:href="#_type"
      xlink:title="_type">
      <rect x="325" y="3" width="56" height="32"/>
      <rect x="323" y="1" width="56" height="32" class="nonterminal"/>
      <text class="nonterminal" x="333" y="21">_type</text>
   </a>
   <path class="line"
         d="m17 17 h2 m20 0 h10 m0 0 h38 m-68 0 h20 m48 0 h20 m-88 0 q10 0 10 10 m68 0 q0 -10 10 -10 m-78 10 v12 m68 0 v-12 m-68 12 q0 10 10 10 m48 0 q10 0 10 -10 m-58 10 h10 m28 0 h10 m20 -32 h10 m142 0 h10 m0 0 h10 m24 0 h10 m0 0 h10 m56 0 h10 m3 0 h-3"/>
   <polygon points="399 17 407 13 407 21"/>
   <polygon points="399 17 391 13 391 21"/>
</svg>
