<?xml version="1.0" encoding="UTF-8"?>
<svg xmlns="http://www.w3.org/2000/svg" width="731" height="129">
   <defs>
      <style type="text/css">
    @namespace "http://www.w3.org/2000/svg";
    .line                 {fill: none; stroke: #332900; stroke-width: 1;}
    .bold-line            {stroke: #141000; shape-rendering: crispEdges; stroke-width: 2;}
    .thin-line            {stroke: #1F1800; shape-rendering: crispEdges}
    .filled               {fill: #332900; stroke: none;}
    text.terminal         {font-family: Verdana, Sans-serif;
                            font-size: 12px;
                            fill: #141000;
                            font-weight: bold;
                          }
    text.nonterminal      {font-family: Verdana, Sans-serif;
                            font-size: 12px;
                            fill: #1A1400;
                            font-weight: normal;
                          }
    text.regexp           {font-family: Verdana, Sans-serif;
                            font-size: 12px;
                            fill: #1F1800;
                            font-weight: normal;
                          }
    rect, circle, polygon {fill: #332900; stroke: #332900;}
    rect.terminal         {fill: #FFDB4D; stroke: #332900; stroke-width: 1;}
    rect.nonterminal      {fill: #FFEC9E; stroke: #332900; stroke-width: 1;}
    rect.text             {fill: none; stroke: none;}
    polygon.regexp        {fill: #FFF4C7; stroke: #332900; stroke-width: 1;}
  </style>
   </defs>
   <polygon points="9 33 1 29 1 37"/>
   <polygon points="17 33 9 29 9 37"/>
   <rect x="31" y="19" width="26" height="32" rx="10"/>
   <rect x="29"
         y="17"
         width="26"
         height="32"
         class="terminal"
         rx="10"/>
   <text class="terminal" x="39" y="37">(</text>
   <a xmlns:xlink="http://www.w3.org/1999/xlink"
      xlink:href="#mut_function_parameter"
      xlink:title="mut_function_parameter">
      <rect x="137" y="19" width="178" height="32"/>
      <rect x="135" y="17" width="178" height="32" class="nonterminal"/>
      <text class="nonterminal" x="145" y="37">mut_function_parameter</text>
   </a>
   <a xmlns:xlink="http://www.w3.org/1999/xlink"
      xlink:href="#function_parameter"
      xlink:title="function_parameter">
      <rect x="137" y="63" width="146" height="32"/>
      <rect x="135" y="61" width="146" height="32" class="nonterminal"/>
      <text class="nonterminal" x="145" y="81">function_parameter</text>
   </a>
   <rect x="355" y="19" width="24" height="32" rx="10"/>
   <rect x="353"
         y="17"
         width="24"
         height="32"
         class="terminal"
         rx="10"/>
   <text class="terminal" x="363" y="37">,</text>
   <a xmlns:xlink="http://www.w3.org/1999/xlink"
      xlink:href="#mut_function_parameter"
      xlink:title="mut_function_parameter">
      <rect x="459" y="51" width="178" height="32"/>
      <rect x="457" y="49" width="178" height="32" class="nonterminal"/>
      <text class="nonterminal" x="467" y="69">mut_function_parameter</text>
   </a>
   <a xmlns:xlink="http://www.w3.org/1999/xlink"
      xlink:href="#function_parameter"
      xlink:title="function_parameter">
      <rect x="459" y="95" width="146" height="32"/>
      <rect x="457" y="93" width="146" height="32" class="nonterminal"/>
      <text class="nonterminal" x="467" y="113">function_parameter</text>
   </a>
   <rect x="677" y="19" width="26" height="32" rx="10"/>
   <rect x="675"
         y="17"
         width="26"
         height="32"
         class="terminal"
         rx="10"/>
   <text class="terminal" x="685" y="37">)</text>
   <path class="line"
         d="m17 33 h2 m0 0 h10 m26 0 h10 m60 0 h10 m178 0 h10 m-218 0 h20 m198 0 h20 m-238 0 q10 0 10 10 m218 0 q0 -10 10 -10 m-228 10 v24 m218 0 v-24 m-218 24 q0 10 10 10 m198 0 q10 0 10 -10 m-208 10 h10 m146 0 h10 m0 0 h32 m20 -44 h10 m24 0 h10 m-302 0 l20 0 m-1 0 q-9 0 -9 -10 l0 -12 q0 -10 10 -10 m282 32 l20 0 m-20 0 q10 0 10 -10 l0 -12 q0 -10 -10 -10 m-282 0 h10 m0 0 h272 m-322 32 h20 m322 0 h20 m-362 0 q10 0 10 10 m342 0 q0 -10 10 -10 m-352 10 v58 m342 0 v-58 m-342 58 q0 10 10 10 m322 0 q10 0 10 -10 m-332 10 h10 m0 0 h312 m40 -78 h10 m0 0 h188 m-218 0 h20 m198 0 h20 m-238 0 q10 0 10 10 m218 0 q0 -10 10 -10 m-228 10 v12 m218 0 v-12 m-218 12 q0 10 10 10 m198 0 q10 0 10 -10 m-208 10 h10 m178 0 h10 m-208 -10 v20 m218 0 v-20 m-218 20 v24 m218 0 v-24 m-218 24 q0 10 10 10 m198 0 q10 0 10 -10 m-208 10 h10 m146 0 h10 m0 0 h32 m20 -76 h10 m26 0 h10 m3 0 h-3"/>
   <polygon points="721 33 729 29 729 37"/>
   <polygon points="721 33 713 29 713 37"/>
</svg>
