<?xml version="1.0" encoding="UTF-8"?>
<svg xmlns="http://www.w3.org/2000/svg" width="261" height="159">
   <defs>
      <style type="text/css">
    @namespace "http://www.w3.org/2000/svg";
    .line                 {fill: none; stroke: #332900; stroke-width: 1;}
    .bold-line            {stroke: #141000; shape-rendering: crispEdges; stroke-width: 2;}
    .thin-line            {stroke: #1F1800; shape-rendering: crispEdges}
    .filled               {fill: #332900; stroke: none;}
    text.terminal         {font-family: Verdana, Sans-serif;
                            font-size: 12px;
                            fill: #141000;
                            font-weight: bold;
                          }
    text.nonterminal      {font-family: Verdana, Sans-serif;
                            font-size: 12px;
                            fill: #1A1400;
                            font-weight: normal;
                          }
    text.regexp           {font-family: Verdana, Sans-serif;
                            font-size: 12px;
                            fill: #1F1800;
                            font-weight: normal;
                          }
    rect, circle, polygon {fill: #332900; stroke: #332900;}
    rect.terminal         {fill: #FFDB4D; stroke: #332900; stroke-width: 1;}
    rect.nonterminal      {fill: #FFEC9E; stroke: #332900; stroke-width: 1;}
    rect.text             {fill: none; stroke: none;}
    polygon.regexp        {fill: #FFF4C7; stroke: #332900; stroke-width: 1;}
  </style>
   </defs>
   <polygon points="9 139 1 135 1 143"/>
   <polygon points="17 139 9 135 9 143"/>
   <rect x="31" y="125" width="34" height="32" rx="10"/>
   <rect x="29"
         y="123"
         width="34"
         height="32"
         class="terminal"
         rx="10"/>
   <text class="terminal" x="39" y="143">x"</text>
   <polygon points="105 107 112 91 160 91 167 107 160 123 112 123"/>
   <polygon points="103 105 110 89 158 89 165 105 158 121 110 121" class="regexp"/>
   <text class="regexp" x="118" y="109">[0-9]</text>
   <polygon points="105 63 112 47 156 47 163 63 156 79 112 79"/>
   <polygon points="103 61 110 45 154 45 161 61 154 77 110 77" class="regexp"/>
   <text class="regexp" x="118" y="65">[a-f]</text>
   <polygon points="105 19 112 3 158 3 165 19 158 35 112 35"/>
   <polygon points="103 17 110 1 156 1 163 17 156 33 110 33" class="regexp"/>
   <text class="regexp" x="118" y="21">[A-F]</text>
   <rect x="207" y="125" width="26" height="32" rx="10"/>
   <rect x="205"
         y="123"
         width="26"
         height="32"
         class="terminal"
         rx="10"/>
   <text class="terminal" x="215" y="143">"</text>
   <path class="line"
         d="m17 139 h2 m0 0 h10 m34 0 h10 m20 0 h10 m0 0 h72 m-102 0 l20 0 m-1 0 q-9 0 -9 -10 l0 -14 q0 -10 10 -10 m82 34 l20 0 m-20 0 q10 0 10 -10 l0 -14 q0 -10 -10 -10 m-82 0 h10 m62 0 h10 m-92 10 l0 -44 q0 -10 10 -10 m92 54 l0 -44 q0 -10 -10 -10 m-82 0 h10 m58 0 h10 m0 0 h4 m-92 10 l0 -44 q0 -10 10 -10 m92 54 l0 -44 q0 -10 -10 -10 m-82 0 h10 m60 0 h10 m0 0 h2 m20 122 h10 m26 0 h10 m3 0 h-3"/>
   <polygon points="251 139 259 135 259 143"/>
   <polygon points="251 139 243 135 243 143"/>
</svg>
