<?xml version="1.0" encoding="UTF-8"?>
<svg xmlns="http://www.w3.org/2000/svg" width="459" height="291">
   <defs>
      <style type="text/css">
    @namespace "http://www.w3.org/2000/svg";
    .line                 {fill: none; stroke: #332900; stroke-width: 1;}
    .bold-line            {stroke: #141000; shape-rendering: crispEdges; stroke-width: 2;}
    .thin-line            {stroke: #1F1800; shape-rendering: crispEdges}
    .filled               {fill: #332900; stroke: none;}
    text.terminal         {font-family: Verdana, Sans-serif;
                            font-size: 12px;
                            fill: #141000;
                            font-weight: bold;
                          }
    text.nonterminal      {font-family: Verdana, Sans-serif;
                            font-size: 12px;
                            fill: #1A1400;
                            font-weight: normal;
                          }
    text.regexp           {font-family: Verdana, Sans-serif;
                            font-size: 12px;
                            fill: #1F1800;
                            font-weight: normal;
                          }
    rect, circle, polygon {fill: #332900; stroke: #332900;}
    rect.terminal         {fill: #FFDB4D; stroke: #332900; stroke-width: 1;}
    rect.nonterminal      {fill: #FFEC9E; stroke: #332900; stroke-width: 1;}
    rect.text             {fill: none; stroke: none;}
    polygon.regexp        {fill: #FFF4C7; stroke: #332900; stroke-width: 1;}
  </style>
   </defs>
   <polygon points="9 183 1 179 1 187"/>
   <polygon points="17 183 9 179 9 187"/>
   <rect x="51" y="201" width="28" height="32" rx="10"/>
   <rect x="49"
         y="199"
         width="28"
         height="32"
         class="terminal"
         rx="10"/>
   <text class="terminal" x="59" y="219">`</text>
   <polygon points="139 185 146 169 192 169 199 185 192 201 146 201"/>
   <polygon points="137 183 144 167 190 167 197 183 190 199 144 199" class="regexp"/>
   <text class="regexp" x="152" y="187">[a-z]</text>
   <polygon points="139 229 146 213 194 213 201 229 194 245 146 245"/>
   <polygon points="137 227 144 211 192 211 199 227 192 243 144 243" class="regexp"/>
   <text class="regexp" x="152" y="231">[A-Z]</text>
   <rect x="139" y="257" width="28" height="32" rx="10"/>
   <rect x="137"
         y="255"
         width="28"
         height="32"
         class="terminal"
         rx="10"/>
   <text class="terminal" x="147" y="275">_</text>
   <polygon points="261 151 268 135 316 135 323 151 316 167 268 167"/>
   <polygon points="259 149 266 133 314 133 321 149 314 165 266 165" class="regexp"/>
   <text class="regexp" x="274" y="153">[0-9]</text>
   <polygon points="261 107 268 91 314 91 321 107 314 123 268 123"/>
   <polygon points="259 105 266 89 312 89 319 105 312 121 266 121" class="regexp"/>
   <text class="regexp" x="274" y="109">[a-z]</text>
   <polygon points="261 63 268 47 316 47 323 63 316 79 268 79"/>
   <polygon points="259 61 266 45 314 45 321 61 314 77 266 77" class="regexp"/>
   <text class="regexp" x="274" y="65">[A-Z]</text>
   <rect x="261" y="3" width="28" height="32" rx="10"/>
   <rect x="259"
         y="1"
         width="28"
         height="32"
         class="terminal"
         rx="10"/>
   <text class="terminal" x="269" y="21">_</text>
   <rect x="383" y="201" width="28" height="32" rx="10"/>
   <rect x="381"
         y="199"
         width="28"
         height="32"
         class="terminal"
         rx="10"/>
   <text class="terminal" x="391" y="219">`</text>
   <path class="line"
         d="m17 183 h2 m20 0 h10 m0 0 h38 m-68 0 h20 m48 0 h20 m-88 0 q10 0 10 10 m68 0 q0 -10 10 -10 m-78 10 v12 m68 0 v-12 m-68 12 q0 10 10 10 m48 0 q10 0 10 -10 m-58 10 h10 m28 0 h10 m40 -32 h10 m60 0 h10 m0 0 h2 m-102 0 h20 m82 0 h20 m-122 0 q10 0 10 10 m102 0 q0 -10 10 -10 m-112 10 v24 m102 0 v-24 m-102 24 q0 10 10 10 m82 0 q10 0 10 -10 m-92 10 h10 m62 0 h10 m-92 -10 v20 m102 0 v-20 m-102 20 v24 m102 0 v-24 m-102 24 q0 10 10 10 m82 0 q10 0 10 -10 m-92 10 h10 m28 0 h10 m0 0 h34 m40 -88 h10 m0 0 h72 m-102 0 l20 0 m-1 0 q-9 0 -9 -10 l0 -14 q0 -10 10 -10 m82 34 l20 0 m-20 0 q10 0 10 -10 l0 -14 q0 -10 -10 -10 m-82 0 h10 m62 0 h10 m-92 10 l0 -44 q0 -10 10 -10 m92 54 l0 -44 q0 -10 -10 -10 m-82 0 h10 m60 0 h10 m0 0 h2 m-92 10 l0 -44 q0 -10 10 -10 m92 54 l0 -44 q0 -10 -10 -10 m-82 0 h10 m62 0 h10 m-92 10 l0 -44 q0 -10 10 -10 m92 54 l0 -44 q0 -10 -10 -10 m-82 0 h10 m28 0 h10 m0 0 h34 m40 166 h10 m0 0 h38 m-68 0 h20 m48 0 h20 m-88 0 q10 0 10 10 m68 0 q0 -10 10 -10 m-78 10 v12 m68 0 v-12 m-68 12 q0 10 10 10 m48 0 q10 0 10 -10 m-58 10 h10 m28 0 h10 m23 -32 h-3"/>
   <polygon points="449 183 457 179 457 187"/>
   <polygon points="449 183 441 179 441 187"/>
</svg>
