<?xml version="1.0" encoding="UTF-8"?>
<svg xmlns="http://www.w3.org/2000/svg" width="477" height="69">
   <defs>
      <style type="text/css">
    @namespace "http://www.w3.org/2000/svg";
    .line                 {fill: none; stroke: #332900; stroke-width: 1;}
    .bold-line            {stroke: #141000; shape-rendering: crispEdges; stroke-width: 2;}
    .thin-line            {stroke: #1F1800; shape-rendering: crispEdges}
    .filled               {fill: #332900; stroke: none;}
    text.terminal         {font-family: Verdana, Sans-serif;
                            font-size: 12px;
                            fill: #141000;
                            font-weight: bold;
                          }
    text.nonterminal      {font-family: Verdana, Sans-serif;
                            font-size: 12px;
                            fill: #1A1400;
                            font-weight: normal;
                          }
    text.regexp           {font-family: Verdana, Sans-serif;
                            font-size: 12px;
                            fill: #1F1800;
                            font-weight: normal;
                          }
    rect, circle, polygon {fill: #332900; stroke: #332900;}
    rect.terminal         {fill: #FFDB4D; stroke: #332900; stroke-width: 1;}
    rect.nonterminal      {fill: #FFEC9E; stroke: #332900; stroke-width: 1;}
    rect.text             {fill: none; stroke: none;}
    polygon.regexp        {fill: #FFF4C7; stroke: #332900; stroke-width: 1;}
  </style>
   </defs>
   <polygon points="9 17 1 13 1 21"/>
   <polygon points="17 17 9 13 9 21"/>
   <a xmlns:xlink="http://www.w3.org/1999/xlink"
      xlink:href="#lambda_bindings"
      xlink:title="lambda_bindings">
      <rect x="31" y="3" width="128" height="32"/>
      <rect x="29" y="1" width="128" height="32" class="nonterminal"/>
      <text class="nonterminal" x="39" y="21">lambda_bindings</text>
   </a>
   <rect x="199" y="35" width="36" height="32" rx="10"/>
   <rect x="197"
         y="33"
         width="36"
         height="32"
         class="terminal"
         rx="10"/>
   <text class="terminal" x="207" y="53">-&gt;</text>
   <a xmlns:xlink="http://www.w3.org/1999/xlink"
      xlink:href="#_type"
      xlink:title="_type">
      <rect x="255" y="35" width="56" height="32"/>
      <rect x="253" y="33" width="56" height="32" class="nonterminal"/>
      <text class="nonterminal" x="263" y="53">_type</text>
   </a>
   <a xmlns:xlink="http://www.w3.org/1999/xlink"
      xlink:href="#_expression"
      xlink:title="_expression">
      <rect x="351" y="3" width="98" height="32"/>
      <rect x="349" y="1" width="98" height="32" class="nonterminal"/>
      <text class="nonterminal" x="359" y="21">_expression</text>
   </a>
   <path class="line"
         d="m17 17 h2 m0 0 h10 m128 0 h10 m20 0 h10 m0 0 h122 m-152 0 h20 m132 0 h20 m-172 0 q10 0 10 10 m152 0 q0 -10 10 -10 m-162 10 v12 m152 0 v-12 m-152 12 q0 10 10 10 m132 0 q10 0 10 -10 m-142 10 h10 m36 0 h10 m0 0 h10 m56 0 h10 m20 -32 h10 m98 0 h10 m3 0 h-3"/>
   <polygon points="467 17 475 13 475 21"/>
   <polygon points="467 17 459 13 459 21"/>
</svg>
