<?xml version="1.0" encoding="UTF-8"?>
<svg xmlns="http://www.w3.org/2000/svg" width="479" height="69">
   <defs>
      <style type="text/css">
    @namespace "http://www.w3.org/2000/svg";
    .line                 {fill: none; stroke: #332900; stroke-width: 1;}
    .bold-line            {stroke: #141000; shape-rendering: crispEdges; stroke-width: 2;}
    .thin-line            {stroke: #1F1800; shape-rendering: crispEdges}
    .filled               {fill: #332900; stroke: none;}
    text.terminal         {font-family: Verdana, Sans-serif;
                            font-size: 12px;
                            fill: #141000;
                            font-weight: bold;
                          }
    text.nonterminal      {font-family: Verdana, Sans-serif;
                            font-size: 12px;
                            fill: #1A1400;
                            font-weight: normal;
                          }
    text.regexp           {font-family: Verdana, Sans-serif;
                            font-size: 12px;
                            fill: #1F1800;
                            font-weight: normal;
                          }
    rect, circle, polygon {fill: #332900; stroke: #332900;}
    rect.terminal         {fill: #FFDB4D; stroke: #332900; stroke-width: 1;}
    rect.nonterminal      {fill: #FFEC9E; stroke: #332900; stroke-width: 1;}
    rect.text             {fill: none; stroke: none;}
    polygon.regexp        {fill: #FFF4C7; stroke: #332900; stroke-width: 1;}
  </style>
   </defs>
   <polygon points="9 17 1 13 1 21"/>
   <polygon points="17 17 9 13 9 21"/>
   <a xmlns:xlink="http://www.w3.org/1999/xlink"
      xlink:href="#modifier"
      xlink:title="modifier">
      <rect x="51" y="35" width="72" height="32"/>
      <rect x="49" y="33" width="72" height="32" class="nonterminal"/>
      <text class="nonterminal" x="59" y="53">modifier</text>
   </a>
   <rect x="163" y="3" width="62" height="32" rx="10"/>
   <rect x="161"
         y="1"
         width="62"
         height="32"
         class="terminal"
         rx="10"/>
   <text class="terminal" x="171" y="21">macro</text>
   <a xmlns:xlink="http://www.w3.org/1999/xlink"
      xlink:href="#_macro_signature"
      xlink:title="_macro_signature">
      <rect x="245" y="3" width="134" height="32"/>
      <rect x="243" y="1" width="134" height="32" class="nonterminal"/>
      <text class="nonterminal" x="253" y="21">_macro_signature</text>
   </a>
   <a xmlns:xlink="http://www.w3.org/1999/xlink"
      xlink:href="#block"
      xlink:title="block">
      <rect x="399" y="3" width="52" height="32"/>
      <rect x="397" y="1" width="52" height="32" class="nonterminal"/>
      <text class="nonterminal" x="407" y="21">block</text>
   </a>
   <path class="line"
         d="m17 17 h2 m20 0 h10 m0 0 h82 m-112 0 h20 m92 0 h20 m-132 0 q10 0 10 10 m112 0 q0 -10 10 -10 m-122 10 v12 m112 0 v-12 m-112 12 q0 10 10 10 m92 0 q10 0 10 -10 m-102 10 h10 m72 0 h10 m20 -32 h10 m62 0 h10 m0 0 h10 m134 0 h10 m0 0 h10 m52 0 h10 m3 0 h-3"/>
   <polygon points="469 17 477 13 477 21"/>
   <polygon points="469 17 461 13 461 21"/>
</svg>
