<?xml version="1.0" encoding="UTF-8"?>
<svg xmlns="http://www.w3.org/2000/svg" width="495" height="69">
   <defs>
      <style type="text/css">
    @namespace "http://www.w3.org/2000/svg";
    .line                 {fill: none; stroke: #332900; stroke-width: 1;}
    .bold-line            {stroke: #141000; shape-rendering: crispEdges; stroke-width: 2;}
    .thin-line            {stroke: #1F1800; shape-rendering: crispEdges}
    .filled               {fill: #332900; stroke: none;}
    text.terminal         {font-family: Verdana, Sans-serif;
                            font-size: 12px;
                            fill: #141000;
                            font-weight: bold;
                          }
    text.nonterminal      {font-family: Verdana, Sans-serif;
                            font-size: 12px;
                            fill: #1A1400;
                            font-weight: normal;
                          }
    text.regexp           {font-family: Verdana, Sans-serif;
                            font-size: 12px;
                            fill: #1F1800;
                            font-weight: normal;
                          }
    rect, circle, polygon {fill: #332900; stroke: #332900;}
    rect.terminal         {fill: #FFDB4D; stroke: #332900; stroke-width: 1;}
    rect.nonterminal      {fill: #FFEC9E; stroke: #332900; stroke-width: 1;}
    rect.text             {fill: none; stroke: none;}
    polygon.regexp        {fill: #FFF4C7; stroke: #332900; stroke-width: 1;}
  </style>
   </defs>
   <polygon points="9 17 1 13 1 21"/>
   <polygon points="17 17 9 13 9 21"/>
   <a xmlns:xlink="http://www.w3.org/1999/xlink"
      xlink:href="#bind_list"
      xlink:title="bind_list">
      <rect x="31" y="3" width="74" height="32"/>
      <rect x="29" y="1" width="74" height="32" class="nonterminal"/>
      <text class="nonterminal" x="39" y="21">bind_list</text>
   </a>
   <a xmlns:xlink="http://www.w3.org/1999/xlink"
      xlink:href="#match_condition"
      xlink:title="match_condition">
      <rect x="145" y="35" width="124" height="32"/>
      <rect x="143" y="33" width="124" height="32" class="nonterminal"/>
      <text class="nonterminal" x="153" y="53">match_condition</text>
   </a>
   <rect x="309" y="3" width="40" height="32" rx="10"/>
   <rect x="307"
         y="1"
         width="40"
         height="32"
         class="terminal"
         rx="10"/>
   <text class="terminal" x="317" y="21">=&gt;</text>
   <a xmlns:xlink="http://www.w3.org/1999/xlink"
      xlink:href="#_expression"
      xlink:title="_expression">
      <rect x="369" y="3" width="98" height="32"/>
      <rect x="367" y="1" width="98" height="32" class="nonterminal"/>
      <text class="nonterminal" x="377" y="21">_expression</text>
   </a>
   <path class="line"
         d="m17 17 h2 m0 0 h10 m74 0 h10 m20 0 h10 m0 0 h134 m-164 0 h20 m144 0 h20 m-184 0 q10 0 10 10 m164 0 q0 -10 10 -10 m-174 10 v12 m164 0 v-12 m-164 12 q0 10 10 10 m144 0 q10 0 10 -10 m-154 10 h10 m124 0 h10 m20 -32 h10 m40 0 h10 m0 0 h10 m98 0 h10 m3 0 h-3"/>
   <polygon points="485 17 493 13 493 21"/>
   <polygon points="485 17 477 13 477 21"/>
</svg>
