<?xml version="1.0" encoding="UTF-8"?>
<svg xmlns="http://www.w3.org/2000/svg" width="427" height="201">
   <defs>
      <style type="text/css">
    @namespace "http://www.w3.org/2000/svg";
    .line                 {fill: none; stroke: #332900; stroke-width: 1;}
    .bold-line            {stroke: #141000; shape-rendering: crispEdges; stroke-width: 2;}
    .thin-line            {stroke: #1F1800; shape-rendering: crispEdges}
    .filled               {fill: #332900; stroke: none;}
    text.terminal         {font-family: Verdana, Sans-serif;
                            font-size: 12px;
                            fill: #141000;
                            font-weight: bold;
                          }
    text.nonterminal      {font-family: Verdana, Sans-serif;
                            font-size: 12px;
                            fill: #1A1400;
                            font-weight: normal;
                          }
    text.regexp           {font-family: Verdana, Sans-serif;
                            font-size: 12px;
                            fill: #1F1800;
                            font-weight: normal;
                          }
    rect, circle, polygon {fill: #332900; stroke: #332900;}
    rect.terminal         {fill: #FFDB4D; stroke: #332900; stroke-width: 1;}
    rect.nonterminal      {fill: #FFEC9E; stroke: #332900; stroke-width: 1;}
    rect.text             {fill: none; stroke: none;}
    polygon.regexp        {fill: #FFF4C7; stroke: #332900; stroke-width: 1;}
  </style>
   </defs>
   <polygon points="9 17 1 13 1 21"/>
   <polygon points="17 17 9 13 9 21"/>
   <rect x="51" y="3" width="60" height="32" rx="10"/>
   <rect x="49"
         y="1"
         width="60"
         height="32"
         class="terminal"
         rx="10"/>
   <text class="terminal" x="59" y="21">public</text>
   <rect x="151" y="35" width="26" height="32" rx="10"/>
   <rect x="149"
         y="33"
         width="26"
         height="32"
         class="terminal"
         rx="10"/>
   <text class="terminal" x="159" y="53">(</text>
   <rect x="217" y="35" width="76" height="32" rx="10"/>
   <rect x="215"
         y="33"
         width="76"
         height="32"
         class="terminal"
         rx="10"/>
   <text class="terminal" x="225" y="53">package</text>
   <rect x="217" y="79" width="60" height="32" rx="10"/>
   <rect x="215"
         y="77"
         width="60"
         height="32"
         class="terminal"
         rx="10"/>
   <text class="terminal" x="225" y="97">friend</text>
   <rect x="333" y="35" width="26" height="32" rx="10"/>
   <rect x="331"
         y="33"
         width="26"
         height="32"
         class="terminal"
         rx="10"/>
   <text class="terminal" x="341" y="53">)</text>
   <rect x="51" y="123" width="56" height="32" rx="10"/>
   <rect x="49"
         y="121"
         width="56"
         height="32"
         class="terminal"
         rx="10"/>
   <text class="terminal" x="59" y="141">entry</text>
   <rect x="51" y="167" width="62" height="32" rx="10"/>
   <rect x="49"
         y="165"
         width="62"
         height="32"
         class="terminal"
         rx="10"/>
   <text class="terminal" x="59" y="185">native</text>
   <path class="line"
         d="m17 17 h2 m20 0 h10 m60 0 h10 m20 0 h10 m0 0 h218 m-248 0 h20 m228 0 h20 m-268 0 q10 0 10 10 m248 0 q0 -10 10 -10 m-258 10 v12 m248 0 v-12 m-248 12 q0 10 10 10 m228 0 q10 0 10 -10 m-238 10 h10 m26 0 h10 m20 0 h10 m76 0 h10 m-116 0 h20 m96 0 h20 m-136 0 q10 0 10 10 m116 0 q0 -10 10 -10 m-126 10 v24 m116 0 v-24 m-116 24 q0 10 10 10 m96 0 q10 0 10 -10 m-106 10 h10 m60 0 h10 m0 0 h16 m20 -44 h10 m26 0 h10 m-348 -32 h20 m348 0 h20 m-388 0 q10 0 10 10 m368 0 q0 -10 10 -10 m-378 10 v100 m368 0 v-100 m-368 100 q0 10 10 10 m348 0 q10 0 10 -10 m-358 10 h10 m56 0 h10 m0 0 h272 m-358 -10 v20 m368 0 v-20 m-368 20 v24 m368 0 v-24 m-368 24 q0 10 10 10 m348 0 q10 0 10 -10 m-358 10 h10 m62 0 h10 m0 0 h266 m23 -164 h-3"/>
   <polygon points="417 17 425 13 425 21"/>
   <polygon points="417 17 409 13 409 21"/>
</svg>
