<?xml version="1.0" encoding="UTF-8"?>
<svg xmlns="http://www.w3.org/2000/svg" width="777" height="473">
   <defs>
      <style type="text/css">
    @namespace "http://www.w3.org/2000/svg";
    .line                 {fill: none; stroke: #332900; stroke-width: 1;}
    .bold-line            {stroke: #141000; shape-rendering: crispEdges; stroke-width: 2;}
    .thin-line            {stroke: #1F1800; shape-rendering: crispEdges}
    .filled               {fill: #332900; stroke: none;}
    text.terminal         {font-family: Verdana, Sans-serif;
                            font-size: 12px;
                            fill: #141000;
                            font-weight: bold;
                          }
    text.nonterminal      {font-family: Verdana, Sans-serif;
                            font-size: 12px;
                            fill: #1A1400;
                            font-weight: normal;
                          }
    text.regexp           {font-family: Verdana, Sans-serif;
                            font-size: 12px;
                            fill: #1F1800;
                            font-weight: normal;
                          }
    rect, circle, polygon {fill: #332900; stroke: #332900;}
    rect.terminal         {fill: #FFDB4D; stroke: #332900; stroke-width: 1;}
    rect.nonterminal      {fill: #FFEC9E; stroke: #332900; stroke-width: 1;}
    rect.text             {fill: none; stroke: none;}
    polygon.regexp        {fill: #FFF4C7; stroke: #332900; stroke-width: 1;}
  </style>
   </defs>
   <polygon points="9 17 1 13 1 21"/>
   <polygon points="17 17 9 13 9 21"/>
   <rect x="71" y="3" width="28" height="32" rx="10"/>
   <rect x="69"
         y="1"
         width="28"
         height="32"
         class="terminal"
         rx="10"/>
   <text class="terminal" x="79" y="21">$</text>
   <rect x="71" y="47" width="32" height="32" rx="10"/>
   <rect x="69"
         y="45"
         width="32"
         height="32"
         class="terminal"
         rx="10"/>
   <text class="terminal" x="79" y="65">@</text>
   <a xmlns:xlink="http://www.w3.org/1999/xlink"
      xlink:href="#_module_identifier"
      xlink:title="_module_identifier">
      <rect x="71" y="91" width="138" height="32"/>
      <rect x="69" y="89" width="138" height="32" class="nonterminal"/>
      <text class="nonterminal" x="79" y="109">_module_identifier</text>
   </a>
   <a xmlns:xlink="http://www.w3.org/1999/xlink"
      xlink:href="#type_arguments"
      xlink:title="type_arguments">
      <rect x="249" y="123" width="124" height="32"/>
      <rect x="247" y="121" width="124" height="32" class="nonterminal"/>
      <text class="nonterminal" x="257" y="141">type_arguments</text>
   </a>
   <rect x="413" y="91" width="30" height="32" rx="10"/>
   <rect x="411"
         y="89"
         width="30"
         height="32"
         class="terminal"
         rx="10"/>
   <text class="terminal" x="421" y="109">::</text>
   <a xmlns:xlink="http://www.w3.org/1999/xlink"
      xlink:href="#identifier"
      xlink:title="identifier">
      <rect x="483" y="3" width="76" height="32"/>
      <rect x="481" y="1" width="76" height="32" class="nonterminal"/>
      <text class="nonterminal" x="491" y="21">identifier</text>
   </a>
   <a xmlns:xlink="http://www.w3.org/1999/xlink"
      xlink:href="#_reserved_identifier"
      xlink:title="_reserved_identifier">
      <rect x="51" y="167" width="148" height="32"/>
      <rect x="49" y="165" width="148" height="32" class="nonterminal"/>
      <text class="nonterminal" x="59" y="185">_reserved_identifier</text>
   </a>
   <a xmlns:xlink="http://www.w3.org/1999/xlink"
      xlink:href="#identifier"
      xlink:title="identifier">
      <rect x="51" y="211" width="76" height="32"/>
      <rect x="49" y="209" width="76" height="32" class="nonterminal"/>
      <text class="nonterminal" x="59" y="229">identifier</text>
   </a>
   <a xmlns:xlink="http://www.w3.org/1999/xlink"
      xlink:href="#type_arguments"
      xlink:title="type_arguments">
      <rect x="167" y="243" width="124" height="32"/>
      <rect x="165" y="241" width="124" height="32" class="nonterminal"/>
      <text class="nonterminal" x="175" y="261">type_arguments</text>
   </a>
   <a xmlns:xlink="http://www.w3.org/1999/xlink"
      xlink:href="#module_identity"
      xlink:title="module_identity">
      <rect x="51" y="287" width="122" height="32"/>
      <rect x="49" y="285" width="122" height="32" class="nonterminal"/>
      <text class="nonterminal" x="59" y="305">module_identity</text>
   </a>
   <a xmlns:xlink="http://www.w3.org/1999/xlink"
      xlink:href="#type_arguments"
      xlink:title="type_arguments">
      <rect x="233" y="319" width="124" height="32"/>
      <rect x="231" y="317" width="124" height="32" class="nonterminal"/>
      <text class="nonterminal" x="241" y="337">type_arguments</text>
   </a>
   <rect x="417" y="319" width="30" height="32" rx="10"/>
   <rect x="415"
         y="317"
         width="30"
         height="32"
         class="terminal"
         rx="10"/>
   <text class="terminal" x="425" y="337">::</text>
   <a xmlns:xlink="http://www.w3.org/1999/xlink"
      xlink:href="#identifier"
      xlink:title="identifier">
      <rect x="467" y="319" width="76" height="32"/>
      <rect x="465" y="317" width="76" height="32" class="nonterminal"/>
      <text class="nonterminal" x="475" y="337">identifier</text>
   </a>
   <rect x="213" y="363" width="30" height="32" rx="10"/>
   <rect x="211"
         y="361"
         width="30"
         height="32"
         class="terminal"
         rx="10"/>
   <text class="terminal" x="221" y="381">::</text>
   <a xmlns:xlink="http://www.w3.org/1999/xlink"
      xlink:href="#identifier"
      xlink:title="identifier">
      <rect x="263" y="363" width="76" height="32"/>
      <rect x="261" y="361" width="76" height="32" class="nonterminal"/>
      <text class="nonterminal" x="271" y="381">identifier</text>
   </a>
   <a xmlns:xlink="http://www.w3.org/1999/xlink"
      xlink:href="#type_arguments"
      xlink:title="type_arguments">
      <rect x="379" y="363" width="124" height="32"/>
      <rect x="377" y="361" width="124" height="32" class="nonterminal"/>
      <text class="nonterminal" x="387" y="381">type_arguments</text>
   </a>
   <a xmlns:xlink="http://www.w3.org/1999/xlink"
      xlink:href="#type_arguments"
      xlink:title="type_arguments">
      <rect x="399" y="439" width="124" height="32"/>
      <rect x="397" y="437" width="124" height="32" class="nonterminal"/>
      <text class="nonterminal" x="407" y="457">type_arguments</text>
   </a>
   <rect x="563" y="407" width="30" height="32" rx="10"/>
   <rect x="561"
         y="405"
         width="30"
         height="32"
         class="terminal"
         rx="10"/>
   <text class="terminal" x="571" y="425">::</text>
   <a xmlns:xlink="http://www.w3.org/1999/xlink"
      xlink:href="#identifier"
      xlink:title="identifier">
      <rect x="613" y="407" width="76" height="32"/>
      <rect x="611" y="405" width="76" height="32" class="nonterminal"/>
      <text class="nonterminal" x="621" y="425">identifier</text>
   </a>
   <path class="line"
         d="m17 17 h2 m40 0 h10 m28 0 h10 m0 0 h344 m-412 0 h20 m392 0 h20 m-432 0 q10 0 10 10 m412 0 q0 -10 10 -10 m-422 10 v24 m412 0 v-24 m-412 24 q0 10 10 10 m392 0 q10 0 10 -10 m-402 10 h10 m32 0 h10 m0 0 h340 m-402 -10 v20 m412 0 v-20 m-412 20 v24 m412 0 v-24 m-412 24 q0 10 10 10 m392 0 q10 0 10 -10 m-402 10 h10 m138 0 h10 m20 0 h10 m0 0 h134 m-164 0 h20 m144 0 h20 m-184 0 q10 0 10 10 m164 0 q0 -10 10 -10 m-174 10 v12 m164 0 v-12 m-164 12 q0 10 10 10 m144 0 q10 0 10 -10 m-154 10 h10 m124 0 h10 m20 -32 h10 m30 0 h10 m20 -88 h10 m76 0 h10 m0 0 h170 m-718 0 h20 m698 0 h20 m-738 0 q10 0 10 10 m718 0 q0 -10 10 -10 m-728 10 v144 m718 0 v-144 m-718 144 q0 10 10 10 m698 0 q10 0 10 -10 m-708 10 h10 m148 0 h10 m0 0 h530 m-708 -10 v20 m718 0 v-20 m-718 20 v24 m718 0 v-24 m-718 24 q0 10 10 10 m698 0 q10 0 10 -10 m-708 10 h10 m76 0 h10 m20 0 h10 m0 0 h134 m-164 0 h20 m144 0 h20 m-184 0 q10 0 10 10 m164 0 q0 -10 10 -10 m-174 10 v12 m164 0 v-12 m-164 12 q0 10 10 10 m144 0 q10 0 10 -10 m-154 10 h10 m124 0 h10 m20 -32 h418 m-708 -10 v20 m718 0 v-20 m-718 20 v56 m718 0 v-56 m-718 56 q0 10 10 10 m698 0 q10 0 10 -10 m-708 10 h10 m122 0 h10 m40 0 h10 m0 0 h134 m-164 0 h20 m144 0 h20 m-184 0 q10 0 10 10 m164 0 q0 -10 10 -10 m-174 10 v12 m164 0 v-12 m-164 12 q0 10 10 10 m144 0 q10 0 10 -10 m-154 10 h10 m124 0 h10 m40 -32 h10 m0 0 h136 m-166 0 h20 m146 0 h20 m-186 0 q10 0 10 10 m166 0 q0 -10 10 -10 m-176 10 v12 m166 0 v-12 m-166 12 q0 10 10 10 m146 0 q10 0 10 -10 m-156 10 h10 m30 0 h10 m0 0 h10 m76 0 h10 m20 -32 h146 m-536 0 h20 m516 0 h20 m-556 0 q10 0 10 10 m536 0 q0 -10 10 -10 m-546 10 v56 m536 0 v-56 m-536 56 q0 10 10 10 m516 0 q10 0 10 -10 m-526 10 h10 m30 0 h10 m0 0 h10 m76 0 h10 m20 0 h10 m124 0 h10 m0 0 h186 m-350 0 h20 m330 0 h20 m-370 0 q10 0 10 10 m350 0 q0 -10 10 -10 m-360 10 v24 m350 0 v-24 m-350 24 q0 10 10 10 m330 0 q10 0 10 -10 m-320 10 h10 m0 0 h134 m-164 0 h20 m144 0 h20 m-184 0 q10 0 10 10 m164 0 q0 -10 10 -10 m-174 10 v12 m164 0 v-12 m-164 12 q0 10 10 10 m144 0 q10 0 10 -10 m-154 10 h10 m124 0 h10 m20 -32 h10 m30 0 h10 m0 0 h10 m76 0 h10 m63 -404 h-3"/>
   <polygon points="767 17 775 13 775 21"/>
   <polygon points="767 17 759 13 759 21"/>
</svg>
