<?xml version="1.0" encoding="UTF-8"?>
<svg xmlns="http://www.w3.org/2000/svg" width="411" height="379">
   <defs>
      <style type="text/css">
    @namespace "http://www.w3.org/2000/svg";
    .line                 {fill: none; stroke: #332900; stroke-width: 1;}
    .bold-line            {stroke: #141000; shape-rendering: crispEdges; stroke-width: 2;}
    .thin-line            {stroke: #1F1800; shape-rendering: crispEdges}
    .filled               {fill: #332900; stroke: none;}
    text.terminal         {font-family: Verdana, Sans-serif;
                            font-size: 12px;
                            fill: #141000;
                            font-weight: bold;
                          }
    text.nonterminal      {font-family: Verdana, Sans-serif;
                            font-size: 12px;
                            fill: #1A1400;
                            font-weight: normal;
                          }
    text.regexp           {font-family: Verdana, Sans-serif;
                            font-size: 12px;
                            fill: #1F1800;
                            font-weight: normal;
                          }
    rect, circle, polygon {fill: #332900; stroke: #332900;}
    rect.terminal         {fill: #FFDB4D; stroke: #332900; stroke-width: 1;}
    rect.nonterminal      {fill: #FFEC9E; stroke: #332900; stroke-width: 1;}
    rect.text             {fill: none; stroke: none;}
    polygon.regexp        {fill: #FFF4C7; stroke: #332900; stroke-width: 1;}
  </style>
   </defs>
   <polygon points="9 315 1 311 1 319"/>
   <polygon points="17 315 9 311 9 319"/>
   <rect x="51" y="301" width="24" height="32" rx="10"/>
   <rect x="49"
         y="299"
         width="24"
         height="32"
         class="terminal"
         rx="10"/>
   <text class="terminal" x="59" y="319">;</text>
   <rect x="51" y="345" width="28" height="32" rx="10"/>
   <rect x="49"
         y="343"
         width="28"
         height="32"
         class="terminal"
         rx="10"/>
   <text class="terminal" x="59" y="363">{</text>
   <a xmlns:xlink="http://www.w3.org/1999/xlink"
      xlink:href="#use_declaration"
      xlink:title="use_declaration">
      <rect x="139" y="267" width="122" height="32"/>
      <rect x="137" y="265" width="122" height="32" class="nonterminal"/>
      <text class="nonterminal" x="147" y="285">use_declaration</text>
   </a>
   <a xmlns:xlink="http://www.w3.org/1999/xlink"
      xlink:href="#friend_declaration"
      xlink:title="friend_declaration">
      <rect x="139" y="223" width="136" height="32"/>
      <rect x="137" y="221" width="136" height="32" class="nonterminal"/>
      <text class="nonterminal" x="147" y="241">friend_declaration</text>
   </a>
   <a xmlns:xlink="http://www.w3.org/1999/xlink"
      xlink:href="#constant"
      xlink:title="constant">
      <rect x="139" y="179" width="74" height="32"/>
      <rect x="137" y="177" width="74" height="32" class="nonterminal"/>
      <text class="nonterminal" x="147" y="197">constant</text>
   </a>
   <a xmlns:xlink="http://www.w3.org/1999/xlink"
      xlink:href="#_function_item"
      xlink:title="_function_item">
      <rect x="139" y="135" width="114" height="32"/>
      <rect x="137" y="133" width="114" height="32" class="nonterminal"/>
      <text class="nonterminal" x="147" y="153">_function_item</text>
   </a>
   <a xmlns:xlink="http://www.w3.org/1999/xlink"
      xlink:href="#_struct_item"
      xlink:title="_struct_item">
      <rect x="139" y="91" width="100" height="32"/>
      <rect x="137" y="89" width="100" height="32" class="nonterminal"/>
      <text class="nonterminal" x="147" y="109">_struct_item</text>
   </a>
   <a xmlns:xlink="http://www.w3.org/1999/xlink"
      xlink:href="#_enum_item"
      xlink:title="_enum_item">
      <rect x="139" y="47" width="100" height="32"/>
      <rect x="137" y="45" width="100" height="32" class="nonterminal"/>
      <text class="nonterminal" x="147" y="65">_enum_item</text>
   </a>
   <a xmlns:xlink="http://www.w3.org/1999/xlink"
      xlink:href="#spec_block"
      xlink:title="spec_block">
      <rect x="139" y="3" width="90" height="32"/>
      <rect x="137" y="1" width="90" height="32" class="nonterminal"/>
      <text class="nonterminal" x="147" y="21">spec_block</text>
   </a>
   <rect x="335" y="333" width="28" height="32" rx="10"/>
   <rect x="333"
         y="331"
         width="28"
         height="32"
         class="terminal"
         rx="10"/>
   <text class="terminal" x="343" y="351">}</text>
   <path class="line"
         d="m17 315 h2 m20 0 h10 m24 0 h10 m0 0 h4 m-68 0 h20 m48 0 h20 m-88 0 q10 0 10 10 m68 0 q0 -10 10 -10 m-78 10 v24 m68 0 v-24 m-68 24 q0 10 10 10 m48 0 q10 0 10 -10 m-58 10 h10 m28 0 h10 m40 -44 h10 m0 0 h146 m-176 0 l20 0 m-1 0 q-9 0 -9 -10 l0 -14 q0 -10 10 -10 m156 34 l20 0 m-20 0 q10 0 10 -10 l0 -14 q0 -10 -10 -10 m-156 0 h10 m122 0 h10 m0 0 h14 m-166 10 l0 -44 q0 -10 10 -10 m166 54 l0 -44 q0 -10 -10 -10 m-156 0 h10 m136 0 h10 m-166 10 l0 -44 q0 -10 10 -10 m166 54 l0 -44 q0 -10 -10 -10 m-156 0 h10 m74 0 h10 m0 0 h62 m-166 10 l0 -44 q0 -10 10 -10 m166 54 l0 -44 q0 -10 -10 -10 m-156 0 h10 m114 0 h10 m0 0 h22 m-166 10 l0 -44 q0 -10 10 -10 m166 54 l0 -44 q0 -10 -10 -10 m-156 0 h10 m100 0 h10 m0 0 h36 m-166 10 l0 -44 q0 -10 10 -10 m166 54 l0 -44 q0 -10 -10 -10 m-156 0 h10 m100 0 h10 m0 0 h36 m-166 10 l0 -44 q0 -10 10 -10 m166 54 l0 -44 q0 -10 -10 -10 m-156 0 h10 m90 0 h10 m0 0 h46 m40 298 h10 m0 0 h38 m-68 0 h20 m48 0 h20 m-88 0 q10 0 10 10 m68 0 q0 -10 10 -10 m-78 10 v12 m68 0 v-12 m-68 12 q0 10 10 10 m48 0 q10 0 10 -10 m-58 10 h10 m28 0 h10 m23 -32 h-3"/>
   <polygon points="401 315 409 311 409 319"/>
   <polygon points="401 315 393 311 393 319"/>
</svg>
