<?xml version="1.0" encoding="UTF-8"?>
<svg xmlns="http://www.w3.org/2000/svg" width="587" height="85">
   <defs>
      <style type="text/css">
    @namespace "http://www.w3.org/2000/svg";
    .line                 {fill: none; stroke: #332900; stroke-width: 1;}
    .bold-line            {stroke: #141000; shape-rendering: crispEdges; stroke-width: 2;}
    .thin-line            {stroke: #1F1800; shape-rendering: crispEdges}
    .filled               {fill: #332900; stroke: none;}
    text.terminal         {font-family: Verdana, Sans-serif;
                            font-size: 12px;
                            fill: #141000;
                            font-weight: bold;
                          }
    text.nonterminal      {font-family: Verdana, Sans-serif;
                            font-size: 12px;
                            fill: #1A1400;
                            font-weight: normal;
                          }
    text.regexp           {font-family: Verdana, Sans-serif;
                            font-size: 12px;
                            fill: #1F1800;
                            font-weight: normal;
                          }
    rect, circle, polygon {fill: #332900; stroke: #332900;}
    rect.terminal         {fill: #FFDB4D; stroke: #332900; stroke-width: 1;}
    rect.nonterminal      {fill: #FFEC9E; stroke: #332900; stroke-width: 1;}
    rect.text             {fill: none; stroke: none;}
    polygon.regexp        {fill: #FFF4C7; stroke: #332900; stroke-width: 1;}
  </style>
   </defs>
   <polygon points="9 33 1 29 1 37"/>
   <polygon points="17 33 9 29 9 37"/>
   <rect x="31" y="19" width="28" height="32" rx="10"/>
   <rect x="29"
         y="17"
         width="28"
         height="32"
         class="terminal"
         rx="10"/>
   <text class="terminal" x="39" y="37">{</text>
   <a xmlns:xlink="http://www.w3.org/1999/xlink"
      xlink:href="#field_annotation"
      xlink:title="field_annotation">
      <rect x="119" y="19" width="124" height="32"/>
      <rect x="117" y="17" width="124" height="32" class="nonterminal"/>
      <text class="nonterminal" x="127" y="37">field_annotation</text>
   </a>
   <rect x="263" y="19" width="24" height="32" rx="10"/>
   <rect x="261"
         y="17"
         width="24"
         height="32"
         class="terminal"
         rx="10"/>
   <text class="terminal" x="271" y="37">,</text>
   <a xmlns:xlink="http://www.w3.org/1999/xlink"
      xlink:href="#field_annotation"
      xlink:title="field_annotation">
      <rect x="367" y="51" width="124" height="32"/>
      <rect x="365" y="49" width="124" height="32" class="nonterminal"/>
      <text class="nonterminal" x="375" y="69">field_annotation</text>
   </a>
   <rect x="531" y="19" width="28" height="32" rx="10"/>
   <rect x="529"
         y="17"
         width="28"
         height="32"
         class="terminal"
         rx="10"/>
   <text class="terminal" x="539" y="37">}</text>
   <path class="line"
         d="m17 33 h2 m0 0 h10 m28 0 h10 m40 0 h10 m124 0 h10 m0 0 h10 m24 0 h10 m-208 0 l20 0 m-1 0 q-9 0 -9 -10 l0 -12 q0 -10 10 -10 m188 32 l20 0 m-20 0 q10 0 10 -10 l0 -12 q0 -10 -10 -10 m-188 0 h10 m0 0 h178 m-228 32 h20 m228 0 h20 m-268 0 q10 0 10 10 m248 0 q0 -10 10 -10 m-258 10 v14 m248 0 v-14 m-248 14 q0 10 10 10 m228 0 q10 0 10 -10 m-238 10 h10 m0 0 h218 m40 -34 h10 m0 0 h134 m-164 0 h20 m144 0 h20 m-184 0 q10 0 10 10 m164 0 q0 -10 10 -10 m-174 10 v12 m164 0 v-12 m-164 12 q0 10 10 10 m144 0 q10 0 10 -10 m-154 10 h10 m124 0 h10 m20 -32 h10 m28 0 h10 m3 0 h-3"/>
   <polygon points="577 33 585 29 585 37"/>
   <polygon points="577 33 569 29 569 37"/>
</svg>
