<?xml version="1.0" encoding="UTF-8"?>
<svg xmlns="http://www.w3.org/2000/svg" width="413" height="367">
   <defs>
      <style type="text/css">
    @namespace "http://www.w3.org/2000/svg";
    .line                 {fill: none; stroke: #332900; stroke-width: 1;}
    .bold-line            {stroke: #141000; shape-rendering: crispEdges; stroke-width: 2;}
    .thin-line            {stroke: #1F1800; shape-rendering: crispEdges}
    .filled               {fill: #332900; stroke: none;}
    text.terminal         {font-family: Verdana, Sans-serif;
                            font-size: 12px;
                            fill: #141000;
                            font-weight: bold;
                          }
    text.nonterminal      {font-family: Verdana, Sans-serif;
                            font-size: 12px;
                            fill: #1A1400;
                            font-weight: normal;
                          }
    text.regexp           {font-family: Verdana, Sans-serif;
                            font-size: 12px;
                            fill: #1F1800;
                            font-weight: normal;
                          }
    rect, circle, polygon {fill: #332900; stroke: #332900;}
    rect.terminal         {fill: #FFDB4D; stroke: #332900; stroke-width: 1;}
    rect.nonterminal      {fill: #FFEC9E; stroke: #332900; stroke-width: 1;}
    rect.text             {fill: none; stroke: none;}
    polygon.regexp        {fill: #FFF4C7; stroke: #332900; stroke-width: 1;}
  </style>
   </defs>
   <polygon points="9 95 1 91 1 99"/>
   <polygon points="17 95 9 91 9 99"/>
   <polygon points="51 97 58 81 106 81 113 97 106 113 58 113"/>
   <polygon points="49 95 56 79 104 79 111 95 104 111 56 111" class="regexp"/>
   <text class="regexp" x="64" y="99">[0-9]</text>
   <polygon points="153 63 160 47 208 47 215 63 208 79 160 79"/>
   <polygon points="151 61 158 45 206 45 213 61 206 77 158 77" class="regexp"/>
   <text class="regexp" x="166" y="65">[0-9]</text>
   <rect x="153" y="3" width="28" height="32" rx="10"/>
   <rect x="151"
         y="1"
         width="28"
         height="32"
         class="terminal"
         rx="10"/>
   <text class="terminal" x="161" y="21">_</text>
   <rect x="51" y="147" width="36" height="32" rx="10"/>
   <rect x="49"
         y="145"
         width="36"
         height="32"
         class="terminal"
         rx="10"/>
   <text class="terminal" x="59" y="165">0x</text>
   <polygon points="147 163 154 147 198 147 205 163 198 179 154 179"/>
   <polygon points="145 161 152 145 196 145 203 161 196 177 152 177" class="regexp"/>
   <text class="regexp" x="160" y="165">[a-f]</text>
   <polygon points="147 207 154 191 200 191 207 207 200 223 154 223"/>
   <polygon points="145 205 152 189 198 189 205 205 198 221 152 221" class="regexp"/>
   <text class="regexp" x="160" y="209">[A-F]</text>
   <polygon points="147 251 154 235 202 235 209 251 202 267 154 267"/>
   <polygon points="145 249 152 233 200 233 207 249 200 265 152 265" class="regexp"/>
   <text class="regexp" x="160" y="253">[0-9]</text>
   <rect x="147" y="279" width="28" height="32" rx="10"/>
   <rect x="145"
         y="277"
         width="28"
         height="32"
         class="terminal"
         rx="10"/>
   <text class="terminal" x="155" y="297">_</text>
   <rect x="309" y="113" width="38" height="32" rx="10"/>
   <rect x="307"
         y="111"
         width="38"
         height="32"
         class="terminal"
         rx="10"/>
   <text class="terminal" x="317" y="131">u8</text>
   <rect x="309" y="157" width="46" height="32" rx="10"/>
   <rect x="307"
         y="155"
         width="46"
         height="32"
         class="terminal"
         rx="10"/>
   <text class="terminal" x="317" y="175">u16</text>
   <rect x="309" y="201" width="46" height="32" rx="10"/>
   <rect x="307"
         y="199"
         width="46"
         height="32"
         class="terminal"
         rx="10"/>
   <text class="terminal" x="317" y="219">u32</text>
   <rect x="309" y="245" width="46" height="32" rx="10"/>
   <rect x="307"
         y="243"
         width="46"
         height="32"
         class="terminal"
         rx="10"/>
   <text class="terminal" x="317" y="263">u64</text>
   <rect x="309" y="289" width="56" height="32" rx="10"/>
   <rect x="307"
         y="287"
         width="56"
         height="32"
         class="terminal"
         rx="10"/>
   <text class="terminal" x="317" y="307">u128</text>
   <rect x="309" y="333" width="56" height="32" rx="10"/>
   <rect x="307"
         y="331"
         width="56"
         height="32"
         class="terminal"
         rx="10"/>
   <text class="terminal" x="317" y="351">u256</text>
   <path class="line"
         d="m17 95 h2 m20 0 h10 m62 0 h10 m20 0 h10 m0 0 h72 m-102 0 l20 0 m-1 0 q-9 0 -9 -10 l0 -14 q0 -10 10 -10 m82 34 l20 0 m-20 0 q10 0 10 -10 l0 -14 q0 -10 -10 -10 m-82 0 h10 m62 0 h10 m-92 10 l0 -44 q0 -10 10 -10 m92 54 l0 -44 q0 -10 -10 -10 m-82 0 h10 m28 0 h10 m0 0 h34 m20 78 h14 m-238 0 h20 m218 0 h20 m-258 0 q10 0 10 10 m238 0 q0 -10 10 -10 m-248 10 v46 m238 0 v-46 m-238 46 q0 10 10 10 m218 0 q10 0 10 -10 m-228 10 h10 m36 0 h10 m40 0 h10 m58 0 h10 m0 0 h4 m-102 0 h20 m82 0 h20 m-122 0 q10 0 10 10 m102 0 q0 -10 10 -10 m-112 10 v24 m102 0 v-24 m-102 24 q0 10 10 10 m82 0 q10 0 10 -10 m-92 10 h10 m60 0 h10 m0 0 h2 m-92 -10 v20 m102 0 v-20 m-102 20 v24 m102 0 v-24 m-102 24 q0 10 10 10 m82 0 q10 0 10 -10 m-92 10 h10 m62 0 h10 m-92 -10 v20 m102 0 v-20 m-102 20 v24 m102 0 v-24 m-102 24 q0 10 10 10 m82 0 q10 0 10 -10 m-92 10 h10 m28 0 h10 m0 0 h34 m-122 -132 l20 0 m-1 0 q-9 0 -9 -10 l0 -12 q0 -10 10 -10 m122 32 l20 0 m-20 0 q10 0 10 -10 l0 -12 q0 -10 -10 -10 m-122 0 h10 m0 0 h112 m60 -34 h10 m0 0 h66 m-96 0 h20 m76 0 h20 m-116 0 q10 0 10 10 m96 0 q0 -10 10 -10 m-106 10 v12 m96 0 v-12 m-96 12 q0 10 10 10 m76 0 q10 0 10 -10 m-86 10 h10 m38 0 h10 m0 0 h18 m-86 -10 v20 m96 0 v-20 m-96 20 v24 m96 0 v-24 m-96 24 q0 10 10 10 m76 0 q10 0 10 -10 m-86 10 h10 m46 0 h10 m0 0 h10 m-86 -10 v20 m96 0 v-20 m-96 20 v24 m96 0 v-24 m-96 24 q0 10 10 10 m76 0 q10 0 10 -10 m-86 10 h10 m46 0 h10 m0 0 h10 m-86 -10 v20 m96 0 v-20 m-96 20 v24 m96 0 v-24 m-96 24 q0 10 10 10 m76 0 q10 0 10 -10 m-86 10 h10 m46 0 h10 m0 0 h10 m-86 -10 v20 m96 0 v-20 m-96 20 v24 m96 0 v-24 m-96 24 q0 10 10 10 m76 0 q10 0 10 -10 m-86 10 h10 m56 0 h10 m-86 -10 v20 m96 0 v-20 m-96 20 v24 m96 0 v-24 m-96 24 q0 10 10 10 m76 0 q10 0 10 -10 m-86 10 h10 m56 0 h10 m23 -252 h-3"/>
   <polygon points="403 95 411 91 411 99"/>
   <polygon points="403 95 395 91 395 99"/>
</svg>
