<?xml version="1.0" encoding="UTF-8"?>
<svg xmlns="http://www.w3.org/2000/svg" width="467" height="85">
   <defs>
      <style type="text/css">
    @namespace "http://www.w3.org/2000/svg";
    .line                 {fill: none; stroke: #332900; stroke-width: 1;}
    .bold-line            {stroke: #141000; shape-rendering: crispEdges; stroke-width: 2;}
    .thin-line            {stroke: #1F1800; shape-rendering: crispEdges}
    .filled               {fill: #332900; stroke: none;}
    text.terminal         {font-family: Verdana, Sans-serif;
                            font-size: 12px;
                            fill: #141000;
                            font-weight: bold;
                          }
    text.nonterminal      {font-family: Verdana, Sans-serif;
                            font-size: 12px;
                            fill: #1A1400;
                            font-weight: normal;
                          }
    text.regexp           {font-family: Verdana, Sans-serif;
                            font-size: 12px;
                            fill: #1F1800;
                            font-weight: normal;
                          }
    rect, circle, polygon {fill: #332900; stroke: #332900;}
    rect.terminal         {fill: #FFDB4D; stroke: #332900; stroke-width: 1;}
    rect.nonterminal      {fill: #FFEC9E; stroke: #332900; stroke-width: 1;}
    rect.text             {fill: none; stroke: none;}
    polygon.regexp        {fill: #FFF4C7; stroke: #332900; stroke-width: 1;}
  </style>
   </defs>
   <polygon points="9 33 1 29 1 37"/>
   <polygon points="17 33 9 29 9 37"/>
   <rect x="31" y="19" width="44" height="32" rx="10"/>
   <rect x="29"
         y="17"
         width="44"
         height="32"
         class="terminal"
         rx="10"/>
   <text class="terminal" x="39" y="37">has</text>
   <a xmlns:xlink="http://www.w3.org/1999/xlink"
      xlink:href="#ability"
      xlink:title="ability">
      <rect x="135" y="19" width="58" height="32"/>
      <rect x="133" y="17" width="58" height="32" class="nonterminal"/>
      <text class="nonterminal" x="143" y="37">ability</text>
   </a>
   <rect x="213" y="19" width="24" height="32" rx="10"/>
   <rect x="211"
         y="17"
         width="24"
         height="32"
         class="terminal"
         rx="10"/>
   <text class="terminal" x="221" y="37">,</text>
   <a xmlns:xlink="http://www.w3.org/1999/xlink"
      xlink:href="#ability"
      xlink:title="ability">
      <rect x="317" y="51" width="58" height="32"/>
      <rect x="315" y="49" width="58" height="32" class="nonterminal"/>
      <text class="nonterminal" x="325" y="69">ability</text>
   </a>
   <rect x="415" y="19" width="24" height="32" rx="10"/>
   <rect x="413"
         y="17"
         width="24"
         height="32"
         class="terminal"
         rx="10"/>
   <text class="terminal" x="423" y="37">;</text>
   <path class="line"
         d="m17 33 h2 m0 0 h10 m44 0 h10 m40 0 h10 m58 0 h10 m0 0 h10 m24 0 h10 m-142 0 l20 0 m-1 0 q-9 0 -9 -10 l0 -12 q0 -10 10 -10 m122 32 l20 0 m-20 0 q10 0 10 -10 l0 -12 q0 -10 -10 -10 m-122 0 h10 m0 0 h112 m-162 32 h20 m162 0 h20 m-202 0 q10 0 10 10 m182 0 q0 -10 10 -10 m-192 10 v14 m182 0 v-14 m-182 14 q0 10 10 10 m162 0 q10 0 10 -10 m-172 10 h10 m0 0 h152 m40 -34 h10 m0 0 h68 m-98 0 h20 m78 0 h20 m-118 0 q10 0 10 10 m98 0 q0 -10 10 -10 m-108 10 v12 m98 0 v-12 m-98 12 q0 10 10 10 m78 0 q10 0 10 -10 m-88 10 h10 m58 0 h10 m20 -32 h10 m24 0 h10 m3 0 h-3"/>
   <polygon points="457 33 465 29 465 37"/>
   <polygon points="457 33 449 29 449 37"/>
</svg>
