<?xml version="1.0" encoding="UTF-8"?>
<svg xmlns="http://www.w3.org/2000/svg" width="723" height="81">
   <defs>
      <style type="text/css">
    @namespace "http://www.w3.org/2000/svg";
    .line                 {fill: none; stroke: #332900; stroke-width: 1;}
    .bold-line            {stroke: #141000; shape-rendering: crispEdges; stroke-width: 2;}
    .thin-line            {stroke: #1F1800; shape-rendering: crispEdges}
    .filled               {fill: #332900; stroke: none;}
    text.terminal         {font-family: Verdana, Sans-serif;
                            font-size: 12px;
                            fill: #141000;
                            font-weight: bold;
                          }
    text.nonterminal      {font-family: Verdana, Sans-serif;
                            font-size: 12px;
                            fill: #1A1400;
                            font-weight: normal;
                          }
    text.regexp           {font-family: Verdana, Sans-serif;
                            font-size: 12px;
                            fill: #1F1800;
                            font-weight: normal;
                          }
    rect, circle, polygon {fill: #332900; stroke: #332900;}
    rect.terminal         {fill: #FFDB4D; stroke: #332900; stroke-width: 1;}
    rect.nonterminal      {fill: #FFEC9E; stroke: #332900; stroke-width: 1;}
    rect.text             {fill: none; stroke: none;}
    polygon.regexp        {fill: #FFF4C7; stroke: #332900; stroke-width: 1;}
  </style>
   </defs>
   <polygon points="9 17 1 13 1 21"/>
   <polygon points="17 17 9 13 9 21"/>
   <rect x="51" y="3" width="56" height="32" rx="10"/>
   <rect x="49"
         y="1"
         width="56"
         height="32"
         class="terminal"
         rx="10"/>
   <text class="terminal" x="59" y="21">forall</text>
   <rect x="51" y="47" width="60" height="32" rx="10"/>
   <rect x="49"
         y="45"
         width="60"
         height="32"
         class="terminal"
         rx="10"/>
   <text class="terminal" x="59" y="65">exists</text>
   <a xmlns:xlink="http://www.w3.org/1999/xlink"
      xlink:href="#quantifier_bindings"
      xlink:title="quantifier_bindings">
      <rect x="151" y="3" width="142" height="32"/>
      <rect x="149" y="1" width="142" height="32" class="nonterminal"/>
      <text class="nonterminal" x="159" y="21">quantifier_bindings</text>
   </a>
   <rect x="333" y="35" width="62" height="32" rx="10"/>
   <rect x="331"
         y="33"
         width="62"
         height="32"
         class="terminal"
         rx="10"/>
   <text class="terminal" x="341" y="53">where</text>
   <a xmlns:xlink="http://www.w3.org/1999/xlink"
      xlink:href="#_expression"
      xlink:title="_expression">
      <rect x="415" y="35" width="98" height="32"/>
      <rect x="413" y="33" width="98" height="32" class="nonterminal"/>
      <text class="nonterminal" x="423" y="53">_expression</text>
   </a>
   <rect x="553" y="3" width="24" height="32" rx="10"/>
   <rect x="551"
         y="1"
         width="24"
         height="32"
         class="terminal"
         rx="10"/>
   <text class="terminal" x="561" y="21">:</text>
   <a xmlns:xlink="http://www.w3.org/1999/xlink"
      xlink:href="#_expression"
      xlink:title="_expression">
      <rect x="597" y="3" width="98" height="32"/>
      <rect x="595" y="1" width="98" height="32" class="nonterminal"/>
      <text class="nonterminal" x="605" y="21">_expression</text>
   </a>
   <path class="line"
         d="m17 17 h2 m20 0 h10 m56 0 h10 m0 0 h4 m-100 0 h20 m80 0 h20 m-120 0 q10 0 10 10 m100 0 q0 -10 10 -10 m-110 10 v24 m100 0 v-24 m-100 24 q0 10 10 10 m80 0 q10 0 10 -10 m-90 10 h10 m60 0 h10 m20 -44 h10 m142 0 h10 m20 0 h10 m0 0 h190 m-220 0 h20 m200 0 h20 m-240 0 q10 0 10 10 m220 0 q0 -10 10 -10 m-230 10 v12 m220 0 v-12 m-220 12 q0 10 10 10 m200 0 q10 0 10 -10 m-210 10 h10 m62 0 h10 m0 0 h10 m98 0 h10 m20 -32 h10 m24 0 h10 m0 0 h10 m98 0 h10 m3 0 h-3"/>
   <polygon points="713 17 721 13 721 21"/>
   <polygon points="713 17 705 13 705 21"/>
</svg>
