<?xml version="1.0" encoding="UTF-8"?>
<svg xmlns="http://www.w3.org/2000/svg" width="641" height="201">
   <defs>
      <style type="text/css">
    @namespace "http://www.w3.org/2000/svg";
    .line                 {fill: none; stroke: #332900; stroke-width: 1;}
    .bold-line            {stroke: #141000; shape-rendering: crispEdges; stroke-width: 2;}
    .thin-line            {stroke: #1F1800; shape-rendering: crispEdges}
    .filled               {fill: #332900; stroke: none;}
    text.terminal         {font-family: Verdana, Sans-serif;
                            font-size: 12px;
                            fill: #141000;
                            font-weight: bold;
                          }
    text.nonterminal      {font-family: Verdana, Sans-serif;
                            font-size: 12px;
                            fill: #1A1400;
                            font-weight: normal;
                          }
    text.regexp           {font-family: Verdana, Sans-serif;
                            font-size: 12px;
                            fill: #1F1800;
                            font-weight: normal;
                          }
    rect, circle, polygon {fill: #332900; stroke: #332900;}
    rect.terminal         {fill: #FFDB4D; stroke: #332900; stroke-width: 1;}
    rect.nonterminal      {fill: #FFEC9E; stroke: #332900; stroke-width: 1;}
    rect.text             {fill: none; stroke: none;}
    polygon.regexp        {fill: #FFF4C7; stroke: #332900; stroke-width: 1;}
  </style>
   </defs>
   <polygon points="9 17 1 13 1 21"/>
   <polygon points="17 17 9 13 9 21"/>
   <rect x="31" y="3" width="80" height="32" rx="10"/>
   <rect x="29"
         y="1"
         width="80"
         height="32"
         class="terminal"
         rx="10"/>
   <text class="terminal" x="39" y="21">invariant</text>
   <rect x="151" y="35" width="66" height="32" rx="10"/>
   <rect x="149"
         y="33"
         width="66"
         height="32"
         class="terminal"
         rx="10"/>
   <text class="terminal" x="159" y="53">update</text>
   <rect x="151" y="79" width="50" height="32" rx="10"/>
   <rect x="149"
         y="77"
         width="50"
         height="32"
         class="terminal"
         rx="10"/>
   <text class="terminal" x="159" y="97">pack</text>
   <rect x="151" y="123" width="68" height="32" rx="10"/>
   <rect x="149"
         y="121"
         width="68"
         height="32"
         class="terminal"
         rx="10"/>
   <text class="terminal" x="159" y="141">unpack</text>
   <rect x="151" y="167" width="70" height="32" rx="10"/>
   <rect x="149"
         y="165"
         width="70"
         height="32"
         class="terminal"
         rx="10"/>
   <text class="terminal" x="159" y="185">module</text>
   <a xmlns:xlink="http://www.w3.org/1999/xlink"
      xlink:href="#condition_properties"
      xlink:title="condition_properties">
      <rect x="281" y="35" width="150" height="32"/>
      <rect x="279" y="33" width="150" height="32" class="nonterminal"/>
      <text class="nonterminal" x="289" y="53">condition_properties</text>
   </a>
   <a xmlns:xlink="http://www.w3.org/1999/xlink"
      xlink:href="#_expression"
      xlink:title="_expression">
      <rect x="471" y="3" width="98" height="32"/>
      <rect x="469" y="1" width="98" height="32" class="nonterminal"/>
      <text class="nonterminal" x="479" y="21">_expression</text>
   </a>
   <rect x="589" y="3" width="24" height="32" rx="10"/>
   <rect x="587"
         y="1"
         width="24"
         height="32"
         class="terminal"
         rx="10"/>
   <text class="terminal" x="597" y="21">;</text>
   <path class="line"
         d="m17 17 h2 m0 0 h10 m80 0 h10 m20 0 h10 m0 0 h80 m-110 0 h20 m90 0 h20 m-130 0 q10 0 10 10 m110 0 q0 -10 10 -10 m-120 10 v12 m110 0 v-12 m-110 12 q0 10 10 10 m90 0 q10 0 10 -10 m-100 10 h10 m66 0 h10 m0 0 h4 m-100 -10 v20 m110 0 v-20 m-110 20 v24 m110 0 v-24 m-110 24 q0 10 10 10 m90 0 q10 0 10 -10 m-100 10 h10 m50 0 h10 m0 0 h20 m-100 -10 v20 m110 0 v-20 m-110 20 v24 m110 0 v-24 m-110 24 q0 10 10 10 m90 0 q10 0 10 -10 m-100 10 h10 m68 0 h10 m0 0 h2 m-100 -10 v20 m110 0 v-20 m-110 20 v24 m110 0 v-24 m-110 24 q0 10 10 10 m90 0 q10 0 10 -10 m-100 10 h10 m70 0 h10 m40 -164 h10 m0 0 h160 m-190 0 h20 m170 0 h20 m-210 0 q10 0 10 10 m190 0 q0 -10 10 -10 m-200 10 v12 m190 0 v-12 m-190 12 q0 10 10 10 m170 0 q10 0 10 -10 m-180 10 h10 m150 0 h10 m20 -32 h10 m98 0 h10 m0 0 h10 m24 0 h10 m3 0 h-3"/>
   <polygon points="631 17 639 13 639 21"/>
   <polygon points="631 17 623 13 623 21"/>
</svg>
