<?xml version="1.0" encoding="UTF-8"?>
<svg xmlns="http://www.w3.org/2000/svg" width="513" height="69">
   <defs>
      <style type="text/css">
    @namespace "http://www.w3.org/2000/svg";
    .line                 {fill: none; stroke: #332900; stroke-width: 1;}
    .bold-line            {stroke: #141000; shape-rendering: crispEdges; stroke-width: 2;}
    .thin-line            {stroke: #1F1800; shape-rendering: crispEdges}
    .filled               {fill: #332900; stroke: none;}
    text.terminal         {font-family: Verdana, Sans-serif;
                            font-size: 12px;
                            fill: #141000;
                            font-weight: bold;
                          }
    text.nonterminal      {font-family: Verdana, Sans-serif;
                            font-size: 12px;
                            fill: #1A1400;
                            font-weight: normal;
                          }
    text.regexp           {font-family: Verdana, Sans-serif;
                            font-size: 12px;
                            fill: #1F1800;
                            font-weight: normal;
                          }
    rect, circle, polygon {fill: #332900; stroke: #332900;}
    rect.terminal         {fill: #FFDB4D; stroke: #332900; stroke-width: 1;}
    rect.nonterminal      {fill: #FFEC9E; stroke: #332900; stroke-width: 1;}
    rect.text             {fill: none; stroke: none;}
    polygon.regexp        {fill: #FFF4C7; stroke: #332900; stroke-width: 1;}
  </style>
   </defs>
   <polygon points="9 17 1 13 1 21"/>
   <polygon points="17 17 9 13 9 21"/>
   <rect x="31" y="3" width="38" height="32" rx="10"/>
   <rect x="29"
         y="1"
         width="38"
         height="32"
         class="terminal"
         rx="10"/>
   <text class="terminal" x="39" y="21">let</text>
   <rect x="109" y="35" width="48" height="32" rx="10"/>
   <rect x="107"
         y="33"
         width="48"
         height="32"
         class="terminal"
         rx="10"/>
   <text class="terminal" x="117" y="53">post</text>
   <a xmlns:xlink="http://www.w3.org/1999/xlink"
      xlink:href="#identifier"
      xlink:title="identifier">
      <rect x="197" y="3" width="76" height="32"/>
      <rect x="195" y="1" width="76" height="32" class="nonterminal"/>
      <text class="nonterminal" x="205" y="21">identifier</text>
   </a>
   <rect x="293" y="3" width="30" height="32" rx="10"/>
   <rect x="291"
         y="1"
         width="30"
         height="32"
         class="terminal"
         rx="10"/>
   <text class="terminal" x="301" y="21">=</text>
   <a xmlns:xlink="http://www.w3.org/1999/xlink"
      xlink:href="#_expression"
      xlink:title="_expression">
      <rect x="343" y="3" width="98" height="32"/>
      <rect x="341" y="1" width="98" height="32" class="nonterminal"/>
      <text class="nonterminal" x="351" y="21">_expression</text>
   </a>
   <rect x="461" y="3" width="24" height="32" rx="10"/>
   <rect x="459"
         y="1"
         width="24"
         height="32"
         class="terminal"
         rx="10"/>
   <text class="terminal" x="469" y="21">;</text>
   <path class="line"
         d="m17 17 h2 m0 0 h10 m38 0 h10 m20 0 h10 m0 0 h58 m-88 0 h20 m68 0 h20 m-108 0 q10 0 10 10 m88 0 q0 -10 10 -10 m-98 10 v12 m88 0 v-12 m-88 12 q0 10 10 10 m68 0 q10 0 10 -10 m-78 10 h10 m48 0 h10 m20 -32 h10 m76 0 h10 m0 0 h10 m30 0 h10 m0 0 h10 m98 0 h10 m0 0 h10 m24 0 h10 m3 0 h-3"/>
   <polygon points="503 17 511 13 511 21"/>
   <polygon points="503 17 495 13 495 21"/>
</svg>
