<?xml version="1.0" encoding="UTF-8"?>
<svg xmlns="http://www.w3.org/2000/svg" width="201" height="229">
   <defs>
      <style type="text/css">
    @namespace "http://www.w3.org/2000/svg";
    .line                 {fill: none; stroke: #332900; stroke-width: 1;}
    .bold-line            {stroke: #141000; shape-rendering: crispEdges; stroke-width: 2;}
    .thin-line            {stroke: #1F1800; shape-rendering: crispEdges}
    .filled               {fill: #332900; stroke: none;}
    text.terminal         {font-family: Verdana, Sans-serif;
                            font-size: 12px;
                            fill: #141000;
                            font-weight: bold;
                          }
    text.nonterminal      {font-family: Verdana, Sans-serif;
                            font-size: 12px;
                            fill: #1A1400;
                            font-weight: normal;
                          }
    text.regexp           {font-family: Verdana, Sans-serif;
                            font-size: 12px;
                            fill: #1F1800;
                            font-weight: normal;
                          }
    rect, circle, polygon {fill: #332900; stroke: #332900;}
    rect.terminal         {fill: #FFDB4D; stroke: #332900; stroke-width: 1;}
    rect.nonterminal      {fill: #FFEC9E; stroke: #332900; stroke-width: 1;}
    rect.text             {fill: none; stroke: none;}
    polygon.regexp        {fill: #FFF4C7; stroke: #332900; stroke-width: 1;}
  </style>
   </defs>
   <polygon points="9 33 1 29 1 37"/>
   <polygon points="17 33 9 29 9 37"/>
   <polygon points="71 35 78 19 126 19 133 35 126 51 78 51"/>
   <polygon points="69 33 76 17 124 17 131 33 124 49 76 49" class="regexp"/>
   <text class="regexp" x="84" y="37">[0-9]</text>
   <polygon points="71 79 78 63 124 63 131 79 124 95 78 95"/>
   <polygon points="69 77 76 61 122 61 129 77 122 93 76 93" class="regexp"/>
   <text class="regexp" x="84" y="81">[a-z]</text>
   <polygon points="71 123 78 107 126 107 133 123 126 139 78 139"/>
   <polygon points="69 121 76 105 124 105 131 121 124 137 76 137" class="regexp"/>
   <text class="regexp" x="84" y="125">[A-Z]</text>
   <rect x="71" y="151" width="28" height="32" rx="10"/>
   <rect x="69"
         y="149"
         width="28"
         height="32"
         class="terminal"
         rx="10"/>
   <text class="terminal" x="79" y="169">_</text>
   <rect x="71" y="195" width="28" height="32" rx="10"/>
   <rect x="69"
         y="193"
         width="28"
         height="32"
         class="terminal"
         rx="10"/>
   <text class="terminal" x="79" y="213">*</text>
   <path class="line"
         d="m17 33 h2 m40 0 h10 m62 0 h10 m-102 0 h20 m82 0 h20 m-122 0 q10 0 10 10 m102 0 q0 -10 10 -10 m-112 10 v24 m102 0 v-24 m-102 24 q0 10 10 10 m82 0 q10 0 10 -10 m-92 10 h10 m60 0 h10 m0 0 h2 m-92 -10 v20 m102 0 v-20 m-102 20 v24 m102 0 v-24 m-102 24 q0 10 10 10 m82 0 q10 0 10 -10 m-92 10 h10 m62 0 h10 m-92 -10 v20 m102 0 v-20 m-102 20 v24 m102 0 v-24 m-102 24 q0 10 10 10 m82 0 q10 0 10 -10 m-92 10 h10 m28 0 h10 m0 0 h34 m-92 -10 v20 m102 0 v-20 m-102 20 v24 m102 0 v-24 m-102 24 q0 10 10 10 m82 0 q10 0 10 -10 m-92 10 h10 m28 0 h10 m0 0 h34 m-122 -176 l20 0 m-1 0 q-9 0 -9 -10 l0 -12 q0 -10 10 -10 m122 32 l20 0 m-20 0 q10 0 10 -10 l0 -12 q0 -10 -10 -10 m-122 0 h10 m0 0 h112 m23 32 h-3"/>
   <polygon points="191 33 199 29 199 37"/>
   <polygon points="191 33 183 29 183 37"/>
</svg>
