<?xml version="1.0" encoding="UTF-8"?>
<svg xmlns="http://www.w3.org/2000/svg" width="491" height="169">
   <defs>
      <style type="text/css">
    @namespace "http://www.w3.org/2000/svg";
    .line                 {fill: none; stroke: #332900; stroke-width: 1;}
    .bold-line            {stroke: #141000; shape-rendering: crispEdges; stroke-width: 2;}
    .thin-line            {stroke: #1F1800; shape-rendering: crispEdges}
    .filled               {fill: #332900; stroke: none;}
    text.terminal         {font-family: Verdana, Sans-serif;
                            font-size: 12px;
                            fill: #141000;
                            font-weight: bold;
                          }
    text.nonterminal      {font-family: Verdana, Sans-serif;
                            font-size: 12px;
                            fill: #1A1400;
                            font-weight: normal;
                          }
    text.regexp           {font-family: Verdana, Sans-serif;
                            font-size: 12px;
                            fill: #1F1800;
                            font-weight: normal;
                          }
    rect, circle, polygon {fill: #332900; stroke: #332900;}
    rect.terminal         {fill: #FFDB4D; stroke: #332900; stroke-width: 1;}
    rect.nonterminal      {fill: #FFEC9E; stroke: #332900; stroke-width: 1;}
    rect.text             {fill: none; stroke: none;}
    polygon.regexp        {fill: #FFF4C7; stroke: #332900; stroke-width: 1;}
  </style>
   </defs>
   <polygon points="9 17 1 13 1 21"/>
   <polygon points="17 17 9 13 9 21"/>
   <rect x="51" y="35" width="60" height="32" rx="10"/>
   <rect x="49"
         y="33"
         width="60"
         height="32"
         class="terminal"
         rx="10"/>
   <text class="terminal" x="59" y="53">public</text>
   <rect x="151" y="3" width="44" height="32" rx="10"/>
   <rect x="149"
         y="1"
         width="44"
         height="32"
         class="terminal"
         rx="10"/>
   <text class="terminal" x="159" y="21">use</text>
   <a xmlns:xlink="http://www.w3.org/1999/xlink"
      xlink:href="#use_fun"
      xlink:title="use_fun">
      <rect x="235" y="3" width="70" height="32"/>
      <rect x="233" y="1" width="70" height="32" class="nonterminal"/>
      <text class="nonterminal" x="243" y="21">use_fun</text>
   </a>
   <a xmlns:xlink="http://www.w3.org/1999/xlink"
      xlink:href="#use_module"
      xlink:title="use_module">
      <rect x="235" y="47" width="98" height="32"/>
      <rect x="233" y="45" width="98" height="32" class="nonterminal"/>
      <text class="nonterminal" x="243" y="65">use_module</text>
   </a>
   <a xmlns:xlink="http://www.w3.org/1999/xlink"
      xlink:href="#use_module_member"
      xlink:title="use_module_member">
      <rect x="235" y="91" width="158" height="32"/>
      <rect x="233" y="89" width="158" height="32" class="nonterminal"/>
      <text class="nonterminal" x="243" y="109">use_module_member</text>
   </a>
   <a xmlns:xlink="http://www.w3.org/1999/xlink"
      xlink:href="#use_module_members"
      xlink:title="use_module_members">
      <rect x="235" y="135" width="164" height="32"/>
      <rect x="233" y="133" width="164" height="32" class="nonterminal"/>
      <text class="nonterminal" x="243" y="153">use_module_members</text>
   </a>
   <rect x="439" y="3" width="24" height="32" rx="10"/>
   <rect x="437"
         y="1"
         width="24"
         height="32"
         class="terminal"
         rx="10"/>
   <text class="terminal" x="447" y="21">;</text>
   <path class="line"
         d="m17 17 h2 m20 0 h10 m0 0 h70 m-100 0 h20 m80 0 h20 m-120 0 q10 0 10 10 m100 0 q0 -10 10 -10 m-110 10 v12 m100 0 v-12 m-100 12 q0 10 10 10 m80 0 q10 0 10 -10 m-90 10 h10 m60 0 h10 m20 -32 h10 m44 0 h10 m20 0 h10 m70 0 h10 m0 0 h94 m-204 0 h20 m184 0 h20 m-224 0 q10 0 10 10 m204 0 q0 -10 10 -10 m-214 10 v24 m204 0 v-24 m-204 24 q0 10 10 10 m184 0 q10 0 10 -10 m-194 10 h10 m98 0 h10 m0 0 h66 m-194 -10 v20 m204 0 v-20 m-204 20 v24 m204 0 v-24 m-204 24 q0 10 10 10 m184 0 q10 0 10 -10 m-194 10 h10 m158 0 h10 m0 0 h6 m-194 -10 v20 m204 0 v-20 m-204 20 v24 m204 0 v-24 m-204 24 q0 10 10 10 m184 0 q10 0 10 -10 m-194 10 h10 m164 0 h10 m20 -132 h10 m24 0 h10 m3 0 h-3"/>
   <polygon points="481 17 489 13 489 21"/>
   <polygon points="481 17 473 13 473 21"/>
</svg>
