<?xml version="1.0" encoding="UTF-8"?>
<svg xmlns="http://www.w3.org/2000/svg" width="629" height="169">
   <defs>
      <style type="text/css">
    @namespace "http://www.w3.org/2000/svg";
    .line                 {fill: none; stroke: #332900; stroke-width: 1;}
    .bold-line            {stroke: #141000; shape-rendering: crispEdges; stroke-width: 2;}
    .thin-line            {stroke: #1F1800; shape-rendering: crispEdges}
    .filled               {fill: #332900; stroke: none;}
    text.terminal         {font-family: Verdana, Sans-serif;
                            font-size: 12px;
                            fill: #141000;
                            font-weight: bold;
                          }
    text.nonterminal      {font-family: Verdana, Sans-serif;
                            font-size: 12px;
                            fill: #1A1400;
                            font-weight: normal;
                          }
    text.regexp           {font-family: Verdana, Sans-serif;
                            font-size: 12px;
                            fill: #1F1800;
                            font-weight: normal;
                          }
    rect, circle, polygon {fill: #332900; stroke: #332900;}
    rect.terminal         {fill: #FFDB4D; stroke: #332900; stroke-width: 1;}
    rect.nonterminal      {fill: #FFEC9E; stroke: #332900; stroke-width: 1;}
    rect.text             {fill: none; stroke: none;}
    polygon.regexp        {fill: #FFF4C7; stroke: #332900; stroke-width: 1;}
  </style>
   </defs>
   <polygon points="9 61 1 57 1 65"/>
   <polygon points="17 61 9 57 9 65"/>
   <a xmlns:xlink="http://www.w3.org/1999/xlink"
      xlink:href="#num_literal"
      xlink:title="num_literal">
      <rect x="51" y="47" width="92" height="32"/>
      <rect x="49" y="45" width="92" height="32" class="nonterminal"/>
      <text class="nonterminal" x="59" y="65">num_literal</text>
   </a>
   <a xmlns:xlink="http://www.w3.org/1999/xlink"
      xlink:href="#_module_identifier"
      xlink:title="_module_identifier">
      <rect x="51" y="91" width="138" height="32"/>
      <rect x="49" y="89" width="138" height="32" class="nonterminal"/>
      <text class="nonterminal" x="59" y="109">_module_identifier</text>
   </a>
   <a xmlns:xlink="http://www.w3.org/1999/xlink"
      xlink:href="#module_identity"
      xlink:title="module_identity">
      <rect x="51" y="135" width="122" height="32"/>
      <rect x="49" y="133" width="122" height="32" class="nonterminal"/>
      <text class="nonterminal" x="59" y="153">module_identity</text>
   </a>
   <rect x="229" y="47" width="30" height="32" rx="10"/>
   <rect x="227"
         y="45"
         width="30"
         height="32"
         class="terminal"
         rx="10"/>
   <text class="terminal" x="237" y="65">::</text>
   <rect x="279" y="47" width="28" height="32" rx="10"/>
   <rect x="277"
         y="45"
         width="28"
         height="32"
         class="terminal"
         rx="10"/>
   <text class="terminal" x="287" y="65">{</text>
   <a xmlns:xlink="http://www.w3.org/1999/xlink"
      xlink:href="#use_member"
      xlink:title="use_member">
      <rect x="347" y="47" width="102" height="32"/>
      <rect x="345" y="45" width="102" height="32" class="nonterminal"/>
      <text class="nonterminal" x="355" y="65">use_member</text>
   </a>
   <rect x="347" y="3" width="24" height="32" rx="10"/>
   <rect x="345"
         y="1"
         width="24"
         height="32"
         class="terminal"
         rx="10"/>
   <text class="terminal" x="355" y="21">,</text>
   <rect x="509" y="79" width="24" height="32" rx="10"/>
   <rect x="507"
         y="77"
         width="24"
         height="32"
         class="terminal"
         rx="10"/>
   <text class="terminal" x="517" y="97">,</text>
   <rect x="573" y="47" width="28" height="32" rx="10"/>
   <rect x="571"
         y="45"
         width="28"
         height="32"
         class="terminal"
         rx="10"/>
   <text class="terminal" x="581" y="65">}</text>
   <path class="line"
         d="m17 61 h2 m20 0 h10 m92 0 h10 m0 0 h46 m-178 0 h20 m158 0 h20 m-198 0 q10 0 10 10 m178 0 q0 -10 10 -10 m-188 10 v24 m178 0 v-24 m-178 24 q0 10 10 10 m158 0 q10 0 10 -10 m-168 10 h10 m138 0 h10 m-168 -10 v20 m178 0 v-20 m-178 20 v24 m178 0 v-24 m-178 24 q0 10 10 10 m158 0 q10 0 10 -10 m-168 10 h10 m122 0 h10 m0 0 h16 m20 -88 h10 m30 0 h10 m0 0 h10 m28 0 h10 m20 0 h10 m102 0 h10 m-142 0 l20 0 m-1 0 q-9 0 -9 -10 l0 -24 q0 -10 10 -10 m122 44 l20 0 m-20 0 q10 0 10 -10 l0 -24 q0 -10 -10 -10 m-122 0 h10 m24 0 h10 m0 0 h78 m40 44 h10 m0 0 h34 m-64 0 h20 m44 0 h20 m-84 0 q10 0 10 10 m64 0 q0 -10 10 -10 m-74 10 v12 m64 0 v-12 m-64 12 q0 10 10 10 m44 0 q10 0 10 -10 m-54 10 h10 m24 0 h10 m20 -32 h10 m28 0 h10 m3 0 h-3"/>
   <polygon points="619 61 627 57 627 65"/>
   <polygon points="619 61 611 57 611 65"/>
</svg>
