<?xml version="1.0" encoding="UTF-8"?>
<svg xmlns="http://www.w3.org/2000/svg" width="633" height="37">
   <defs>
      <style type="text/css">
    @namespace "http://www.w3.org/2000/svg";
    .line                 {fill: none; stroke: #332900; stroke-width: 1;}
    .bold-line            {stroke: #141000; shape-rendering: crispEdges; stroke-width: 2;}
    .thin-line            {stroke: #1F1800; shape-rendering: crispEdges}
    .filled               {fill: #332900; stroke: none;}
    text.terminal         {font-family: Verdana, Sans-serif;
                            font-size: 12px;
                            fill: #141000;
                            font-weight: bold;
                          }
    text.nonterminal      {font-family: Verdana, Sans-serif;
                            font-size: 12px;
                            fill: #1A1400;
                            font-weight: normal;
                          }
    text.regexp           {font-family: Verdana, Sans-serif;
                            font-size: 12px;
                            fill: #1F1800;
                            font-weight: normal;
                          }
    rect, circle, polygon {fill: #332900; stroke: #332900;}
    rect.terminal         {fill: #FFDB4D; stroke: #332900; stroke-width: 1;}
    rect.nonterminal      {fill: #FFEC9E; stroke: #332900; stroke-width: 1;}
    rect.text             {fill: none; stroke: none;}
    polygon.regexp        {fill: #FFF4C7; stroke: #332900; stroke-width: 1;}
  </style>
   </defs>
   <polygon points="9 17 1 13 1 21"/>
   <polygon points="17 17 9 13 9 21"/>
   <rect x="31" y="3" width="42" height="32" rx="10"/>
   <rect x="29"
         y="1"
         width="42"
         height="32"
         class="terminal"
         rx="10"/>
   <text class="terminal" x="39" y="21">fun</text>
   <a xmlns:xlink="http://www.w3.org/1999/xlink"
      xlink:href="#module_access"
      xlink:title="module_access">
      <rect x="93" y="3" width="116" height="32"/>
      <rect x="91" y="1" width="116" height="32" class="nonterminal"/>
      <text class="nonterminal" x="101" y="21">module_access</text>
   </a>
   <rect x="229" y="3" width="34" height="32" rx="10"/>
   <rect x="227"
         y="1"
         width="34"
         height="32"
         class="terminal"
         rx="10"/>
   <text class="terminal" x="237" y="21">as</text>
   <a xmlns:xlink="http://www.w3.org/1999/xlink"
      xlink:href="#module_access"
      xlink:title="module_access">
      <rect x="283" y="3" width="116" height="32"/>
      <rect x="281" y="1" width="116" height="32" class="nonterminal"/>
      <text class="nonterminal" x="291" y="21">module_access</text>
   </a>
   <rect x="419" y="3" width="24" height="32" rx="10"/>
   <rect x="417"
         y="1"
         width="24"
         height="32"
         class="terminal"
         rx="10"/>
   <text class="terminal" x="427" y="21">.</text>
   <a xmlns:xlink="http://www.w3.org/1999/xlink"
      xlink:href="#_function_identifier"
      xlink:title="_function_identifier">
      <rect x="463" y="3" width="142" height="32"/>
      <rect x="461" y="1" width="142" height="32" class="nonterminal"/>
      <text class="nonterminal" x="471" y="21">_function_identifier</text>
   </a>
   <path class="line"
         d="m17 17 h2 m0 0 h10 m42 0 h10 m0 0 h10 m116 0 h10 m0 0 h10 m34 0 h10 m0 0 h10 m116 0 h10 m0 0 h10 m24 0 h10 m0 0 h10 m142 0 h10 m3 0 h-3"/>
   <polygon points="623 17 631 13 631 21"/>
   <polygon points="623 17 615 13 615 21"/>
</svg>
