<?xml version="1.0" encoding="UTF-8"?>
<svg xmlns="http://www.w3.org/2000/svg" width="913" height="173">
   <defs>
      <style type="text/css">
    @namespace "http://www.w3.org/2000/svg";
    .line                 {fill: none; stroke: #332900; stroke-width: 1;}
    .bold-line            {stroke: #141000; shape-rendering: crispEdges; stroke-width: 2;}
    .thin-line            {stroke: #1F1800; shape-rendering: crispEdges}
    .filled               {fill: #332900; stroke: none;}
    text.terminal         {font-family: Verdana, Sans-serif;
                            font-size: 12px;
                            fill: #141000;
                            font-weight: bold;
                          }
    text.nonterminal      {font-family: Verdana, Sans-serif;
                            font-size: 12px;
                            fill: #1A1400;
                            font-weight: normal;
                          }
    text.regexp           {font-family: Verdana, Sans-serif;
                            font-size: 12px;
                            fill: #1F1800;
                            font-weight: normal;
                          }
    rect, circle, polygon {fill: #332900; stroke: #332900;}
    rect.terminal         {fill: #FFDB4D; stroke: #332900; stroke-width: 1;}
    rect.nonterminal      {fill: #FFEC9E; stroke: #332900; stroke-width: 1;}
    rect.text             {fill: none; stroke: none;}
    polygon.regexp        {fill: #FFF4C7; stroke: #332900; stroke-width: 1;}
  </style>
   </defs>
   <polygon points="9 33 1 29 1 37"/>
   <polygon points="17 33 9 29 9 37"/>
   <rect x="51" y="19" width="68" height="32" rx="10"/>
   <rect x="49"
         y="17"
         width="68"
         height="32"
         class="terminal"
         rx="10"/>
   <text class="terminal" x="59" y="37">vector[</text>
   <rect x="51" y="107" width="72" height="32" rx="10"/>
   <rect x="49"
         y="105"
         width="72"
         height="32"
         class="terminal"
         rx="10"/>
   <text class="terminal" x="59" y="125">vector&lt;</text>
   <a xmlns:xlink="http://www.w3.org/1999/xlink"
      xlink:href="#_type"
      xlink:title="_type">
      <rect x="163" y="107" width="56" height="32"/>
      <rect x="161" y="105" width="56" height="32" class="nonterminal"/>
      <text class="nonterminal" x="171" y="125">_type</text>
   </a>
   <rect x="163" y="63" width="24" height="32" rx="10"/>
   <rect x="161"
         y="61"
         width="24"
         height="32"
         class="terminal"
         rx="10"/>
   <text class="terminal" x="171" y="81">,</text>
   <rect x="279" y="139" width="24" height="32" rx="10"/>
   <rect x="277"
         y="137"
         width="24"
         height="32"
         class="terminal"
         rx="10"/>
   <text class="terminal" x="287" y="157">,</text>
   <rect x="343" y="107" width="30" height="32" rx="10"/>
   <rect x="341"
         y="105"
         width="30"
         height="32"
         class="terminal"
         rx="10"/>
   <text class="terminal" x="351" y="125">&gt;</text>
   <rect x="393" y="107" width="26" height="32" rx="10"/>
   <rect x="391"
         y="105"
         width="26"
         height="32"
         class="terminal"
         rx="10"/>
   <text class="terminal" x="401" y="125">[</text>
   <a xmlns:xlink="http://www.w3.org/1999/xlink"
      xlink:href="#_expression"
      xlink:title="_expression">
      <rect x="499" y="19" width="98" height="32"/>
      <rect x="497" y="17" width="98" height="32" class="nonterminal"/>
      <text class="nonterminal" x="507" y="37">_expression</text>
   </a>
   <rect x="617" y="19" width="24" height="32" rx="10"/>
   <rect x="615"
         y="17"
         width="24"
         height="32"
         class="terminal"
         rx="10"/>
   <text class="terminal" x="625" y="37">,</text>
   <a xmlns:xlink="http://www.w3.org/1999/xlink"
      xlink:href="#_expression"
      xlink:title="_expression">
      <rect x="721" y="51" width="98" height="32"/>
      <rect x="719" y="49" width="98" height="32" class="nonterminal"/>
      <text class="nonterminal" x="729" y="69">_expression</text>
   </a>
   <rect x="859" y="19" width="26" height="32" rx="10"/>
   <rect x="857"
         y="17"
         width="26"
         height="32"
         class="terminal"
         rx="10"/>
   <text class="terminal" x="867" y="37">]</text>
   <path class="line"
         d="m17 33 h2 m20 0 h10 m68 0 h10 m0 0 h300 m-408 0 h20 m388 0 h20 m-428 0 q10 0 10 10 m408 0 q0 -10 10 -10 m-418 10 v68 m408 0 v-68 m-408 68 q0 10 10 10 m388 0 q10 0 10 -10 m-398 10 h10 m72 0 h10 m20 0 h10 m56 0 h10 m-96 0 l20 0 m-1 0 q-9 0 -9 -10 l0 -24 q0 -10 10 -10 m76 44 l20 0 m-20 0 q10 0 10 -10 l0 -24 q0 -10 -10 -10 m-76 0 h10 m24 0 h10 m0 0 h32 m40 44 h10 m0 0 h34 m-64 0 h20 m44 0 h20 m-84 0 q10 0 10 10 m64 0 q0 -10 10 -10 m-74 10 v12 m64 0 v-12 m-64 12 q0 10 10 10 m44 0 q10 0 10 -10 m-54 10 h10 m24 0 h10 m20 -32 h10 m30 0 h10 m0 0 h10 m26 0 h10 m60 -88 h10 m98 0 h10 m0 0 h10 m24 0 h10 m-182 0 l20 0 m-1 0 q-9 0 -9 -10 l0 -12 q0 -10 10 -10 m162 32 l20 0 m-20 0 q10 0 10 -10 l0 -12 q0 -10 -10 -10 m-162 0 h10 m0 0 h152 m-202 32 h20 m202 0 h20 m-242 0 q10 0 10 10 m222 0 q0 -10 10 -10 m-232 10 v14 m222 0 v-14 m-222 14 q0 10 10 10 m202 0 q10 0 10 -10 m-212 10 h10 m0 0 h192 m40 -34 h10 m0 0 h108 m-138 0 h20 m118 0 h20 m-158 0 q10 0 10 10 m138 0 q0 -10 10 -10 m-148 10 v12 m138 0 v-12 m-138 12 q0 10 10 10 m118 0 q10 0 10 -10 m-128 10 h10 m98 0 h10 m20 -32 h10 m26 0 h10 m3 0 h-3"/>
   <polygon points="903 33 911 29 911 37"/>
   <polygon points="903 33 895 29 895 37"/>
</svg>
